M48
INCH
T01C0.028
T02C0.0354
T03C0.0472
T04C0.059
T05C0.067
T06C0.157
%
T01
X+002750Y+033750
X+003750Y+033750
X+010250Y+033750
X+011250Y+033750
X+017750Y+033750
X+018750Y+033750
X+025250Y+033750
X+026250Y+033750
X+029000Y+027250
X+030000Y+027250
X+022500Y+027250
X+021500Y+027250
X+015000Y+027250
X+014000Y+027250
X+007500Y+027250
X+006500Y+027250
X+003750Y+020750
X+002750Y+020750
X+010250Y+020750
X+011250Y+020750
X+017750Y+020750
X+018750Y+020750
X+025250Y+020750
X+026250Y+020750
X+029000Y+014250
X+030000Y+014250
X+022500Y+014250
X+021500Y+014250
X+015000Y+014250
X+014000Y+014250
X+007500Y+014250
X+006500Y+014250
X+003750Y+007750
X+002750Y+007750
X+010250Y+007750
X+011250Y+007750
X+017750Y+007750
X+018750Y+007750
X+025250Y+007750
X+026250Y+007750
X+029000Y+001250
X+030000Y+001250
X+022500Y+001250
X+021500Y+001250
X+015000Y+001250
X+014000Y+001250
X+007500Y+001250
X+006500Y+001250
T02
X+006500Y+038000
X+003000Y+038500
X+000500Y+037000
X+000500Y+034000
X+004250Y+027250
X+000500Y+020750
X+004250Y+014250
X+000500Y+007750
X+004250Y+001250
X+029500Y+009250
X+029500Y+010750
X+033250Y+015750
X+033250Y+017250
X+029500Y+022250
X+029500Y+023750
X+033000Y+028500
X+033000Y+030250
X+029500Y+035000
X+029500Y+037000
X+029000Y+038000
X+025750Y+038500
X+021500Y+038000
X+018250Y+038500
X+014000Y+038000
X+010750Y+038500
X+033250Y+004250
X+033250Y+002750
T03
X+007050Y+033900
X+010750Y+031750
X+014525Y+033875
X+018275Y+031725
X+022025Y+033900
X+022025Y+038250
X+014525Y+038225
X+007050Y+038250
X+010750Y+027400
X+007000Y+025225
X+007000Y+020875
X+010750Y+018700
X+010750Y+014350
X+007025Y+012225
X+007025Y+007875
X+010750Y+005750
X+010750Y+001400
X+018225Y+001400
X+018225Y+005750
X+014550Y+007900
X+014550Y+012250
X+018225Y+014350
X+018225Y+018700
X+014550Y+020875
X+014550Y+025225
X+018275Y+027375
X+022050Y+025250
X+025825Y+027375
X+029525Y+025250
X+033000Y+027250
X+033000Y+031600
X+029525Y+033875
X+025825Y+031725
X+029525Y+038225
X+029525Y+020900
X+025800Y+018700
X+022050Y+020900
X+025800Y+014350
X+029525Y+012250
X+033300Y+014300
X+033300Y+018650
X+029525Y+007900
X+033275Y+005725
X+033275Y+001375
X+025725Y+001350
X+025725Y+005700
X+022025Y+007875
X+022025Y+012225
T04
X+001750Y+036750
X+004250Y+037750
X+009250Y+036750
X+011750Y+037750
X+016750Y+036750
X+019250Y+037750
X+024250Y+036750
X+026750Y+037750
X+023025Y+031275
X+020525Y+030275
X+015525Y+031275
X+013025Y+030275
X+008000Y+031250
X+005500Y+030250
X+004250Y+024750
X+001750Y+023750
X+005500Y+017250
X+008000Y+018250
X+013025Y+017250
X+015525Y+018250
X+020525Y+017250
X+023025Y+018250
X+028025Y+017225
X+030525Y+018225
X+026775Y+011775
X+024275Y+010775
X+019275Y+011775
X+016775Y+010775
X+011775Y+011775
X+009275Y+010775
X+004250Y+011750
X+001750Y+010750
X+005500Y+004250
X+008000Y+005250
X+013025Y+004275
X+015525Y+005275
X+020500Y+004225
X+023000Y+005225
X+028000Y+004250
X+030500Y+005250
X+024275Y+023775
X+026775Y+024775
X+028025Y+030275
X+030525Y+031275
X+019275Y+024775
X+016775Y+023775
X+011775Y+024775
X+009275Y+023775
T05
X+001250Y+035750
X+005250Y+035750
X+008750Y+035750
X+012750Y+035750
X+016250Y+035750
X+020250Y+035750
X+023750Y+035750
X+027750Y+035750
X+027525Y+029275
X+024025Y+029275
X+020025Y+029275
X+016525Y+029275
X+012525Y+029275
X+009000Y+029250
X+005000Y+029250
X+005250Y+022750
X+008775Y+022775
X+012775Y+022775
X+016275Y+022775
X+020275Y+022775
X+023775Y+022775
X+027775Y+022775
X+027525Y+016225
X+024025Y+016250
X+020025Y+016250
X+016525Y+016250
X+012525Y+016250
X+009000Y+016250
X+005000Y+016250
X+005250Y+009750
X+008775Y+009775
X+012775Y+009775
X+016275Y+009775
X+020275Y+009775
X+023775Y+009775
X+027775Y+009775
X+027500Y+003250
X+024000Y+003225
X+020000Y+003225
X+016525Y+003275
X+012525Y+003275
X+009000Y+003250
X+005000Y+003250
X+001250Y+009750
X+001250Y+022750
X+031525Y+029275
X+031525Y+016225
X+031500Y+003250
T06
X+003250Y+035750
X+010750Y+035750
X+014525Y+029275
X+018250Y+035750
X+022025Y+029275
X+025750Y+035750
X+029525Y+029275
X+025775Y+022775
X+018275Y+022775
X+010775Y+022775
X+007000Y+029250
X+003250Y+022750
X+007000Y+016250
X+010775Y+009775
X+014525Y+016250
X+018275Y+009775
X+022025Y+016250
X+025775Y+009775
X+029525Y+016225
X+029500Y+003250
X+022000Y+003225
X+014525Y+003275
X+007000Y+003250
X+003250Y+009750
T00
M30
