G04 DipTrace 2.1.9.2*
%INTop.gbr*%
%MOIN*%
%ADD10C,0.0098*%
%ADD11C,0.006*%
%ADD12C,0.003*%
%ADD13C,0.013*%
%ADD14C,0.1*%
%ADD15R,0.0709X0.0709*%
%ADD16C,0.0709*%
%ADD17C,0.05*%
%ADD18R,0.05X0.05*%
%ADD19C,0.0591*%
%ADD20C,0.157*%
%ADD21C,0.067*%
%ADD22C,0.0472*%
%ADD23C,0.028*%
%ADD24C,0.0354*%
%ADD25C,0.008*%
%ADD26C,0.0511*%
%ADD27R,0.058X0.058*%
%ADD28R,0.042X0.042*%
%ADD29C,0.058*%
%ADD30C,0.042*%
%ADD31C,0.0789*%
%ADD32C,0.0629*%
%ADD33R,0.0789X0.0789*%
%ADD34R,0.0629X0.0629*%
%ADD35C,0.108*%
%ADD36C,0.092*%
%ADD37C,0.0077*%
%FSLAX44Y44*%
%SFA1B1*%
%OFA0B0*%
G04*
G70*
G90*
G75*
G01*
%LNTop*%
%LPD*%
X500Y37000D2*
D13*
X990D1*
Y36750D1*
X1750D1*
X24250D2*
X26605D1*
X26855Y37000D1*
X29500D1*
X16750Y36750D2*
X24250D1*
X9250D2*
X16750D1*
X1750D2*
X9250D1*
X8000Y31250D2*
X8695D1*
X9195Y31750D1*
X10750D1*
X4250Y24750D2*
X4945D1*
X5420Y25225D1*
X7000D1*
X4250Y11750D2*
X4945D1*
X5420Y12225D1*
X7025D1*
X8000Y5250D2*
X8695D1*
X9195Y5750D1*
X10750D1*
X30525Y31275D2*
X31220D1*
X31545Y31600D1*
X33000D1*
X11775Y24775D2*
X12675D1*
X13126Y25225D1*
X14550D1*
X19275Y24775D2*
X20829D1*
X21305Y25250D1*
X22050D1*
X26775Y24775D2*
X27537D1*
X28013Y25250D1*
X29525D1*
X11775Y11775D2*
X13503D1*
X13978Y12250D1*
X14550D1*
X19275Y11775D2*
X20837D1*
X21287Y12225D1*
X22025D1*
X26775Y11775D2*
X27686D1*
X28161Y12250D1*
X29525D1*
X15525Y5275D2*
X17178D1*
X17653Y5750D1*
X18225D1*
X23000Y5225D2*
X24454D1*
X24930Y5700D1*
X25725D1*
X33000Y30250D2*
X31326D1*
X31301Y30275D1*
X28025D1*
X13025D2*
X9543D1*
X9518Y30250D1*
X5500D1*
X20525Y30275D2*
X13025D1*
X28025D2*
X20525D1*
X29500Y23750D2*
X28048D1*
X28023Y23775D1*
X24275D1*
X9275D2*
X5793D1*
X5768Y23750D1*
X1750D1*
X16775Y23775D2*
X9275D1*
X24275D2*
X16775D1*
X5500Y17250D2*
X13025D1*
X28025Y17225D2*
X29227D1*
X29252Y17250D1*
X33250D1*
X20525D2*
X25984D1*
X26009Y17225D1*
X28025D1*
X13025Y17250D2*
X20525D1*
X29500Y10750D2*
X28196D1*
X28171Y10775D1*
X24275D1*
X9275D2*
X5793D1*
X5768Y10750D1*
X1750D1*
X16775Y10775D2*
X9275D1*
X24275D2*
X16775D1*
X5500Y4250D2*
X9518D1*
X9543Y4275D1*
X13025D1*
X28000Y4250D2*
X33250D1*
X20500Y4225D2*
X21702D1*
X21727Y4250D1*
X28000D1*
X13025Y4275D2*
X18749D1*
X18799Y4225D1*
X20500D1*
X3750Y33750D2*
X4195Y33305D1*
X10805D1*
X11250Y33750D1*
X26250D2*
X28250D1*
X29500Y35000D1*
X18750Y33750D2*
X19195Y33305D1*
X25805D1*
X26250Y33750D1*
X11250D2*
X11695Y33305D1*
X18305D1*
X18750Y33750D1*
X4250Y27250D2*
X4740Y27740D1*
X7010D1*
X7500Y27250D1*
X30000D2*
X31250Y28500D1*
X33000D1*
X22500Y27250D2*
X23772D1*
X24477Y26545D1*
X29295D1*
X30000Y27250D1*
X15000D2*
X15445Y26805D1*
X22055D1*
X22500Y27250D1*
X7500D2*
X7945Y26805D1*
X14555D1*
X15000Y27250D1*
X500Y20750D2*
X990Y21240D1*
X3260D1*
X3750Y20750D1*
X26250D2*
X28000D1*
X29500Y22250D1*
X18750Y20750D2*
X19195Y20305D1*
X25805D1*
X26250Y20750D1*
X11250D2*
X11695Y20305D1*
X18305D1*
X18750Y20750D1*
X3750D2*
X4195Y20305D1*
X10805D1*
X11250Y20750D1*
X4250Y14250D2*
X5000Y13500D1*
X6750D1*
X7500Y14250D1*
X30000D2*
X30599Y14849D1*
X32349D1*
X33250Y15750D1*
X22500Y14250D2*
X22949Y13801D1*
X29551D1*
X30000Y14250D1*
X15000D2*
X15449Y13801D1*
X22051D1*
X22500Y14250D1*
X7500D2*
X8149Y14899D1*
X14351D1*
X15000Y14250D1*
X500Y7750D2*
X990Y8240D1*
X3260D1*
X3750Y7750D1*
X26250D2*
X28000D1*
X29500Y9250D1*
X18750Y7750D2*
X19195Y7305D1*
X25805D1*
X26250Y7750D1*
X11250D2*
X11695Y7305D1*
X18305D1*
X18750Y7750D1*
X3750D2*
X4195Y7305D1*
X10805D1*
X11250Y7750D1*
X4250Y1250D2*
X4740Y1740D1*
X7010D1*
X7500Y1250D1*
X30000D2*
X31750D1*
X33250Y2750D1*
X22500Y1250D2*
X23149Y1899D1*
X29351D1*
X30000Y1250D1*
X15000D2*
X15445Y805D1*
X22055D1*
X22500Y1250D1*
X7500D2*
X7945Y805D1*
X14555D1*
X15000Y1250D1*
D14*
X1750Y36750D3*
X4250Y37750D3*
X9250Y36750D3*
X11750Y37750D3*
X16750Y36750D3*
X19250Y37750D3*
X24250Y36750D3*
X26750Y37750D3*
D15*
X7050Y33900D3*
D16*
Y38250D3*
D15*
X14525Y33875D3*
D16*
Y38225D3*
D15*
X22025Y33900D3*
D16*
Y38250D3*
D15*
X29525Y33875D3*
D16*
Y38225D3*
D14*
X5500Y30250D3*
X8000Y31250D3*
X13025Y30275D3*
X15525Y31275D3*
X20525Y30275D3*
X23025Y31275D3*
X28025Y30275D3*
X30525Y31275D3*
D15*
X10750Y27400D3*
D16*
Y31750D3*
D15*
X18275Y27375D3*
D16*
Y31725D3*
D15*
X25825Y27375D3*
D16*
Y31725D3*
D15*
X33000Y27250D3*
D16*
Y31600D3*
D14*
X1750Y23750D3*
X4250Y24750D3*
X9275Y23775D3*
X11775Y24775D3*
X16775Y23775D3*
X19275Y24775D3*
X24275Y23775D3*
X26775Y24775D3*
D15*
X7000Y20875D3*
D16*
Y25225D3*
D15*
X14550Y20875D3*
D16*
Y25225D3*
D15*
X22050Y20900D3*
D16*
Y25250D3*
D15*
X29525Y20900D3*
D16*
Y25250D3*
D14*
X5500Y17250D3*
X8000Y18250D3*
X13025Y17250D3*
X15525Y18250D3*
X20525Y17250D3*
X23025Y18250D3*
X28025Y17225D3*
X30525Y18225D3*
D15*
X10750Y14350D3*
D16*
Y18700D3*
D15*
X18225Y14350D3*
D16*
Y18700D3*
D15*
X25800Y14350D3*
D16*
Y18700D3*
D15*
X33300Y14300D3*
D16*
Y18650D3*
D14*
X1750Y10750D3*
X4250Y11750D3*
X9275Y10775D3*
X11775Y11775D3*
X16775Y10775D3*
X19275Y11775D3*
X24275Y10775D3*
X26775Y11775D3*
D15*
X7025Y7875D3*
D16*
Y12225D3*
D15*
X14550Y7900D3*
D16*
Y12250D3*
D15*
X22025Y7875D3*
D16*
Y12225D3*
D15*
X29525Y7900D3*
D16*
Y12250D3*
D14*
X5500Y4250D3*
X8000Y5250D3*
X13025Y4275D3*
X15525Y5275D3*
X20500Y4225D3*
X23000Y5225D3*
X28000Y4250D3*
X30500Y5250D3*
D15*
X10750Y1400D3*
D16*
Y5750D3*
D15*
X18225Y1400D3*
D16*
Y5750D3*
D15*
X25725Y1350D3*
D16*
Y5700D3*
D15*
X33275Y1375D3*
D16*
Y5725D3*
D17*
X2750Y33750D3*
D18*
X3750D3*
D17*
X10250D3*
D18*
X11250D3*
D17*
X17750D3*
D18*
X18750D3*
D17*
X25250D3*
D18*
X26250D3*
D17*
X6500Y27250D3*
D18*
X7500D3*
D17*
X14000D3*
D18*
X15000D3*
D17*
X21500D3*
D18*
X22500D3*
D17*
X29000D3*
D18*
X30000D3*
D17*
X2750Y20750D3*
D18*
X3750D3*
D17*
X10250D3*
D18*
X11250D3*
D17*
X17750D3*
D18*
X18750D3*
D17*
X25250D3*
D18*
X26250D3*
D17*
X6500Y14250D3*
D18*
X7500D3*
D17*
X14000D3*
D18*
X15000D3*
D17*
X21500D3*
D18*
X22500D3*
D17*
X29000D3*
D18*
X30000D3*
D17*
X2750Y7750D3*
D18*
X3750D3*
D17*
X10250D3*
D18*
X11250D3*
D17*
X17750D3*
D18*
X18750D3*
D17*
X25250D3*
D18*
X26250D3*
D17*
X6500Y1250D3*
D18*
X7500D3*
D17*
X14000D3*
D18*
X15000D3*
D17*
X21500D3*
D18*
X22500D3*
D17*
X29000D3*
D18*
X30000D3*
D19*
X6500Y38000D3*
X14000D3*
X21500D3*
X29000D3*
X500Y37000D3*
X29500D3*
X500Y34000D3*
X3000Y38500D3*
X10750D3*
X18250D3*
X25750D3*
X4250Y27250D3*
X500Y20750D3*
X4250Y14250D3*
X500Y7750D3*
X4250Y1250D3*
X33000Y30250D3*
X29500Y23750D3*
X33250Y17250D3*
X29500Y10750D3*
X33250Y4250D3*
X29500Y35000D3*
X33000Y28500D3*
X29500Y22250D3*
X33250Y15750D3*
X29500Y9250D3*
X33250Y2750D3*
M02*
