G04 DipTrace 2.1.9.2*
%INTopSilk.gbr*%
%MOMM*%
%ADD10C,0.25*%
%ADD11C,0.14*%
%ADD12C,0.076*%
%ADD13C,0.762*%
%ADD14C,2.54*%
%ADD15R,1.8X1.8*%
%ADD16C,1.8*%
%ADD17C,1.27*%
%ADD18R,1.27X1.27*%
%ADD19C,1.016*%
%ADD20C,0.483*%
%ADD21C,3.988*%
%ADD22C,1.702*%
%ADD23C,1.499*%
%ADD24C,1.2*%
%ADD25C,0.711*%
%ADD26C,0.9*%
%ADD27C,0.203*%
%ADD28C,1.219*%
%ADD29C,0.813*%
%ADD30R,1.473X1.473*%
%ADD31R,1.067X1.067*%
%ADD32C,1.473*%
%ADD33C,1.067*%
%ADD34C,2.003*%
%ADD35C,1.597*%
%ADD36R,2.003X2.003*%
%ADD37R,1.597X1.597*%
%ADD38C,2.743*%
%ADD39C,2.337*%
%ADD40C,0.196*%
%ADD41C,0.353*%
%ADD42C,0.275*%
%FSLAX53Y53*%
%SFA1B1*%
%OFA0B0*%
G04*
G71*
G90*
G75*
G01*
%LNTopSilk*%
%LPD*%
X635Y98425D2*
D10*
Y83185D1*
X15875D1*
Y98425D1*
X635D1*
X19685D2*
Y83185D1*
X34925D1*
Y98425D1*
X19685D1*
X38735D2*
Y83185D1*
X53975D1*
Y98425D1*
X38735D1*
X57785D2*
Y83185D1*
X73025D1*
Y98425D1*
X57785D1*
X19307Y87323D2*
X16507D1*
Y87374D2*
Y92078D1*
X19307Y88081D2*
X16507D1*
X19307Y92078D2*
X16507D1*
X19307Y87374D2*
Y92078D1*
X38294Y87260D2*
X35494D1*
Y87311D2*
Y92014D1*
X38294Y88018D2*
X35494D1*
X38294Y92014D2*
X35494D1*
X38294Y87311D2*
Y92014D1*
X57344Y87323D2*
X54544D1*
Y87374D2*
Y92078D1*
X57344Y88081D2*
X54544D1*
X57344Y92078D2*
X54544D1*
X57344Y87374D2*
Y92078D1*
X76394Y87260D2*
X73594D1*
Y87311D2*
Y92014D1*
X76394Y88018D2*
X73594D1*
X76394Y92014D2*
X73594D1*
X76394Y87311D2*
Y92014D1*
X10160Y81979D2*
Y66739D1*
X25400D1*
Y81979D1*
X10160D1*
X29274D2*
Y66739D1*
X44514D1*
Y81979D1*
X29274D1*
X48324D2*
Y66739D1*
X63564D1*
Y81979D1*
X48324D1*
X67374D2*
Y66739D1*
X82614D1*
Y81979D1*
X67374D1*
X28705Y72718D2*
X25905D1*
Y72769D2*
Y77473D1*
X28705Y73476D2*
X25905D1*
X28705Y77473D2*
X25905D1*
X28705Y72769D2*
Y77473D1*
X47819Y72655D2*
X45018D1*
Y72706D2*
Y77409D1*
X47819Y73413D2*
X45018D1*
X47819Y77409D2*
X45018D1*
X47819Y72706D2*
Y77409D1*
X66996Y72655D2*
X64195D1*
Y72706D2*
Y77409D1*
X66996Y73413D2*
X64195D1*
X66996Y77409D2*
X64195D1*
X66996Y72706D2*
Y77409D1*
X85220Y72337D2*
X82420D1*
Y72388D2*
Y77092D1*
X85220Y73095D2*
X82420D1*
X85220Y77092D2*
X82420D1*
X85220Y72388D2*
Y77092D1*
X699Y65469D2*
Y50229D1*
X15939D1*
Y65469D1*
X699D1*
X19748D2*
Y50229D1*
X34989D1*
Y65469D1*
X19748D1*
X38799D2*
Y50229D1*
X54038D1*
Y65469D1*
X38799D1*
X57849D2*
Y50229D1*
X73088D1*
Y65469D1*
X57849D1*
X19180Y56145D2*
X16380D1*
Y56196D2*
Y60899D1*
X19180Y56903D2*
X16380D1*
X19180Y60899D2*
X16380D1*
X19180Y56196D2*
Y60899D1*
X38357Y56145D2*
X35557D1*
Y56196D2*
Y60899D1*
X38357Y56903D2*
X35557D1*
X38357Y60899D2*
X35557D1*
X38357Y56196D2*
Y60899D1*
X57407Y56208D2*
X54607D1*
Y56259D2*
Y60963D1*
X57407Y56966D2*
X54607D1*
X57407Y60963D2*
X54607D1*
X57407Y56259D2*
Y60963D1*
X76394Y56208D2*
X73594D1*
Y56259D2*
Y60963D1*
X76394Y56966D2*
X73594D1*
X76394Y60963D2*
X73594D1*
X76394Y56259D2*
Y60963D1*
X10160Y48895D2*
Y33655D1*
X25400D1*
Y48895D1*
X10160D1*
X29274D2*
Y33655D1*
X44514D1*
Y48895D1*
X29274D1*
X48324D2*
Y33655D1*
X63564D1*
Y48895D1*
X48324D1*
X67374Y48832D2*
Y33591D1*
X82614D1*
Y48832D1*
X67374D1*
X28705Y39571D2*
X25905D1*
Y39622D2*
Y44326D1*
X28705Y40329D2*
X25905D1*
X28705Y44326D2*
X25905D1*
X28705Y39622D2*
Y44326D1*
X47691Y39571D2*
X44892D1*
Y39622D2*
Y44326D1*
X47691Y40329D2*
X44892D1*
X47691Y44326D2*
X44892D1*
X47691Y39622D2*
Y44326D1*
X66932Y39571D2*
X64132D1*
Y39622D2*
Y44326D1*
X66932Y40329D2*
X64132D1*
X66932Y44326D2*
X64132D1*
X66932Y39622D2*
Y44326D1*
X85982Y39444D2*
X83182D1*
Y39495D2*
Y44199D1*
X85982Y40202D2*
X83182D1*
X85982Y44199D2*
X83182D1*
X85982Y39495D2*
Y44199D1*
X699Y32449D2*
Y17208D1*
X15939D1*
Y32449D1*
X699D1*
X19748D2*
Y17208D1*
X34989D1*
Y32449D1*
X19748D1*
X38799D2*
Y17208D1*
X54038D1*
Y32449D1*
X38799D1*
X57849D2*
Y17208D1*
X73088D1*
Y32449D1*
X57849D1*
X19244Y23125D2*
X16444D1*
Y23176D2*
Y27879D1*
X19244Y23883D2*
X16444D1*
X19244Y27879D2*
X16444D1*
X19244Y23176D2*
Y27879D1*
X38357Y23188D2*
X35557D1*
Y23239D2*
Y27943D1*
X38357Y23946D2*
X35557D1*
X38357Y27943D2*
X35557D1*
X38357Y23239D2*
Y27943D1*
X57344Y23125D2*
X54544D1*
Y23176D2*
Y27879D1*
X57344Y23883D2*
X54544D1*
X57344Y27879D2*
X54544D1*
X57344Y23176D2*
Y27879D1*
X76394Y23188D2*
X73594D1*
Y23239D2*
Y27943D1*
X76394Y23946D2*
X73594D1*
X76394Y27943D2*
X73594D1*
X76394Y23239D2*
Y27943D1*
X10160Y15939D2*
Y699D1*
X25400D1*
Y15939D1*
X10160D1*
X29274D2*
Y699D1*
X44514D1*
Y15939D1*
X29274D1*
X48260Y15812D2*
Y571D1*
X63500D1*
Y15812D1*
X48260D1*
X67310Y15875D2*
Y635D1*
X82550D1*
Y15875D1*
X67310D1*
X28705Y6678D2*
X25905D1*
Y6729D2*
Y11433D1*
X28705Y7436D2*
X25905D1*
X28705Y11433D2*
X25905D1*
X28705Y6729D2*
Y11433D1*
X47691Y6678D2*
X44892D1*
Y6729D2*
Y11433D1*
X47691Y7436D2*
X44892D1*
X47691Y11433D2*
X44892D1*
X47691Y6729D2*
Y11433D1*
X66742Y6551D2*
X63941D1*
Y6602D2*
Y11306D1*
X66742Y7309D2*
X63941D1*
X66742Y11306D2*
X63941D1*
X66742Y6602D2*
Y11306D1*
X85919Y6615D2*
X83118D1*
Y6666D2*
Y11369D1*
X85919Y7373D2*
X83118D1*
X85919Y11369D2*
X83118D1*
X85919Y6666D2*
Y11369D1*
X10795Y87628D2*
Y83822D1*
X10789Y87636D2*
G03X10789Y83814I-2535J-1911D01*
G01*
X29845Y87628D2*
Y83822D1*
X29839Y87636D2*
G03X29839Y83814I-2535J-1911D01*
G01*
X48895Y87628D2*
Y83822D1*
X48889Y87636D2*
G03X48889Y83814I-2535J-1911D01*
G01*
X67945Y87628D2*
Y83822D1*
X67939Y87636D2*
G03X67939Y83814I-2535J-1911D01*
G01*
X20320Y71118D2*
Y67312D1*
X20314Y71126D2*
G03X20314Y67304I-2535J-1911D01*
G01*
X39370Y71118D2*
Y67312D1*
X39364Y71126D2*
G03X39364Y67304I-2535J-1911D01*
G01*
X58420Y71118D2*
Y67312D1*
X58414Y71126D2*
G03X58414Y67304I-2535J-1911D01*
G01*
X77470Y71118D2*
Y67312D1*
X77464Y71126D2*
G03X77464Y67304I-2535J-1911D01*
G01*
X10795Y54608D2*
Y50802D1*
X10789Y54616D2*
G03X10789Y50794I-2535J-1911D01*
G01*
X29845Y54608D2*
Y50802D1*
X29839Y54616D2*
G03X29839Y50794I-2535J-1911D01*
G01*
X48895Y54608D2*
Y50802D1*
X48889Y54616D2*
G03X48889Y50794I-2535J-1911D01*
G01*
X67945Y54608D2*
Y50802D1*
X67939Y54616D2*
G03X67939Y50794I-2535J-1911D01*
G01*
X20320Y38098D2*
Y34292D1*
X20314Y38106D2*
G03X20314Y34284I-2535J-1911D01*
G01*
X39370Y38098D2*
Y34292D1*
X39364Y38106D2*
G03X39364Y34284I-2535J-1911D01*
G01*
X58420Y38098D2*
Y34292D1*
X58414Y38106D2*
G03X58414Y34284I-2535J-1911D01*
G01*
X77470Y38098D2*
Y34292D1*
X77464Y38106D2*
G03X77464Y34284I-2535J-1911D01*
G01*
X10795Y21588D2*
Y17782D1*
X10789Y21596D2*
G03X10789Y17774I-2535J-1911D01*
G01*
X29845Y21588D2*
Y17782D1*
X29839Y21596D2*
G03X29839Y17774I-2535J-1911D01*
G01*
X48895Y21588D2*
Y17782D1*
X48889Y21596D2*
G03X48889Y17774I-2535J-1911D01*
G01*
X67945Y21588D2*
Y17782D1*
X67939Y21596D2*
G03X67939Y17774I-2535J-1911D01*
G01*
X20320Y5078D2*
Y1272D1*
X20314Y5086D2*
G03X20314Y1264I-2535J-1911D01*
G01*
X39370Y5078D2*
Y1272D1*
X39364Y5086D2*
G03X39364Y1264I-2535J-1911D01*
G01*
X58420Y5078D2*
Y1272D1*
X58414Y5086D2*
G03X58414Y1264I-2535J-1911D01*
G01*
X77470Y5078D2*
Y1272D1*
X77464Y5086D2*
G03X77464Y1264I-2535J-1911D01*
G01*
X7528Y100102D2*
D40*
X7407Y100225D1*
D2*
X7225Y100285D1*
D2*
X6982D1*
D2*
X6799Y100225D1*
D2*
X6677Y100102D1*
D2*
Y99982D1*
D2*
X6739Y99860D1*
D2*
X6799Y99799D1*
D2*
X6920Y99739D1*
D2*
X7285Y99617D1*
D2*
X7407Y99556D1*
D2*
X7468Y99495D1*
D2*
X7528Y99374D1*
D2*
Y99191D1*
D2*
X7407Y99071D1*
D2*
X7225Y99009D1*
D2*
X6982D1*
D2*
X6799Y99071D1*
D2*
X6677Y99191D1*
X7920Y100285D2*
X8225Y99009D1*
D2*
X8528Y100285D1*
D2*
X8831Y99009D1*
D2*
X9136Y100285D1*
X9528Y100041D2*
X9650Y100102D1*
D2*
X9833Y100283D1*
D2*
Y99009D1*
X26305Y100102D2*
X26184Y100225D1*
D2*
X26002Y100285D1*
D2*
X25759D1*
D2*
X25576Y100225D1*
D2*
X25454Y100102D1*
D2*
Y99982D1*
D2*
X25516Y99860D1*
D2*
X25576Y99799D1*
D2*
X25697Y99739D1*
D2*
X26062Y99617D1*
D2*
X26184Y99556D1*
D2*
X26245Y99495D1*
D2*
X26305Y99374D1*
D2*
Y99191D1*
D2*
X26184Y99071D1*
D2*
X26002Y99009D1*
D2*
X25759D1*
D2*
X25576Y99071D1*
D2*
X25454Y99191D1*
X26697Y100285D2*
X27002Y99009D1*
D2*
X27305Y100285D1*
D2*
X27608Y99009D1*
D2*
X27913Y100285D1*
X28367Y99980D2*
Y100041D1*
D2*
X28427Y100163D1*
D2*
X28488Y100223D1*
D2*
X28610Y100283D1*
D2*
X28853D1*
D2*
X28973Y100223D1*
D2*
X29034Y100163D1*
D2*
X29095Y100041D1*
D2*
Y99920D1*
D2*
X29034Y99798D1*
D2*
X28913Y99617D1*
D2*
X28305Y99009D1*
D2*
X29156D1*
X45355Y100102D2*
X45234Y100225D1*
D2*
X45052Y100285D1*
D2*
X44809D1*
D2*
X44626Y100225D1*
D2*
X44504Y100102D1*
D2*
Y99982D1*
D2*
X44566Y99860D1*
D2*
X44626Y99799D1*
D2*
X44747Y99739D1*
D2*
X45112Y99617D1*
D2*
X45234Y99556D1*
D2*
X45295Y99495D1*
D2*
X45355Y99374D1*
D2*
Y99191D1*
D2*
X45234Y99071D1*
D2*
X45052Y99009D1*
D2*
X44809D1*
D2*
X44626Y99071D1*
D2*
X44504Y99191D1*
X45747Y100285D2*
X46052Y99009D1*
D2*
X46355Y100285D1*
D2*
X46658Y99009D1*
D2*
X46963Y100285D1*
X47477Y100283D2*
X48144D1*
D2*
X47780Y99798D1*
D2*
X47963D1*
D2*
X48084Y99737D1*
D2*
X48144Y99677D1*
D2*
X48206Y99495D1*
D2*
Y99374D1*
D2*
X48144Y99191D1*
D2*
X48023Y99069D1*
D2*
X47841Y99009D1*
D2*
X47658D1*
D2*
X47477Y99069D1*
D2*
X47417Y99131D1*
D2*
X47355Y99252D1*
X64375Y100102D2*
X64254Y100225D1*
D2*
X64072Y100285D1*
D2*
X63829D1*
D2*
X63646Y100225D1*
D2*
X63524Y100102D1*
D2*
Y99982D1*
D2*
X63586Y99860D1*
D2*
X63646Y99799D1*
D2*
X63767Y99739D1*
D2*
X64132Y99617D1*
D2*
X64254Y99556D1*
D2*
X64314Y99495D1*
D2*
X64375Y99374D1*
D2*
Y99191D1*
D2*
X64254Y99071D1*
D2*
X64072Y99009D1*
D2*
X63829D1*
D2*
X63646Y99071D1*
D2*
X63524Y99191D1*
X64767Y100285D2*
X65072Y99009D1*
D2*
X65375Y100285D1*
D2*
X65678Y99009D1*
D2*
X65983Y100285D1*
X66983Y99009D2*
Y100283D1*
D2*
X66375Y99434D1*
D2*
X67286D1*
X14647Y88952D2*
X15923D1*
D2*
Y89378D1*
D2*
X15861Y89560D1*
D2*
X15741Y89682D1*
D2*
X15619Y89743D1*
D2*
X15438Y89803D1*
D2*
X15133D1*
D2*
X14950Y89743D1*
D2*
X14830Y89682D1*
D2*
X14708Y89560D1*
D2*
X14647Y89378D1*
D2*
Y88952D1*
X14891Y90195D2*
X14830Y90317D1*
D2*
X14649Y90500D1*
D2*
X15923D1*
X33634Y88616D2*
X34910D1*
D2*
Y89041D1*
D2*
X34848Y89224D1*
D2*
X34727Y89346D1*
D2*
X34605Y89406D1*
D2*
X34424Y89466D1*
D2*
X34119D1*
D2*
X33937Y89406D1*
D2*
X33816Y89346D1*
D2*
X33694Y89224D1*
D2*
X33634Y89041D1*
D2*
Y88616D1*
X33938Y89920D2*
X33878D1*
D2*
X33756Y89981D1*
D2*
X33695Y90041D1*
D2*
X33635Y90163D1*
D2*
Y90406D1*
D2*
X33695Y90527D1*
D2*
X33756Y90587D1*
D2*
X33878Y90649D1*
D2*
X33999D1*
D2*
X34121Y90587D1*
D2*
X34302Y90466D1*
D2*
X34910Y89859D1*
D2*
Y90709D1*
X52684Y88679D2*
X53960D1*
D2*
Y89105D1*
D2*
X53898Y89287D1*
D2*
X53777Y89409D1*
D2*
X53655Y89470D1*
D2*
X53474Y89530D1*
D2*
X53169D1*
D2*
X52987Y89470D1*
D2*
X52866Y89409D1*
D2*
X52744Y89287D1*
D2*
X52684Y89105D1*
D2*
Y88679D1*
X52685Y90044D2*
Y90711D1*
D2*
X53171Y90347D1*
D2*
Y90530D1*
D2*
X53231Y90651D1*
D2*
X53292Y90711D1*
D2*
X53474Y90773D1*
D2*
X53595D1*
D2*
X53777Y90711D1*
D2*
X53899Y90590D1*
D2*
X53960Y90408D1*
D2*
Y90225D1*
D2*
X53899Y90044D1*
D2*
X53838Y89984D1*
D2*
X53717Y89922D1*
X71734Y88586D2*
X73010D1*
D2*
Y89011D1*
D2*
X72948Y89193D1*
D2*
X72827Y89316D1*
D2*
X72705Y89376D1*
D2*
X72524Y89436D1*
D2*
X72219D1*
D2*
X72037Y89376D1*
D2*
X71916Y89316D1*
D2*
X71794Y89193D1*
D2*
X71734Y89011D1*
D2*
Y88586D1*
X73010Y90436D2*
X71735D1*
D2*
X72584Y89828D1*
D2*
Y90739D1*
X16810Y83656D2*
X16689Y83778D1*
D2*
X16507Y83838D1*
D2*
X16264D1*
D2*
X16082Y83778D1*
D2*
X15959Y83656D1*
D2*
Y83535D1*
D2*
X16021Y83413D1*
D2*
X16082Y83353D1*
D2*
X16202Y83292D1*
D2*
X16567Y83170D1*
D2*
X16689Y83110D1*
D2*
X16750Y83048D1*
D2*
X16810Y82927D1*
D2*
Y82745D1*
D2*
X16689Y82624D1*
D2*
X16507Y82562D1*
D2*
X16264D1*
D2*
X16082Y82624D1*
D2*
X15959Y82745D1*
X17202Y83838D2*
X17507Y82562D1*
D2*
X17810Y83838D1*
D2*
X18113Y82562D1*
D2*
X18418Y83838D1*
X19601Y83413D2*
X19539Y83231D1*
D2*
X19418Y83108D1*
D2*
X19236Y83048D1*
D2*
X19175D1*
D2*
X18993Y83108D1*
D2*
X18872Y83231D1*
D2*
X18810Y83413D1*
D2*
Y83473D1*
D2*
X18872Y83656D1*
D2*
X18993Y83777D1*
D2*
X19175Y83837D1*
D2*
X19236D1*
D2*
X19418Y83777D1*
D2*
X19539Y83656D1*
D2*
X19601Y83413D1*
D2*
Y83108D1*
D2*
X19539Y82805D1*
D2*
X19418Y82623D1*
D2*
X19236Y82562D1*
D2*
X19115D1*
D2*
X18932Y82623D1*
D2*
X18872Y82745D1*
X35545Y83656D2*
X35424Y83778D1*
D2*
X35242Y83838D1*
D2*
X34999D1*
D2*
X34816Y83778D1*
D2*
X34694Y83656D1*
D2*
Y83535D1*
D2*
X34756Y83413D1*
D2*
X34816Y83353D1*
D2*
X34937Y83292D1*
D2*
X35302Y83170D1*
D2*
X35424Y83110D1*
D2*
X35485Y83048D1*
D2*
X35545Y82927D1*
D2*
Y82745D1*
D2*
X35424Y82624D1*
D2*
X35242Y82562D1*
D2*
X34999D1*
D2*
X34816Y82624D1*
D2*
X34694Y82745D1*
X35937Y83838D2*
X36242Y82562D1*
D2*
X36545Y83838D1*
D2*
X36848Y82562D1*
D2*
X37153Y83838D1*
X37545Y83594D2*
X37667Y83656D1*
D2*
X37850Y83837D1*
D2*
Y82562D1*
X38607Y83837D2*
X38424Y83777D1*
D2*
X38302Y83594D1*
D2*
X38242Y83291D1*
D2*
Y83108D1*
D2*
X38302Y82805D1*
D2*
X38424Y82623D1*
D2*
X38607Y82562D1*
D2*
X38728D1*
D2*
X38910Y82623D1*
D2*
X39031Y82805D1*
D2*
X39093Y83108D1*
D2*
Y83291D1*
D2*
X39031Y83594D1*
D2*
X38910Y83777D1*
D2*
X38728Y83837D1*
D2*
X38607D1*
X39031Y83594D2*
X38302Y82805D1*
X54868Y83656D2*
X54747Y83778D1*
D2*
X54565Y83838D1*
D2*
X54322D1*
D2*
X54140Y83778D1*
D2*
X54017Y83656D1*
D2*
Y83535D1*
D2*
X54079Y83413D1*
D2*
X54140Y83353D1*
D2*
X54260Y83292D1*
D2*
X54625Y83170D1*
D2*
X54747Y83110D1*
D2*
X54808Y83048D1*
D2*
X54868Y82927D1*
D2*
Y82745D1*
D2*
X54747Y82624D1*
D2*
X54565Y82562D1*
D2*
X54322D1*
D2*
X54140Y82624D1*
D2*
X54017Y82745D1*
X55260Y83838D2*
X55565Y82562D1*
D2*
X55868Y83838D1*
D2*
X56171Y82562D1*
D2*
X56476Y83838D1*
X56868Y83594D2*
X56990Y83656D1*
D2*
X57173Y83837D1*
D2*
Y82562D1*
X57565Y83594D2*
X57687Y83656D1*
D2*
X57870Y83837D1*
D2*
Y82562D1*
X73645Y83656D2*
X73524Y83778D1*
D2*
X73342Y83838D1*
D2*
X73099D1*
D2*
X72916Y83778D1*
D2*
X72794Y83656D1*
D2*
Y83535D1*
D2*
X72856Y83413D1*
D2*
X72916Y83353D1*
D2*
X73037Y83292D1*
D2*
X73402Y83170D1*
D2*
X73524Y83110D1*
D2*
X73585Y83048D1*
D2*
X73645Y82927D1*
D2*
Y82745D1*
D2*
X73524Y82624D1*
D2*
X73342Y82562D1*
D2*
X73099D1*
D2*
X72916Y82624D1*
D2*
X72794Y82745D1*
X74037Y83838D2*
X74342Y82562D1*
D2*
X74645Y83838D1*
D2*
X74948Y82562D1*
D2*
X75253Y83838D1*
X75645Y83594D2*
X75767Y83656D1*
D2*
X75950Y83837D1*
D2*
Y82562D1*
X76404Y83534D2*
Y83594D1*
D2*
X76464Y83716D1*
D2*
X76524Y83777D1*
D2*
X76647Y83837D1*
D2*
X76889D1*
D2*
X77010Y83777D1*
D2*
X77071Y83716D1*
D2*
X77132Y83594D1*
D2*
Y83473D1*
D2*
X77071Y83351D1*
D2*
X76950Y83170D1*
D2*
X76342Y82562D1*
D2*
X77193D1*
X24045Y74104D2*
X25321D1*
D2*
Y74530D1*
D2*
X25259Y74712D1*
D2*
X25139Y74834D1*
D2*
X25017Y74895D1*
D2*
X24836Y74955D1*
D2*
X24531D1*
D2*
X24348Y74895D1*
D2*
X24228Y74834D1*
D2*
X24106Y74712D1*
D2*
X24045Y74530D1*
D2*
Y74104D1*
X24471Y76138D2*
X24653Y76076D1*
D2*
X24775Y75955D1*
D2*
X24836Y75773D1*
D2*
Y75712D1*
D2*
X24775Y75530D1*
D2*
X24653Y75409D1*
D2*
X24471Y75347D1*
D2*
X24410D1*
D2*
X24228Y75409D1*
D2*
X24107Y75530D1*
D2*
X24047Y75712D1*
D2*
Y75773D1*
D2*
X24107Y75955D1*
D2*
X24228Y76076D1*
D2*
X24471Y76138D1*
D2*
X24775D1*
D2*
X25078Y76076D1*
D2*
X25261Y75955D1*
D2*
X25321Y75773D1*
D2*
Y75652D1*
D2*
X25261Y75469D1*
D2*
X25139Y75409D1*
X43159Y73662D2*
X44435D1*
D2*
Y74088D1*
D2*
X44373Y74270D1*
D2*
X44252Y74392D1*
D2*
X44130Y74453D1*
D2*
X43949Y74513D1*
D2*
X43644D1*
D2*
X43462Y74453D1*
D2*
X43341Y74392D1*
D2*
X43219Y74270D1*
D2*
X43159Y74088D1*
D2*
Y73662D1*
X43403Y74905D2*
X43341Y75027D1*
D2*
X43160Y75210D1*
D2*
X44435D1*
X43160Y75967D2*
X43220Y75784D1*
D2*
X43403Y75662D1*
D2*
X43706Y75602D1*
D2*
X43889D1*
D2*
X44192Y75662D1*
D2*
X44374Y75784D1*
D2*
X44435Y75967D1*
D2*
Y76088D1*
D2*
X44374Y76270D1*
D2*
X44192Y76391D1*
D2*
X43889Y76453D1*
D2*
X43706D1*
D2*
X43403Y76391D1*
D2*
X43220Y76270D1*
D2*
X43160Y76088D1*
D2*
Y75967D1*
X43403Y76391D2*
X44192Y75662D1*
X62336Y73935D2*
X63612D1*
D2*
Y74361D1*
D2*
X63550Y74543D1*
D2*
X63429Y74665D1*
D2*
X63307Y74726D1*
D2*
X63126Y74786D1*
D2*
X62821D1*
D2*
X62639Y74726D1*
D2*
X62518Y74665D1*
D2*
X62396Y74543D1*
D2*
X62336Y74361D1*
D2*
Y73935D1*
X62580Y75178D2*
X62518Y75300D1*
D2*
X62337Y75483D1*
D2*
X63612D1*
X62580Y75875D2*
X62518Y75997D1*
D2*
X62337Y76180D1*
D2*
X63612D1*
X80560Y73345D2*
X81836D1*
D2*
Y73770D1*
D2*
X81774Y73953D1*
D2*
X81654Y74075D1*
D2*
X81532Y74135D1*
D2*
X81351Y74196D1*
D2*
X81046D1*
D2*
X80863Y74135D1*
D2*
X80743Y74075D1*
D2*
X80621Y73953D1*
D2*
X80560Y73770D1*
D2*
Y73345D1*
X80804Y74588D2*
X80743Y74710D1*
D2*
X80562Y74892D1*
D2*
X81836D1*
X80865Y75346D2*
X80804D1*
D2*
X80682Y75407D1*
D2*
X80622Y75467D1*
D2*
X80562Y75589D1*
D2*
Y75832D1*
D2*
X80622Y75953D1*
D2*
X80682Y76013D1*
D2*
X80804Y76075D1*
D2*
X80925D1*
D2*
X81047Y76013D1*
D2*
X81228Y75892D1*
D2*
X81836Y75284D1*
D2*
Y76135D1*
X6970Y67146D2*
X6849Y67268D1*
D2*
X6667Y67328D1*
D2*
X6424D1*
D2*
X6241Y67268D1*
D2*
X6119Y67146D1*
D2*
Y67025D1*
D2*
X6181Y66903D1*
D2*
X6241Y66843D1*
D2*
X6362Y66782D1*
D2*
X6727Y66660D1*
D2*
X6849Y66600D1*
D2*
X6910Y66538D1*
D2*
X6970Y66417D1*
D2*
Y66235D1*
D2*
X6849Y66114D1*
D2*
X6667Y66052D1*
D2*
X6424D1*
D2*
X6241Y66114D1*
D2*
X6119Y66235D1*
X7362Y67328D2*
X7667Y66052D1*
D2*
X7970Y67328D1*
D2*
X8273Y66052D1*
D2*
X8578Y67328D1*
X8970Y67084D2*
X9092Y67146D1*
D2*
X9275Y67327D1*
D2*
Y66052D1*
X9910D2*
X10518Y67327D1*
D2*
X9667D1*
X26021Y67146D2*
X25900Y67268D1*
D2*
X25718Y67328D1*
D2*
X25475D1*
D2*
X25292Y67268D1*
D2*
X25170Y67146D1*
D2*
Y67025D1*
D2*
X25232Y66903D1*
D2*
X25292Y66843D1*
D2*
X25413Y66782D1*
D2*
X25778Y66660D1*
D2*
X25900Y66600D1*
D2*
X25960Y66538D1*
D2*
X26021Y66417D1*
D2*
Y66235D1*
D2*
X25900Y66114D1*
D2*
X25718Y66052D1*
D2*
X25475D1*
D2*
X25292Y66114D1*
D2*
X25170Y66235D1*
X26413Y67328D2*
X26718Y66052D1*
D2*
X27021Y67328D1*
D2*
X27324Y66052D1*
D2*
X27629Y67328D1*
X28021Y67084D2*
X28143Y67146D1*
D2*
X28325Y67327D1*
D2*
Y66052D1*
X29021Y67327D2*
X28840Y67267D1*
D2*
X28778Y67146D1*
D2*
Y67024D1*
D2*
X28840Y66903D1*
D2*
X28960Y66841D1*
D2*
X29203Y66781D1*
D2*
X29386Y66721D1*
D2*
X29507Y66598D1*
D2*
X29567Y66478D1*
D2*
Y66295D1*
D2*
X29507Y66174D1*
D2*
X29446Y66113D1*
D2*
X29264Y66052D1*
D2*
X29021D1*
D2*
X28840Y66113D1*
D2*
X28778Y66174D1*
D2*
X28718Y66295D1*
D2*
Y66478D1*
D2*
X28778Y66598D1*
D2*
X28900Y66721D1*
D2*
X29081Y66781D1*
D2*
X29324Y66841D1*
D2*
X29446Y66903D1*
D2*
X29507Y67024D1*
D2*
Y67146D1*
D2*
X29446Y67267D1*
D2*
X29264Y67327D1*
D2*
X29021D1*
X45100Y67146D2*
X44980Y67268D1*
D2*
X44797Y67328D1*
D2*
X44554D1*
D2*
X44372Y67268D1*
D2*
X44250Y67146D1*
D2*
Y67025D1*
D2*
X44311Y66903D1*
D2*
X44372Y66843D1*
D2*
X44492Y66782D1*
D2*
X44857Y66660D1*
D2*
X44980Y66600D1*
D2*
X45040Y66538D1*
D2*
X45100Y66417D1*
D2*
Y66235D1*
D2*
X44980Y66114D1*
D2*
X44797Y66052D1*
D2*
X44554D1*
D2*
X44372Y66114D1*
D2*
X44250Y66235D1*
X45492Y67328D2*
X45797Y66052D1*
D2*
X46100Y67328D1*
D2*
X46404Y66052D1*
D2*
X46708Y67328D1*
X47100Y67084D2*
X47222Y67146D1*
D2*
X47405Y67327D1*
D2*
Y66052D1*
X48587Y66903D2*
X48526Y66721D1*
D2*
X48405Y66598D1*
D2*
X48222Y66538D1*
D2*
X48162D1*
D2*
X47980Y66598D1*
D2*
X47859Y66721D1*
D2*
X47797Y66903D1*
D2*
Y66963D1*
D2*
X47859Y67146D1*
D2*
X47980Y67267D1*
D2*
X48162Y67327D1*
D2*
X48222D1*
D2*
X48405Y67267D1*
D2*
X48526Y67146D1*
D2*
X48587Y66903D1*
D2*
Y66598D1*
D2*
X48526Y66295D1*
D2*
X48405Y66113D1*
D2*
X48222Y66052D1*
D2*
X48102D1*
D2*
X47919Y66113D1*
D2*
X47859Y66235D1*
X63847Y67146D2*
X63726Y67268D1*
D2*
X63544Y67328D1*
D2*
X63301D1*
D2*
X63118Y67268D1*
D2*
X62996Y67146D1*
D2*
Y67025D1*
D2*
X63058Y66903D1*
D2*
X63118Y66843D1*
D2*
X63239Y66782D1*
D2*
X63604Y66660D1*
D2*
X63726Y66600D1*
D2*
X63787Y66538D1*
D2*
X63847Y66417D1*
D2*
Y66235D1*
D2*
X63726Y66114D1*
D2*
X63544Y66052D1*
D2*
X63301D1*
D2*
X63118Y66114D1*
D2*
X62996Y66235D1*
X64239Y67328D2*
X64544Y66052D1*
D2*
X64847Y67328D1*
D2*
X65150Y66052D1*
D2*
X65455Y67328D1*
X65909Y67024D2*
Y67084D1*
D2*
X65969Y67206D1*
D2*
X66030Y67267D1*
D2*
X66152Y67327D1*
D2*
X66395D1*
D2*
X66515Y67267D1*
D2*
X66576Y67206D1*
D2*
X66637Y67084D1*
D2*
Y66963D1*
D2*
X66576Y66841D1*
D2*
X66455Y66660D1*
D2*
X65847Y66052D1*
D2*
X66698D1*
X67455Y67327D2*
X67272Y67267D1*
D2*
X67150Y67084D1*
D2*
X67090Y66781D1*
D2*
Y66598D1*
D2*
X67150Y66295D1*
D2*
X67272Y66113D1*
D2*
X67455Y66052D1*
D2*
X67576D1*
D2*
X67758Y66113D1*
D2*
X67879Y66295D1*
D2*
X67941Y66598D1*
D2*
Y66781D1*
D2*
X67879Y67084D1*
D2*
X67758Y67267D1*
D2*
X67576Y67327D1*
D2*
X67455D1*
X67879Y67084D2*
X67150Y66295D1*
X14520Y57152D2*
X15796D1*
D2*
Y57578D1*
D2*
X15734Y57760D1*
D2*
X15614Y57882D1*
D2*
X15492Y57943D1*
D2*
X15311Y58003D1*
D2*
X15006D1*
D2*
X14823Y57943D1*
D2*
X14703Y57882D1*
D2*
X14581Y57760D1*
D2*
X14520Y57578D1*
D2*
Y57152D1*
X14764Y58395D2*
X14703Y58517D1*
D2*
X14522Y58700D1*
D2*
X15796D1*
Y59335D2*
X14522Y59943D1*
D2*
Y59092D1*
X33697Y57153D2*
X34973D1*
D2*
Y57578D1*
D2*
X34911Y57761D1*
D2*
X34791Y57883D1*
D2*
X34669Y57943D1*
D2*
X34488Y58004D1*
D2*
X34183D1*
D2*
X34000Y57943D1*
D2*
X33880Y57883D1*
D2*
X33758Y57761D1*
D2*
X33697Y57578D1*
D2*
Y57153D1*
X33941Y58396D2*
X33880Y58518D1*
D2*
X33699Y58701D1*
D2*
X34973D1*
X33699Y59396D2*
X33759Y59215D1*
D2*
X33880Y59153D1*
D2*
X34002D1*
D2*
X34123Y59215D1*
D2*
X34184Y59336D1*
D2*
X34245Y59578D1*
D2*
X34305Y59761D1*
D2*
X34427Y59882D1*
D2*
X34548Y59942D1*
D2*
X34730D1*
D2*
X34851Y59882D1*
D2*
X34913Y59821D1*
D2*
X34973Y59639D1*
D2*
Y59396D1*
D2*
X34913Y59215D1*
D2*
X34851Y59153D1*
D2*
X34730Y59093D1*
D2*
X34548D1*
D2*
X34427Y59153D1*
D2*
X34305Y59275D1*
D2*
X34245Y59456D1*
D2*
X34184Y59699D1*
D2*
X34123Y59821D1*
D2*
X34002Y59882D1*
D2*
X33880D1*
D2*
X33759Y59821D1*
D2*
X33699Y59639D1*
D2*
Y59396D1*
X52747Y57246D2*
X54023D1*
D2*
Y57671D1*
D2*
X53961Y57854D1*
D2*
X53841Y57976D1*
D2*
X53719Y58036D1*
D2*
X53538Y58097D1*
D2*
X53233D1*
D2*
X53050Y58036D1*
D2*
X52930Y57976D1*
D2*
X52808Y57854D1*
D2*
X52747Y57671D1*
D2*
Y57246D1*
X52991Y58489D2*
X52930Y58611D1*
D2*
X52749Y58794D1*
D2*
X54023D1*
X53173Y59976D2*
X53355Y59914D1*
D2*
X53477Y59794D1*
D2*
X53538Y59611D1*
D2*
Y59551D1*
D2*
X53477Y59368D1*
D2*
X53355Y59247D1*
D2*
X53173Y59186D1*
D2*
X53112D1*
D2*
X52930Y59247D1*
D2*
X52809Y59368D1*
D2*
X52749Y59551D1*
D2*
Y59611D1*
D2*
X52809Y59794D1*
D2*
X52930Y59914D1*
D2*
X53173Y59976D1*
D2*
X53477D1*
D2*
X53780Y59914D1*
D2*
X53963Y59794D1*
D2*
X54023Y59611D1*
D2*
Y59490D1*
D2*
X53963Y59308D1*
D2*
X53841Y59247D1*
X71734Y56943D2*
X73010D1*
D2*
Y57368D1*
D2*
X72948Y57551D1*
D2*
X72827Y57673D1*
D2*
X72705Y57733D1*
D2*
X72524Y57793D1*
D2*
X72219D1*
D2*
X72037Y57733D1*
D2*
X71916Y57673D1*
D2*
X71794Y57551D1*
D2*
X71734Y57368D1*
D2*
Y56943D1*
X72038Y58247D2*
X71978D1*
D2*
X71856Y58308D1*
D2*
X71795Y58368D1*
D2*
X71735Y58490D1*
D2*
Y58733D1*
D2*
X71795Y58854D1*
D2*
X71856Y58914D1*
D2*
X71978Y58976D1*
D2*
X72099D1*
D2*
X72221Y58914D1*
D2*
X72402Y58794D1*
D2*
X73010Y58186D1*
D2*
Y59036D1*
X71735Y59794D2*
X71795Y59611D1*
D2*
X71978Y59489D1*
D2*
X72281Y59429D1*
D2*
X72464D1*
D2*
X72767Y59489D1*
D2*
X72949Y59611D1*
D2*
X73010Y59794D1*
D2*
Y59914D1*
D2*
X72949Y60097D1*
D2*
X72767Y60217D1*
D2*
X72464Y60279D1*
D2*
X72281D1*
D2*
X71978Y60217D1*
D2*
X71795Y60097D1*
D2*
X71735Y59914D1*
D2*
Y59794D1*
X71978Y60217D2*
X72767Y59489D1*
X16159Y50572D2*
X16038Y50695D1*
D2*
X15855Y50755D1*
D2*
X15612D1*
D2*
X15430Y50695D1*
D2*
X15308Y50572D1*
D2*
Y50452D1*
D2*
X15370Y50330D1*
D2*
X15430Y50269D1*
D2*
X15551Y50209D1*
D2*
X15916Y50087D1*
D2*
X16038Y50026D1*
D2*
X16098Y49965D1*
D2*
X16159Y49844D1*
D2*
Y49661D1*
D2*
X16038Y49541D1*
D2*
X15855Y49479D1*
D2*
X15612D1*
D2*
X15430Y49541D1*
D2*
X15308Y49661D1*
X16551Y50755D2*
X16855Y49479D1*
D2*
X17159Y50755D1*
D2*
X17462Y49479D1*
D2*
X17766Y50755D1*
X18220Y50450D2*
Y50511D1*
D2*
X18281Y50633D1*
D2*
X18341Y50693D1*
D2*
X18463Y50753D1*
D2*
X18706D1*
D2*
X18827Y50693D1*
D2*
X18887Y50633D1*
D2*
X18949Y50511D1*
D2*
Y50390D1*
D2*
X18887Y50268D1*
D2*
X18766Y50087D1*
D2*
X18159Y49479D1*
D2*
X19009D1*
X20130Y50753D2*
X19524D1*
D2*
X19463Y50207D1*
D2*
X19524Y50268D1*
D2*
X19706Y50330D1*
D2*
X19887D1*
D2*
X20070Y50268D1*
D2*
X20192Y50147D1*
D2*
X20252Y49965D1*
D2*
Y49844D1*
D2*
X20192Y49661D1*
D2*
X20070Y49539D1*
D2*
X19887Y49479D1*
D2*
X19706D1*
D2*
X19524Y49539D1*
D2*
X19463Y49601D1*
D2*
X19401Y49722D1*
X35303Y50572D2*
X35182Y50695D1*
D2*
X35000Y50755D1*
D2*
X34757D1*
D2*
X34574Y50695D1*
D2*
X34452Y50572D1*
D2*
Y50452D1*
D2*
X34514Y50330D1*
D2*
X34574Y50269D1*
D2*
X34695Y50209D1*
D2*
X35060Y50087D1*
D2*
X35182Y50026D1*
D2*
X35243Y49965D1*
D2*
X35303Y49844D1*
D2*
Y49661D1*
D2*
X35182Y49541D1*
D2*
X35000Y49479D1*
D2*
X34757D1*
D2*
X34574Y49541D1*
D2*
X34452Y49661D1*
X35695Y50755D2*
X36000Y49479D1*
D2*
X36303Y50755D1*
D2*
X36606Y49479D1*
D2*
X36911Y50755D1*
X37365Y50450D2*
Y50511D1*
D2*
X37425Y50633D1*
D2*
X37485Y50693D1*
D2*
X37608Y50753D1*
D2*
X37850D1*
D2*
X37971Y50693D1*
D2*
X38032Y50633D1*
D2*
X38093Y50511D1*
D2*
Y50390D1*
D2*
X38032Y50268D1*
D2*
X37911Y50087D1*
D2*
X37303Y49479D1*
D2*
X38154D1*
X39274Y50572D2*
X39214Y50693D1*
D2*
X39032Y50753D1*
D2*
X38911D1*
D2*
X38728Y50693D1*
D2*
X38606Y50511D1*
D2*
X38546Y50207D1*
D2*
Y49904D1*
D2*
X38606Y49661D1*
D2*
X38728Y49539D1*
D2*
X38911Y49479D1*
D2*
X38971D1*
D2*
X39152Y49539D1*
D2*
X39274Y49661D1*
D2*
X39335Y49844D1*
D2*
Y49904D1*
D2*
X39274Y50087D1*
D2*
X39152Y50207D1*
D2*
X38971Y50268D1*
D2*
X38911D1*
D2*
X38728Y50207D1*
D2*
X38606Y50087D1*
D2*
X38546Y49904D1*
X54322Y50572D2*
X54201Y50695D1*
D2*
X54019Y50755D1*
D2*
X53776D1*
D2*
X53593Y50695D1*
D2*
X53471Y50572D1*
D2*
Y50452D1*
D2*
X53533Y50330D1*
D2*
X53593Y50269D1*
D2*
X53714Y50209D1*
D2*
X54079Y50087D1*
D2*
X54201Y50026D1*
D2*
X54262Y49965D1*
D2*
X54322Y49844D1*
D2*
Y49661D1*
D2*
X54201Y49541D1*
D2*
X54019Y49479D1*
D2*
X53776D1*
D2*
X53593Y49541D1*
D2*
X53471Y49661D1*
X54714Y50755D2*
X55019Y49479D1*
D2*
X55322Y50755D1*
D2*
X55625Y49479D1*
D2*
X55930Y50755D1*
X56384Y50450D2*
Y50511D1*
D2*
X56444Y50633D1*
D2*
X56505Y50693D1*
D2*
X56627Y50753D1*
D2*
X56870D1*
D2*
X56990Y50693D1*
D2*
X57051Y50633D1*
D2*
X57112Y50511D1*
D2*
Y50390D1*
D2*
X57051Y50268D1*
D2*
X56930Y50087D1*
D2*
X56322Y49479D1*
D2*
X57173D1*
X57808D2*
X58416Y50753D1*
D2*
X57565D1*
X73373Y50509D2*
X73252Y50631D1*
D2*
X73070Y50691D1*
D2*
X72827D1*
D2*
X72644Y50631D1*
D2*
X72522Y50509D1*
D2*
Y50388D1*
D2*
X72584Y50266D1*
D2*
X72644Y50206D1*
D2*
X72765Y50145D1*
D2*
X73130Y50023D1*
D2*
X73252Y49963D1*
D2*
X73312Y49901D1*
D2*
X73373Y49780D1*
D2*
Y49598D1*
D2*
X73252Y49477D1*
D2*
X73070Y49415D1*
D2*
X72827D1*
D2*
X72644Y49477D1*
D2*
X72522Y49598D1*
X73765Y50691D2*
X74070Y49415D1*
D2*
X74373Y50691D1*
D2*
X74676Y49415D1*
D2*
X74981Y50691D1*
X75435Y50387D2*
Y50447D1*
D2*
X75495Y50569D1*
D2*
X75555Y50630D1*
D2*
X75677Y50690D1*
D2*
X75920D1*
D2*
X76041Y50630D1*
D2*
X76101Y50569D1*
D2*
X76163Y50447D1*
D2*
Y50326D1*
D2*
X76101Y50204D1*
D2*
X75981Y50023D1*
D2*
X75373Y49415D1*
D2*
X76224D1*
X76919Y50690D2*
X76738Y50630D1*
D2*
X76676Y50509D1*
D2*
Y50387D1*
D2*
X76738Y50266D1*
D2*
X76859Y50204D1*
D2*
X77101Y50144D1*
D2*
X77284Y50084D1*
D2*
X77405Y49961D1*
D2*
X77465Y49841D1*
D2*
Y49658D1*
D2*
X77405Y49537D1*
D2*
X77344Y49476D1*
D2*
X77162Y49415D1*
D2*
X76919D1*
D2*
X76738Y49476D1*
D2*
X76676Y49537D1*
D2*
X76616Y49658D1*
D2*
Y49841D1*
D2*
X76676Y49961D1*
D2*
X76798Y50084D1*
D2*
X76979Y50144D1*
D2*
X77222Y50204D1*
D2*
X77344Y50266D1*
D2*
X77405Y50387D1*
D2*
Y50509D1*
D2*
X77344Y50630D1*
D2*
X77162Y50690D1*
D2*
X76919D1*
X24045Y40306D2*
X25321D1*
D2*
Y40731D1*
D2*
X25259Y40914D1*
D2*
X25139Y41036D1*
D2*
X25017Y41096D1*
D2*
X24836Y41156D1*
D2*
X24531D1*
D2*
X24348Y41096D1*
D2*
X24228Y41036D1*
D2*
X24106Y40914D1*
D2*
X24045Y40731D1*
D2*
Y40306D1*
X24350Y41610D2*
X24289D1*
D2*
X24167Y41671D1*
D2*
X24107Y41731D1*
D2*
X24047Y41853D1*
D2*
Y42096D1*
D2*
X24107Y42217D1*
D2*
X24167Y42277D1*
D2*
X24289Y42339D1*
D2*
X24410D1*
D2*
X24532Y42277D1*
D2*
X24713Y42157D1*
D2*
X25321Y41549D1*
D2*
Y42399D1*
X24047Y43520D2*
Y42914D1*
D2*
X24593Y42853D1*
D2*
X24532Y42914D1*
D2*
X24471Y43096D1*
D2*
Y43277D1*
D2*
X24532Y43460D1*
D2*
X24653Y43582D1*
D2*
X24836Y43642D1*
D2*
X24956D1*
D2*
X25139Y43582D1*
D2*
X25261Y43460D1*
D2*
X25321Y43277D1*
D2*
Y43096D1*
D2*
X25261Y42914D1*
D2*
X25199Y42853D1*
D2*
X25078Y42792D1*
X43032Y40337D2*
X44308D1*
D2*
Y40762D1*
D2*
X44246Y40944D1*
D2*
X44125Y41067D1*
D2*
X44003Y41127D1*
D2*
X43822Y41187D1*
D2*
X43517D1*
D2*
X43335Y41127D1*
D2*
X43214Y41067D1*
D2*
X43092Y40944D1*
D2*
X43032Y40762D1*
D2*
Y40337D1*
X43336Y41641D2*
X43276D1*
D2*
X43154Y41702D1*
D2*
X43093Y41762D1*
D2*
X43033Y41884D1*
D2*
Y42127D1*
D2*
X43093Y42248D1*
D2*
X43154Y42308D1*
D2*
X43276Y42370D1*
D2*
X43397D1*
D2*
X43519Y42308D1*
D2*
X43700Y42187D1*
D2*
X44308Y41580D1*
D2*
Y42430D1*
X43214Y43551D2*
X43093Y43491D1*
D2*
X43033Y43308D1*
D2*
Y43187D1*
D2*
X43093Y43005D1*
D2*
X43276Y42883D1*
D2*
X43579Y42822D1*
D2*
X43882D1*
D2*
X44125Y42883D1*
D2*
X44247Y43005D1*
D2*
X44308Y43187D1*
D2*
Y43248D1*
D2*
X44247Y43429D1*
D2*
X44125Y43551D1*
D2*
X43943Y43611D1*
D2*
X43882D1*
D2*
X43700Y43551D1*
D2*
X43579Y43429D1*
D2*
X43519Y43248D1*
D2*
Y43187D1*
D2*
X43579Y43005D1*
D2*
X43700Y42883D1*
D2*
X43882Y42822D1*
X62272Y40306D2*
X63548D1*
D2*
Y40731D1*
D2*
X63486Y40914D1*
D2*
X63366Y41036D1*
D2*
X63244Y41096D1*
D2*
X63063Y41156D1*
D2*
X62758D1*
D2*
X62575Y41096D1*
D2*
X62455Y41036D1*
D2*
X62333Y40914D1*
D2*
X62272Y40731D1*
D2*
Y40306D1*
X62577Y41610D2*
X62516D1*
D2*
X62394Y41671D1*
D2*
X62334Y41731D1*
D2*
X62274Y41853D1*
D2*
Y42096D1*
D2*
X62334Y42217D1*
D2*
X62394Y42277D1*
D2*
X62516Y42339D1*
D2*
X62637D1*
D2*
X62759Y42277D1*
D2*
X62940Y42157D1*
D2*
X63548Y41549D1*
D2*
Y42399D1*
Y43034D2*
X62274Y43642D1*
D2*
Y42792D1*
X81322Y40179D2*
X82598D1*
D2*
Y40605D1*
D2*
X82536Y40787D1*
D2*
X82416Y40909D1*
D2*
X82294Y40970D1*
D2*
X82113Y41030D1*
D2*
X81808D1*
D2*
X81625Y40970D1*
D2*
X81505Y40909D1*
D2*
X81383Y40787D1*
D2*
X81322Y40605D1*
D2*
Y40179D1*
X81627Y41484D2*
X81566D1*
D2*
X81444Y41544D1*
D2*
X81384Y41605D1*
D2*
X81324Y41727D1*
D2*
Y41970D1*
D2*
X81384Y42091D1*
D2*
X81444Y42151D1*
D2*
X81566Y42213D1*
D2*
X81687D1*
D2*
X81809Y42151D1*
D2*
X81990Y42030D1*
D2*
X82598Y41422D1*
D2*
Y42273D1*
X81324Y42968D2*
X81384Y42787D1*
D2*
X81505Y42726D1*
D2*
X81627D1*
D2*
X81748Y42787D1*
D2*
X81809Y42908D1*
D2*
X81870Y43151D1*
D2*
X81930Y43333D1*
D2*
X82052Y43454D1*
D2*
X82173Y43515D1*
D2*
X82355D1*
D2*
X82476Y43454D1*
D2*
X82538Y43394D1*
D2*
X82598Y43211D1*
D2*
Y42968D1*
D2*
X82538Y42787D1*
D2*
X82476Y42726D1*
D2*
X82355Y42665D1*
D2*
X82173D1*
D2*
X82052Y42726D1*
D2*
X81930Y42848D1*
D2*
X81870Y43029D1*
D2*
X81809Y43272D1*
D2*
X81748Y43394D1*
D2*
X81627Y43454D1*
D2*
X81505D1*
D2*
X81384Y43394D1*
D2*
X81324Y43211D1*
D2*
Y42968D1*
X6667Y34126D2*
X6546Y34248D1*
D2*
X6364Y34308D1*
D2*
X6121D1*
D2*
X5938Y34248D1*
D2*
X5816Y34126D1*
D2*
Y34005D1*
D2*
X5878Y33883D1*
D2*
X5938Y33823D1*
D2*
X6059Y33762D1*
D2*
X6424Y33640D1*
D2*
X6546Y33580D1*
D2*
X6606Y33518D1*
D2*
X6667Y33397D1*
D2*
Y33215D1*
D2*
X6546Y33094D1*
D2*
X6364Y33032D1*
D2*
X6121D1*
D2*
X5938Y33094D1*
D2*
X5816Y33215D1*
X7059Y34308D2*
X7364Y33032D1*
D2*
X7667Y34308D1*
D2*
X7970Y33032D1*
D2*
X8275Y34308D1*
X8789Y34307D2*
X9456D1*
D2*
X9092Y33821D1*
D2*
X9275D1*
D2*
X9395Y33761D1*
D2*
X9456Y33701D1*
D2*
X9518Y33518D1*
D2*
Y33397D1*
D2*
X9456Y33215D1*
D2*
X9335Y33093D1*
D2*
X9153Y33032D1*
D2*
X8970D1*
D2*
X8789Y33093D1*
D2*
X8729Y33154D1*
D2*
X8667Y33275D1*
X10518Y33032D2*
Y34307D1*
D2*
X9910Y33458D1*
D2*
X10821D1*
X25747Y34126D2*
X25626Y34248D1*
D2*
X25444Y34308D1*
D2*
X25201D1*
D2*
X25018Y34248D1*
D2*
X24896Y34126D1*
D2*
Y34005D1*
D2*
X24958Y33883D1*
D2*
X25018Y33823D1*
D2*
X25139Y33762D1*
D2*
X25504Y33640D1*
D2*
X25626Y33580D1*
D2*
X25687Y33518D1*
D2*
X25747Y33397D1*
D2*
Y33215D1*
D2*
X25626Y33094D1*
D2*
X25444Y33032D1*
D2*
X25201D1*
D2*
X25018Y33094D1*
D2*
X24896Y33215D1*
X26139Y34308D2*
X26444Y33032D1*
D2*
X26747Y34308D1*
D2*
X27050Y33032D1*
D2*
X27355Y34308D1*
X27869Y34307D2*
X28536D1*
D2*
X28172Y33821D1*
D2*
X28355D1*
D2*
X28476Y33761D1*
D2*
X28536Y33701D1*
D2*
X28598Y33518D1*
D2*
Y33397D1*
D2*
X28536Y33215D1*
D2*
X28415Y33093D1*
D2*
X28233Y33032D1*
D2*
X28050D1*
D2*
X27869Y33093D1*
D2*
X27809Y33154D1*
D2*
X27747Y33275D1*
X29112Y34307D2*
X29779D1*
D2*
X29415Y33821D1*
D2*
X29598D1*
D2*
X29719Y33761D1*
D2*
X29779Y33701D1*
D2*
X29841Y33518D1*
D2*
Y33397D1*
D2*
X29779Y33215D1*
D2*
X29658Y33093D1*
D2*
X29476Y33032D1*
D2*
X29293D1*
D2*
X29112Y33093D1*
D2*
X29052Y33154D1*
D2*
X28990Y33275D1*
X44797Y34126D2*
X44676Y34248D1*
D2*
X44494Y34308D1*
D2*
X44251D1*
D2*
X44068Y34248D1*
D2*
X43946Y34126D1*
D2*
Y34005D1*
D2*
X44008Y33883D1*
D2*
X44068Y33823D1*
D2*
X44189Y33762D1*
D2*
X44554Y33640D1*
D2*
X44676Y33580D1*
D2*
X44737Y33518D1*
D2*
X44797Y33397D1*
D2*
Y33215D1*
D2*
X44676Y33094D1*
D2*
X44494Y33032D1*
D2*
X44251D1*
D2*
X44068Y33094D1*
D2*
X43946Y33215D1*
X45189Y34308D2*
X45494Y33032D1*
D2*
X45797Y34308D1*
D2*
X46100Y33032D1*
D2*
X46405Y34308D1*
X46919Y34307D2*
X47586D1*
D2*
X47222Y33821D1*
D2*
X47405D1*
D2*
X47526Y33761D1*
D2*
X47586Y33701D1*
D2*
X47648Y33518D1*
D2*
Y33397D1*
D2*
X47586Y33215D1*
D2*
X47465Y33093D1*
D2*
X47283Y33032D1*
D2*
X47100D1*
D2*
X46919Y33093D1*
D2*
X46859Y33154D1*
D2*
X46797Y33275D1*
X48769Y34307D2*
X48162D1*
D2*
X48102Y33761D1*
D2*
X48162Y33821D1*
D2*
X48345Y33883D1*
D2*
X48526D1*
D2*
X48708Y33821D1*
D2*
X48830Y33701D1*
D2*
X48891Y33518D1*
D2*
Y33397D1*
D2*
X48830Y33215D1*
D2*
X48708Y33093D1*
D2*
X48526Y33032D1*
D2*
X48345D1*
D2*
X48162Y33093D1*
D2*
X48102Y33154D1*
D2*
X48040Y33275D1*
X63878Y34126D2*
X63757Y34248D1*
D2*
X63575Y34308D1*
D2*
X63332D1*
D2*
X63149Y34248D1*
D2*
X63027Y34126D1*
D2*
Y34005D1*
D2*
X63089Y33883D1*
D2*
X63149Y33823D1*
D2*
X63270Y33762D1*
D2*
X63635Y33640D1*
D2*
X63757Y33580D1*
D2*
X63818Y33518D1*
D2*
X63878Y33397D1*
D2*
Y33215D1*
D2*
X63757Y33094D1*
D2*
X63575Y33032D1*
D2*
X63332D1*
D2*
X63149Y33094D1*
D2*
X63027Y33215D1*
X64270Y34308D2*
X64575Y33032D1*
D2*
X64878Y34308D1*
D2*
X65181Y33032D1*
D2*
X65486Y34308D1*
X66000Y34307D2*
X66667D1*
D2*
X66303Y33821D1*
D2*
X66486D1*
D2*
X66607Y33761D1*
D2*
X66667Y33701D1*
D2*
X66729Y33518D1*
D2*
Y33397D1*
D2*
X66667Y33215D1*
D2*
X66546Y33093D1*
D2*
X66364Y33032D1*
D2*
X66181D1*
D2*
X66000Y33093D1*
D2*
X65940Y33154D1*
D2*
X65878Y33275D1*
X67849Y34126D2*
X67789Y34247D1*
D2*
X67607Y34307D1*
D2*
X67486D1*
D2*
X67303Y34247D1*
D2*
X67181Y34064D1*
D2*
X67121Y33761D1*
D2*
Y33458D1*
D2*
X67181Y33215D1*
D2*
X67303Y33093D1*
D2*
X67486Y33032D1*
D2*
X67546D1*
D2*
X67727Y33093D1*
D2*
X67849Y33215D1*
D2*
X67910Y33397D1*
D2*
Y33458D1*
D2*
X67849Y33640D1*
D2*
X67727Y33761D1*
D2*
X67546Y33821D1*
D2*
X67486D1*
D2*
X67303Y33761D1*
D2*
X67181Y33640D1*
D2*
X67121Y33458D1*
X14584Y23859D2*
X15860D1*
D2*
Y24285D1*
D2*
X15798Y24467D1*
D2*
X15677Y24589D1*
D2*
X15555Y24650D1*
D2*
X15374Y24710D1*
D2*
X15069D1*
D2*
X14887Y24650D1*
D2*
X14766Y24589D1*
D2*
X14644Y24467D1*
D2*
X14584Y24285D1*
D2*
Y23859D1*
X14585Y25224D2*
Y25891D1*
D2*
X15071Y25528D1*
D2*
Y25710D1*
D2*
X15131Y25831D1*
D2*
X15192Y25891D1*
D2*
X15374Y25953D1*
D2*
X15495D1*
D2*
X15677Y25891D1*
D2*
X15799Y25770D1*
D2*
X15860Y25588D1*
D2*
Y25405D1*
D2*
X15799Y25224D1*
D2*
X15738Y25164D1*
D2*
X15617Y25102D1*
X14585Y26467D2*
Y27134D1*
D2*
X15071Y26770D1*
D2*
Y26953D1*
D2*
X15131Y27074D1*
D2*
X15192Y27134D1*
D2*
X15374Y27196D1*
D2*
X15495D1*
D2*
X15677Y27134D1*
D2*
X15799Y27013D1*
D2*
X15860Y26831D1*
D2*
Y26648D1*
D2*
X15799Y26467D1*
D2*
X15738Y26407D1*
D2*
X15617Y26345D1*
X33697Y23893D2*
X34973D1*
D2*
Y24318D1*
D2*
X34911Y24500D1*
D2*
X34791Y24623D1*
D2*
X34669Y24683D1*
D2*
X34488Y24743D1*
D2*
X34183D1*
D2*
X34000Y24683D1*
D2*
X33880Y24623D1*
D2*
X33758Y24500D1*
D2*
X33697Y24318D1*
D2*
Y23893D1*
X33699Y25258D2*
Y25924D1*
D2*
X34184Y25561D1*
D2*
Y25743D1*
D2*
X34245Y25864D1*
D2*
X34305Y25924D1*
D2*
X34488Y25986D1*
D2*
X34608D1*
D2*
X34791Y25924D1*
D2*
X34913Y25804D1*
D2*
X34973Y25621D1*
D2*
Y25439D1*
D2*
X34913Y25258D1*
D2*
X34851Y25197D1*
D2*
X34730Y25135D1*
X34973Y26986D2*
X33699D1*
D2*
X34548Y26378D1*
D2*
Y27289D1*
X52684Y23859D2*
X53960D1*
D2*
Y24285D1*
D2*
X53898Y24467D1*
D2*
X53777Y24589D1*
D2*
X53655Y24650D1*
D2*
X53474Y24710D1*
D2*
X53169D1*
D2*
X52987Y24650D1*
D2*
X52866Y24589D1*
D2*
X52744Y24467D1*
D2*
X52684Y24285D1*
D2*
Y23859D1*
X52685Y25224D2*
Y25891D1*
D2*
X53171Y25528D1*
D2*
Y25710D1*
D2*
X53231Y25831D1*
D2*
X53292Y25891D1*
D2*
X53474Y25953D1*
D2*
X53595D1*
D2*
X53777Y25891D1*
D2*
X53899Y25770D1*
D2*
X53960Y25588D1*
D2*
Y25405D1*
D2*
X53899Y25224D1*
D2*
X53838Y25164D1*
D2*
X53717Y25102D1*
X52685Y27074D2*
Y26467D1*
D2*
X53231Y26407D1*
D2*
X53171Y26467D1*
D2*
X53109Y26650D1*
D2*
Y26831D1*
D2*
X53171Y27013D1*
D2*
X53292Y27135D1*
D2*
X53474Y27196D1*
D2*
X53595D1*
D2*
X53777Y27135D1*
D2*
X53899Y27013D1*
D2*
X53960Y26831D1*
D2*
Y26650D1*
D2*
X53899Y26467D1*
D2*
X53838Y26407D1*
D2*
X53717Y26345D1*
X71734Y23954D2*
X73010D1*
D2*
Y24379D1*
D2*
X72948Y24561D1*
D2*
X72827Y24684D1*
D2*
X72705Y24744D1*
D2*
X72524Y24804D1*
D2*
X72219D1*
D2*
X72037Y24744D1*
D2*
X71916Y24684D1*
D2*
X71794Y24561D1*
D2*
X71734Y24379D1*
D2*
Y23954D1*
X71735Y25319D2*
Y25985D1*
D2*
X72221Y25622D1*
D2*
Y25804D1*
D2*
X72281Y25925D1*
D2*
X72342Y25985D1*
D2*
X72524Y26047D1*
D2*
X72645D1*
D2*
X72827Y25985D1*
D2*
X72949Y25865D1*
D2*
X73010Y25682D1*
D2*
Y25500D1*
D2*
X72949Y25319D1*
D2*
X72888Y25258D1*
D2*
X72767Y25197D1*
X71916Y27168D2*
X71795Y27108D1*
D2*
X71735Y26925D1*
D2*
Y26804D1*
D2*
X71795Y26622D1*
D2*
X71978Y26500D1*
D2*
X72281Y26439D1*
D2*
X72584D1*
D2*
X72827Y26500D1*
D2*
X72949Y26622D1*
D2*
X73010Y26804D1*
D2*
Y26865D1*
D2*
X72949Y27046D1*
D2*
X72827Y27168D1*
D2*
X72645Y27228D1*
D2*
X72584D1*
D2*
X72402Y27168D1*
D2*
X72281Y27046D1*
D2*
X72221Y26865D1*
D2*
Y26804D1*
D2*
X72281Y26622D1*
D2*
X72402Y26500D1*
D2*
X72584Y26439D1*
X16401Y17616D2*
X16281Y17738D1*
D2*
X16098Y17798D1*
D2*
X15855D1*
D2*
X15673Y17738D1*
D2*
X15551Y17616D1*
D2*
Y17495D1*
D2*
X15612Y17373D1*
D2*
X15673Y17313D1*
D2*
X15794Y17252D1*
D2*
X16159Y17130D1*
D2*
X16281Y17070D1*
D2*
X16341Y17008D1*
D2*
X16401Y16887D1*
D2*
Y16705D1*
D2*
X16281Y16584D1*
D2*
X16098Y16522D1*
D2*
X15855D1*
D2*
X15673Y16584D1*
D2*
X15551Y16705D1*
X16794Y17798D2*
X17098Y16522D1*
D2*
X17401Y17798D1*
D2*
X17705Y16522D1*
D2*
X18009Y17798D1*
X19009Y16522D2*
Y17797D1*
D2*
X18401Y16948D1*
D2*
X19313D1*
X19705Y17554D2*
X19827Y17616D1*
D2*
X20009Y17797D1*
D2*
Y16522D1*
X35242Y17616D2*
X35121Y17738D1*
D2*
X34939Y17798D1*
D2*
X34696D1*
D2*
X34513Y17738D1*
D2*
X34391Y17616D1*
D2*
Y17495D1*
D2*
X34453Y17373D1*
D2*
X34513Y17313D1*
D2*
X34634Y17252D1*
D2*
X34999Y17130D1*
D2*
X35121Y17070D1*
D2*
X35181Y17008D1*
D2*
X35242Y16887D1*
D2*
Y16705D1*
D2*
X35121Y16584D1*
D2*
X34939Y16522D1*
D2*
X34696D1*
D2*
X34513Y16584D1*
D2*
X34391Y16705D1*
X35634Y17798D2*
X35939Y16522D1*
D2*
X36242Y17798D1*
D2*
X36545Y16522D1*
D2*
X36850Y17798D1*
X37850Y16522D2*
Y17797D1*
D2*
X37242Y16948D1*
D2*
X38153D1*
X38607Y17494D2*
Y17554D1*
D2*
X38667Y17676D1*
D2*
X38728Y17737D1*
D2*
X38850Y17797D1*
D2*
X39093D1*
D2*
X39213Y17737D1*
D2*
X39274Y17676D1*
D2*
X39336Y17554D1*
D2*
Y17433D1*
D2*
X39274Y17311D1*
D2*
X39153Y17130D1*
D2*
X38545Y16522D1*
D2*
X39396D1*
X54228Y17489D2*
X54108Y17611D1*
D2*
X53925Y17671D1*
D2*
X53682D1*
D2*
X53500Y17611D1*
D2*
X53378Y17489D1*
D2*
Y17368D1*
D2*
X53439Y17246D1*
D2*
X53500Y17186D1*
D2*
X53620Y17125D1*
D2*
X53985Y17003D1*
D2*
X54108Y16943D1*
D2*
X54168Y16881D1*
D2*
X54228Y16760D1*
D2*
Y16578D1*
D2*
X54108Y16457D1*
D2*
X53925Y16395D1*
D2*
X53682D1*
D2*
X53500Y16457D1*
D2*
X53378Y16578D1*
X54621Y17671D2*
X54925Y16395D1*
D2*
X55228Y17671D1*
D2*
X55532Y16395D1*
D2*
X55836Y17671D1*
X56836Y16395D2*
Y17670D1*
D2*
X56228Y16821D1*
D2*
X57139D1*
X57654Y17670D2*
X58321D1*
D2*
X57957Y17184D1*
D2*
X58140D1*
D2*
X58260Y17124D1*
D2*
X58321Y17064D1*
D2*
X58382Y16881D1*
D2*
Y16760D1*
D2*
X58321Y16578D1*
D2*
X58200Y16456D1*
D2*
X58017Y16395D1*
D2*
X57835D1*
D2*
X57654Y16456D1*
D2*
X57593Y16517D1*
D2*
X57532Y16638D1*
X73248Y17552D2*
X73127Y17675D1*
D2*
X72945Y17735D1*
D2*
X72702D1*
D2*
X72520Y17675D1*
D2*
X72397Y17552D1*
D2*
Y17432D1*
D2*
X72459Y17310D1*
D2*
X72520Y17249D1*
D2*
X72640Y17189D1*
D2*
X73005Y17067D1*
D2*
X73127Y17006D1*
D2*
X73188Y16945D1*
D2*
X73248Y16824D1*
D2*
Y16641D1*
D2*
X73127Y16521D1*
D2*
X72945Y16459D1*
D2*
X72702D1*
D2*
X72520Y16521D1*
D2*
X72397Y16641D1*
X73640Y17735D2*
X73945Y16459D1*
D2*
X74248Y17735D1*
D2*
X74551Y16459D1*
D2*
X74856Y17735D1*
X75856Y16459D2*
Y17733D1*
D2*
X75248Y16884D1*
D2*
X76159D1*
X77159Y16459D2*
Y17733D1*
D2*
X76551Y16884D1*
D2*
X77463D1*
X24045Y7656D2*
X25321D1*
D2*
Y8081D1*
D2*
X25259Y8263D1*
D2*
X25139Y8386D1*
D2*
X25017Y8446D1*
D2*
X24836Y8506D1*
D2*
X24531D1*
D2*
X24348Y8446D1*
D2*
X24228Y8386D1*
D2*
X24106Y8263D1*
D2*
X24045Y8081D1*
D2*
Y7656D1*
X25321Y9506D2*
X24047D1*
D2*
X24896Y8899D1*
D2*
Y9810D1*
X24289Y10202D2*
X24228Y10324D1*
D2*
X24047Y10506D1*
D2*
X25321D1*
X43032Y7383D2*
X44308D1*
D2*
Y7808D1*
D2*
X44246Y7990D1*
D2*
X44125Y8113D1*
D2*
X44003Y8173D1*
D2*
X43822Y8233D1*
D2*
X43517D1*
D2*
X43335Y8173D1*
D2*
X43214Y8113D1*
D2*
X43092Y7990D1*
D2*
X43032Y7808D1*
D2*
Y7383D1*
X44308Y9233D2*
X43033D1*
D2*
X43882Y8625D1*
D2*
Y9537D1*
X43336Y9990D2*
X43276D1*
D2*
X43154Y10051D1*
D2*
X43093Y10111D1*
D2*
X43033Y10233D1*
D2*
Y10476D1*
D2*
X43093Y10597D1*
D2*
X43154Y10657D1*
D2*
X43276Y10719D1*
D2*
X43397D1*
D2*
X43519Y10657D1*
D2*
X43700Y10537D1*
D2*
X44308Y9929D1*
D2*
Y10779D1*
X62082Y7256D2*
X63358D1*
D2*
Y7681D1*
D2*
X63296Y7863D1*
D2*
X63175Y7986D1*
D2*
X63053Y8046D1*
D2*
X62872Y8106D1*
D2*
X62567D1*
D2*
X62385Y8046D1*
D2*
X62264Y7986D1*
D2*
X62142Y7863D1*
D2*
X62082Y7681D1*
D2*
Y7256D1*
X63358Y9106D2*
X62083D1*
D2*
X62932Y8498D1*
D2*
Y9410D1*
X62083Y9924D2*
Y10591D1*
D2*
X62569Y10227D1*
D2*
Y10410D1*
D2*
X62629Y10530D1*
D2*
X62690Y10591D1*
D2*
X62872Y10652D1*
D2*
X62993D1*
D2*
X63175Y10591D1*
D2*
X63297Y10470D1*
D2*
X63358Y10287D1*
D2*
Y10105D1*
D2*
X63297Y9924D1*
D2*
X63236Y9863D1*
D2*
X63115Y9802D1*
X81259Y7289D2*
X82535D1*
D2*
Y7714D1*
D2*
X82473Y7897D1*
D2*
X82352Y8019D1*
D2*
X82230Y8079D1*
D2*
X82049Y8140D1*
D2*
X81744D1*
D2*
X81562Y8079D1*
D2*
X81441Y8019D1*
D2*
X81319Y7897D1*
D2*
X81259Y7714D1*
D2*
Y7289D1*
X82535Y9140D2*
X81260D1*
D2*
X82109Y8532D1*
D2*
Y9443D1*
X82535Y10443D2*
X81260D1*
D2*
X82109Y9835D1*
D2*
Y10746D1*
X11226Y84057D2*
X12502D1*
D2*
Y84482D1*
D2*
X12440Y84665D1*
D2*
X12319Y84787D1*
D2*
X12197Y84847D1*
D2*
X12016Y84907D1*
D2*
X11711D1*
D2*
X11529Y84847D1*
D2*
X11408Y84787D1*
D2*
X11286Y84665D1*
D2*
X11226Y84482D1*
D2*
Y84057D1*
X11227Y86028D2*
Y85422D1*
D2*
X11773Y85361D1*
D2*
X11713Y85422D1*
D2*
X11651Y85604D1*
D2*
Y85785D1*
D2*
X11713Y85968D1*
D2*
X11833Y86090D1*
D2*
X12016Y86150D1*
D2*
X12137D1*
D2*
X12319Y86090D1*
D2*
X12441Y85968D1*
D2*
X12502Y85785D1*
D2*
Y85604D1*
D2*
X12441Y85422D1*
D2*
X12380Y85361D1*
D2*
X12259Y85300D1*
X11227Y86665D2*
Y87331D1*
D2*
X11713Y86968D1*
D2*
Y87150D1*
D2*
X11773Y87271D1*
D2*
X11833Y87331D1*
D2*
X12016Y87393D1*
D2*
X12137D1*
D2*
X12319Y87331D1*
D2*
X12441Y87211D1*
D2*
X12502Y87028D1*
D2*
Y86846D1*
D2*
X12441Y86665D1*
D2*
X12380Y86604D1*
D2*
X12259Y86543D1*
X30276Y84027D2*
X31552D1*
D2*
Y84452D1*
D2*
X31490Y84634D1*
D2*
X31369Y84757D1*
D2*
X31247Y84817D1*
D2*
X31066Y84877D1*
D2*
X30761D1*
D2*
X30579Y84817D1*
D2*
X30458Y84757D1*
D2*
X30336Y84634D1*
D2*
X30276Y84452D1*
D2*
Y84027D1*
X30277Y85998D2*
Y85392D1*
D2*
X30823Y85331D1*
D2*
X30763Y85392D1*
D2*
X30701Y85574D1*
D2*
Y85755D1*
D2*
X30763Y85938D1*
D2*
X30883Y86060D1*
D2*
X31066Y86120D1*
D2*
X31187D1*
D2*
X31369Y86060D1*
D2*
X31491Y85938D1*
D2*
X31552Y85755D1*
D2*
Y85574D1*
D2*
X31491Y85392D1*
D2*
X31430Y85331D1*
D2*
X31309Y85269D1*
X31552Y87120D2*
X30277D1*
D2*
X31126Y86512D1*
D2*
Y87423D1*
X49326Y84057D2*
X50602D1*
D2*
Y84482D1*
D2*
X50540Y84665D1*
D2*
X50419Y84787D1*
D2*
X50297Y84847D1*
D2*
X50116Y84907D1*
D2*
X49811D1*
D2*
X49629Y84847D1*
D2*
X49508Y84787D1*
D2*
X49386Y84665D1*
D2*
X49326Y84482D1*
D2*
Y84057D1*
X49327Y86028D2*
Y85422D1*
D2*
X49873Y85361D1*
D2*
X49813Y85422D1*
D2*
X49751Y85604D1*
D2*
Y85785D1*
D2*
X49813Y85968D1*
D2*
X49933Y86090D1*
D2*
X50116Y86150D1*
D2*
X50237D1*
D2*
X50419Y86090D1*
D2*
X50541Y85968D1*
D2*
X50602Y85785D1*
D2*
Y85604D1*
D2*
X50541Y85422D1*
D2*
X50480Y85361D1*
D2*
X50359Y85300D1*
X49327Y87271D2*
Y86665D1*
D2*
X49873Y86604D1*
D2*
X49813Y86665D1*
D2*
X49751Y86847D1*
D2*
Y87028D1*
D2*
X49813Y87211D1*
D2*
X49933Y87333D1*
D2*
X50116Y87393D1*
D2*
X50237D1*
D2*
X50419Y87333D1*
D2*
X50541Y87211D1*
D2*
X50602Y87028D1*
D2*
Y86847D1*
D2*
X50541Y86665D1*
D2*
X50480Y86604D1*
D2*
X50359Y86543D1*
X68376Y84088D2*
X69652D1*
D2*
Y84513D1*
D2*
X69590Y84695D1*
D2*
X69469Y84818D1*
D2*
X69347Y84878D1*
D2*
X69166Y84938D1*
D2*
X68861D1*
D2*
X68679Y84878D1*
D2*
X68558Y84818D1*
D2*
X68436Y84695D1*
D2*
X68376Y84513D1*
D2*
Y84088D1*
X68377Y86059D2*
Y85453D1*
D2*
X68923Y85392D1*
D2*
X68863Y85453D1*
D2*
X68801Y85635D1*
D2*
Y85816D1*
D2*
X68863Y85999D1*
D2*
X68983Y86121D1*
D2*
X69166Y86181D1*
D2*
X69287D1*
D2*
X69469Y86121D1*
D2*
X69591Y85999D1*
D2*
X69652Y85816D1*
D2*
Y85635D1*
D2*
X69591Y85453D1*
D2*
X69530Y85392D1*
D2*
X69409Y85331D1*
X68558Y87302D2*
X68437Y87242D1*
D2*
X68377Y87059D1*
D2*
Y86938D1*
D2*
X68437Y86756D1*
D2*
X68620Y86634D1*
D2*
X68923Y86573D1*
D2*
X69226D1*
D2*
X69469Y86634D1*
D2*
X69591Y86756D1*
D2*
X69652Y86938D1*
D2*
Y86999D1*
D2*
X69591Y87180D1*
D2*
X69469Y87302D1*
D2*
X69287Y87362D1*
D2*
X69226D1*
D2*
X69044Y87302D1*
D2*
X68923Y87180D1*
D2*
X68863Y86999D1*
D2*
Y86938D1*
D2*
X68923Y86756D1*
D2*
X69044Y86634D1*
D2*
X69226Y86573D1*
X20751Y67851D2*
X22027D1*
D2*
Y68276D1*
D2*
X21965Y68459D1*
D2*
X21844Y68581D1*
D2*
X21722Y68641D1*
D2*
X21541Y68701D1*
D2*
X21236D1*
D2*
X21054Y68641D1*
D2*
X20933Y68581D1*
D2*
X20811Y68459D1*
D2*
X20751Y68276D1*
D2*
Y67851D1*
X20933Y69822D2*
X20812Y69762D1*
D2*
X20752Y69579D1*
D2*
Y69459D1*
D2*
X20812Y69276D1*
D2*
X20995Y69154D1*
D2*
X21298Y69094D1*
D2*
X21601D1*
D2*
X21844Y69154D1*
D2*
X21966Y69276D1*
D2*
X22027Y69459D1*
D2*
Y69519D1*
D2*
X21966Y69700D1*
D2*
X21844Y69822D1*
D2*
X21662Y69883D1*
D2*
X21601D1*
D2*
X21419Y69822D1*
D2*
X21298Y69700D1*
D2*
X21238Y69519D1*
D2*
Y69459D1*
D2*
X21298Y69276D1*
D2*
X21419Y69154D1*
D2*
X21601Y69094D1*
X20995Y70275D2*
X20933Y70397D1*
D2*
X20752Y70579D1*
D2*
X22027D1*
X39801Y67578D2*
X41077D1*
D2*
Y68003D1*
D2*
X41015Y68185D1*
D2*
X40894Y68308D1*
D2*
X40772Y68368D1*
D2*
X40591Y68428D1*
D2*
X40286D1*
D2*
X40104Y68368D1*
D2*
X39983Y68308D1*
D2*
X39861Y68185D1*
D2*
X39801Y68003D1*
D2*
Y67578D1*
X39983Y69549D2*
X39862Y69489D1*
D2*
X39802Y69306D1*
D2*
Y69186D1*
D2*
X39862Y69003D1*
D2*
X40045Y68881D1*
D2*
X40348Y68821D1*
D2*
X40651D1*
D2*
X40894Y68881D1*
D2*
X41016Y69003D1*
D2*
X41077Y69186D1*
D2*
Y69246D1*
D2*
X41016Y69427D1*
D2*
X40894Y69549D1*
D2*
X40712Y69609D1*
D2*
X40651D1*
D2*
X40469Y69549D1*
D2*
X40348Y69427D1*
D2*
X40288Y69246D1*
D2*
Y69186D1*
D2*
X40348Y69003D1*
D2*
X40469Y68881D1*
D2*
X40651Y68821D1*
X40105Y70063D2*
X40045D1*
D2*
X39923Y70124D1*
D2*
X39862Y70184D1*
D2*
X39802Y70306D1*
D2*
Y70549D1*
D2*
X39862Y70670D1*
D2*
X39923Y70730D1*
D2*
X40045Y70792D1*
D2*
X40166D1*
D2*
X40288Y70730D1*
D2*
X40469Y70610D1*
D2*
X41077Y70002D1*
D2*
Y70852D1*
X58851Y67578D2*
X60127D1*
D2*
Y68003D1*
D2*
X60065Y68185D1*
D2*
X59944Y68308D1*
D2*
X59822Y68368D1*
D2*
X59641Y68428D1*
D2*
X59336D1*
D2*
X59154Y68368D1*
D2*
X59033Y68308D1*
D2*
X58911Y68185D1*
D2*
X58851Y68003D1*
D2*
Y67578D1*
X59033Y69549D2*
X58912Y69489D1*
D2*
X58852Y69306D1*
D2*
Y69186D1*
D2*
X58912Y69003D1*
D2*
X59095Y68881D1*
D2*
X59398Y68821D1*
D2*
X59701D1*
D2*
X59944Y68881D1*
D2*
X60066Y69003D1*
D2*
X60127Y69186D1*
D2*
Y69246D1*
D2*
X60066Y69427D1*
D2*
X59944Y69549D1*
D2*
X59762Y69609D1*
D2*
X59701D1*
D2*
X59519Y69549D1*
D2*
X59398Y69427D1*
D2*
X59338Y69246D1*
D2*
Y69186D1*
D2*
X59398Y69003D1*
D2*
X59519Y68881D1*
D2*
X59701Y68821D1*
X58852Y70124D2*
Y70791D1*
D2*
X59338Y70427D1*
D2*
Y70610D1*
D2*
X59398Y70730D1*
D2*
X59458Y70791D1*
D2*
X59641Y70852D1*
D2*
X59762D1*
D2*
X59944Y70791D1*
D2*
X60066Y70670D1*
D2*
X60127Y70487D1*
D2*
Y70305D1*
D2*
X60066Y70124D1*
D2*
X60005Y70063D1*
D2*
X59884Y70002D1*
X77901Y67547D2*
X79177D1*
D2*
Y67973D1*
D2*
X79115Y68155D1*
D2*
X78994Y68277D1*
D2*
X78872Y68338D1*
D2*
X78691Y68398D1*
D2*
X78386D1*
D2*
X78204Y68338D1*
D2*
X78083Y68277D1*
D2*
X77961Y68155D1*
D2*
X77901Y67973D1*
D2*
Y67547D1*
X78083Y69519D2*
X77962Y69459D1*
D2*
X77902Y69276D1*
D2*
Y69155D1*
D2*
X77962Y68973D1*
D2*
X78145Y68851D1*
D2*
X78448Y68790D1*
D2*
X78751D1*
D2*
X78994Y68851D1*
D2*
X79116Y68973D1*
D2*
X79177Y69155D1*
D2*
Y69216D1*
D2*
X79116Y69397D1*
D2*
X78994Y69519D1*
D2*
X78812Y69579D1*
D2*
X78751D1*
D2*
X78569Y69519D1*
D2*
X78448Y69397D1*
D2*
X78388Y69216D1*
D2*
Y69155D1*
D2*
X78448Y68973D1*
D2*
X78569Y68851D1*
D2*
X78751Y68790D1*
X79177Y70579D2*
X77902D1*
D2*
X78751Y69971D1*
D2*
Y70883D1*
X11226Y51098D2*
X12502D1*
D2*
Y51523D1*
D2*
X12440Y51706D1*
D2*
X12319Y51828D1*
D2*
X12197Y51888D1*
D2*
X12016Y51949D1*
D2*
X11711D1*
D2*
X11529Y51888D1*
D2*
X11408Y51828D1*
D2*
X11286Y51706D1*
D2*
X11226Y51523D1*
D2*
Y51098D1*
X11408Y53069D2*
X11287Y53009D1*
D2*
X11227Y52826D1*
D2*
Y52706D1*
D2*
X11287Y52523D1*
D2*
X11470Y52401D1*
D2*
X11773Y52341D1*
D2*
X12076D1*
D2*
X12319Y52401D1*
D2*
X12441Y52523D1*
D2*
X12502Y52706D1*
D2*
Y52766D1*
D2*
X12441Y52947D1*
D2*
X12319Y53069D1*
D2*
X12137Y53130D1*
D2*
X12076D1*
D2*
X11894Y53069D1*
D2*
X11773Y52947D1*
D2*
X11713Y52766D1*
D2*
Y52706D1*
D2*
X11773Y52523D1*
D2*
X11894Y52401D1*
D2*
X12076Y52341D1*
X11651Y54312D2*
X11833Y54250D1*
D2*
X11956Y54130D1*
D2*
X12016Y53947D1*
D2*
Y53887D1*
D2*
X11956Y53704D1*
D2*
X11833Y53584D1*
D2*
X11651Y53522D1*
D2*
X11591D1*
D2*
X11408Y53584D1*
D2*
X11287Y53704D1*
D2*
X11227Y53887D1*
D2*
Y53947D1*
D2*
X11287Y54130D1*
D2*
X11408Y54250D1*
D2*
X11651Y54312D1*
D2*
X11956D1*
D2*
X12259Y54250D1*
D2*
X12441Y54130D1*
D2*
X12502Y53947D1*
D2*
Y53826D1*
D2*
X12441Y53644D1*
D2*
X12319Y53584D1*
X30276Y51037D2*
X31552D1*
D2*
Y51462D1*
D2*
X31490Y51645D1*
D2*
X31369Y51767D1*
D2*
X31247Y51827D1*
D2*
X31066Y51887D1*
D2*
X30761D1*
D2*
X30579Y51827D1*
D2*
X30458Y51767D1*
D2*
X30336Y51645D1*
D2*
X30276Y51462D1*
D2*
Y51037D1*
X31552Y52523D2*
X30277Y53130D1*
D2*
Y52280D1*
Y53888D2*
X30337Y53705D1*
D2*
X30520Y53583D1*
D2*
X30823Y53523D1*
D2*
X31006D1*
D2*
X31309Y53583D1*
D2*
X31491Y53705D1*
D2*
X31552Y53888D1*
D2*
Y54008D1*
D2*
X31491Y54191D1*
D2*
X31309Y54311D1*
D2*
X31006Y54373D1*
D2*
X30823D1*
D2*
X30520Y54311D1*
D2*
X30337Y54191D1*
D2*
X30277Y54008D1*
D2*
Y53888D1*
X30520Y54311D2*
X31309Y53583D1*
X49326Y51310D2*
X50602D1*
D2*
Y51735D1*
D2*
X50540Y51918D1*
D2*
X50419Y52040D1*
D2*
X50297Y52100D1*
D2*
X50116Y52161D1*
D2*
X49811D1*
D2*
X49629Y52100D1*
D2*
X49508Y52040D1*
D2*
X49386Y51918D1*
D2*
X49326Y51735D1*
D2*
Y51310D1*
X50602Y52796D2*
X49327Y53403D1*
D2*
Y52553D1*
X49570Y53796D2*
X49508Y53918D1*
D2*
X49327Y54100D1*
D2*
X50602D1*
X68376Y51037D2*
X69652D1*
D2*
Y51462D1*
D2*
X69590Y51645D1*
D2*
X69469Y51767D1*
D2*
X69347Y51827D1*
D2*
X69166Y51887D1*
D2*
X68861D1*
D2*
X68679Y51827D1*
D2*
X68558Y51767D1*
D2*
X68436Y51645D1*
D2*
X68376Y51462D1*
D2*
Y51037D1*
X69652Y52523D2*
X68377Y53130D1*
D2*
Y52280D1*
X68680Y53584D2*
X68620D1*
D2*
X68498Y53645D1*
D2*
X68437Y53705D1*
D2*
X68377Y53827D1*
D2*
Y54070D1*
D2*
X68437Y54191D1*
D2*
X68498Y54251D1*
D2*
X68620Y54313D1*
D2*
X68741D1*
D2*
X68863Y54251D1*
D2*
X69044Y54130D1*
D2*
X69652Y53523D1*
D2*
Y54373D1*
X20751Y34527D2*
X22027D1*
D2*
Y34952D1*
D2*
X21965Y35135D1*
D2*
X21844Y35257D1*
D2*
X21722Y35317D1*
D2*
X21541Y35377D1*
D2*
X21236D1*
D2*
X21054Y35317D1*
D2*
X20933Y35257D1*
D2*
X20811Y35135D1*
D2*
X20751Y34952D1*
D2*
Y34527D1*
X22027Y36013D2*
X20752Y36620D1*
D2*
Y35770D1*
X22027Y37255D2*
X20752Y37863D1*
D2*
Y37013D1*
X39801Y34527D2*
X41077D1*
D2*
Y34953D1*
D2*
X41015Y35135D1*
D2*
X40894Y35257D1*
D2*
X40772Y35318D1*
D2*
X40591Y35378D1*
D2*
X40286D1*
D2*
X40104Y35318D1*
D2*
X39983Y35257D1*
D2*
X39861Y35135D1*
D2*
X39801Y34953D1*
D2*
Y34527D1*
X41077Y36013D2*
X39802Y36621D1*
D2*
Y35770D1*
Y37316D2*
X39862Y37135D1*
D2*
X39983Y37074D1*
D2*
X40105D1*
D2*
X40226Y37135D1*
D2*
X40288Y37256D1*
D2*
X40348Y37499D1*
D2*
X40408Y37681D1*
D2*
X40531Y37802D1*
D2*
X40651Y37863D1*
D2*
X40834D1*
D2*
X40955Y37802D1*
D2*
X41016Y37742D1*
D2*
X41077Y37559D1*
D2*
Y37316D1*
D2*
X41016Y37135D1*
D2*
X40955Y37074D1*
D2*
X40834Y37013D1*
D2*
X40651D1*
D2*
X40531Y37074D1*
D2*
X40408Y37196D1*
D2*
X40348Y37377D1*
D2*
X40288Y37620D1*
D2*
X40226Y37742D1*
D2*
X40105Y37802D1*
D2*
X39983D1*
D2*
X39862Y37742D1*
D2*
X39802Y37559D1*
D2*
Y37316D1*
X58851Y34557D2*
X60127D1*
D2*
Y34982D1*
D2*
X60065Y35165D1*
D2*
X59944Y35287D1*
D2*
X59822Y35347D1*
D2*
X59641Y35408D1*
D2*
X59336D1*
D2*
X59154Y35347D1*
D2*
X59033Y35287D1*
D2*
X58911Y35165D1*
D2*
X58851Y34982D1*
D2*
Y34557D1*
X60127Y36043D2*
X58852Y36651D1*
D2*
Y35800D1*
X59276Y37833D2*
X59458Y37771D1*
D2*
X59581Y37651D1*
D2*
X59641Y37468D1*
D2*
Y37408D1*
D2*
X59581Y37225D1*
D2*
X59458Y37104D1*
D2*
X59276Y37043D1*
D2*
X59216D1*
D2*
X59033Y37104D1*
D2*
X58912Y37225D1*
D2*
X58852Y37408D1*
D2*
Y37468D1*
D2*
X58912Y37651D1*
D2*
X59033Y37771D1*
D2*
X59276Y37833D1*
D2*
X59581D1*
D2*
X59884Y37771D1*
D2*
X60066Y37651D1*
D2*
X60127Y37468D1*
D2*
Y37347D1*
D2*
X60066Y37165D1*
D2*
X59944Y37104D1*
X77901Y34527D2*
X79177D1*
D2*
Y34953D1*
D2*
X79115Y35135D1*
D2*
X78994Y35257D1*
D2*
X78872Y35318D1*
D2*
X78691Y35378D1*
D2*
X78386D1*
D2*
X78204Y35318D1*
D2*
X78083Y35257D1*
D2*
X77961Y35135D1*
D2*
X77901Y34953D1*
D2*
Y34527D1*
X77902Y36074D2*
X77962Y35892D1*
D2*
X78083Y35831D1*
D2*
X78205D1*
D2*
X78326Y35892D1*
D2*
X78388Y36013D1*
D2*
X78448Y36256D1*
D2*
X78508Y36439D1*
D2*
X78631Y36559D1*
D2*
X78751Y36620D1*
D2*
X78934D1*
D2*
X79055Y36559D1*
D2*
X79116Y36499D1*
D2*
X79177Y36316D1*
D2*
Y36074D1*
D2*
X79116Y35892D1*
D2*
X79055Y35831D1*
D2*
X78934Y35770D1*
D2*
X78751D1*
D2*
X78631Y35831D1*
D2*
X78508Y35953D1*
D2*
X78448Y36134D1*
D2*
X78388Y36377D1*
D2*
X78326Y36499D1*
D2*
X78205Y36559D1*
D2*
X78083D1*
D2*
X77962Y36499D1*
D2*
X77902Y36316D1*
D2*
Y36074D1*
Y37377D2*
X77962Y37194D1*
D2*
X78145Y37072D1*
D2*
X78448Y37012D1*
D2*
X78631D1*
D2*
X78934Y37072D1*
D2*
X79116Y37194D1*
D2*
X79177Y37377D1*
D2*
Y37498D1*
D2*
X79116Y37680D1*
D2*
X78934Y37801D1*
D2*
X78631Y37863D1*
D2*
X78448D1*
D2*
X78145Y37801D1*
D2*
X77962Y37680D1*
D2*
X77902Y37498D1*
D2*
Y37377D1*
X78145Y37801D2*
X78934Y37072D1*
X11226Y18017D2*
X12502D1*
D2*
Y18443D1*
D2*
X12440Y18625D1*
D2*
X12319Y18747D1*
D2*
X12197Y18808D1*
D2*
X12016Y18868D1*
D2*
X11711D1*
D2*
X11529Y18808D1*
D2*
X11408Y18747D1*
D2*
X11286Y18625D1*
D2*
X11226Y18443D1*
D2*
Y18017D1*
X11227Y19564D2*
X11287Y19382D1*
D2*
X11408Y19321D1*
D2*
X11530D1*
D2*
X11651Y19382D1*
D2*
X11713Y19503D1*
D2*
X11773Y19746D1*
D2*
X11833Y19929D1*
D2*
X11956Y20049D1*
D2*
X12076Y20110D1*
D2*
X12259D1*
D2*
X12380Y20049D1*
D2*
X12441Y19989D1*
D2*
X12502Y19806D1*
D2*
Y19564D1*
D2*
X12441Y19382D1*
D2*
X12380Y19321D1*
D2*
X12259Y19260D1*
D2*
X12076D1*
D2*
X11956Y19321D1*
D2*
X11833Y19443D1*
D2*
X11773Y19624D1*
D2*
X11713Y19867D1*
D2*
X11651Y19989D1*
D2*
X11530Y20049D1*
D2*
X11408D1*
D2*
X11287Y19989D1*
D2*
X11227Y19806D1*
D2*
Y19564D1*
Y21230D2*
Y20624D1*
D2*
X11773Y20564D1*
D2*
X11713Y20624D1*
D2*
X11651Y20806D1*
D2*
Y20988D1*
D2*
X11713Y21170D1*
D2*
X11833Y21292D1*
D2*
X12016Y21353D1*
D2*
X12137D1*
D2*
X12319Y21292D1*
D2*
X12441Y21170D1*
D2*
X12502Y20988D1*
D2*
Y20806D1*
D2*
X12441Y20624D1*
D2*
X12380Y20564D1*
D2*
X12259Y20502D1*
X30276Y18048D2*
X31552D1*
D2*
Y18474D1*
D2*
X31490Y18656D1*
D2*
X31369Y18778D1*
D2*
X31247Y18839D1*
D2*
X31066Y18899D1*
D2*
X30761D1*
D2*
X30579Y18839D1*
D2*
X30458Y18778D1*
D2*
X30336Y18656D1*
D2*
X30276Y18474D1*
D2*
Y18048D1*
X30277Y19594D2*
X30337Y19413D1*
D2*
X30458Y19352D1*
D2*
X30580D1*
D2*
X30701Y19413D1*
D2*
X30763Y19534D1*
D2*
X30823Y19777D1*
D2*
X30883Y19959D1*
D2*
X31006Y20080D1*
D2*
X31126Y20141D1*
D2*
X31309D1*
D2*
X31430Y20080D1*
D2*
X31491Y20020D1*
D2*
X31552Y19837D1*
D2*
Y19594D1*
D2*
X31491Y19413D1*
D2*
X31430Y19352D1*
D2*
X31309Y19291D1*
D2*
X31126D1*
D2*
X31006Y19352D1*
D2*
X30883Y19474D1*
D2*
X30823Y19655D1*
D2*
X30763Y19898D1*
D2*
X30701Y20020D1*
D2*
X30580Y20080D1*
D2*
X30458D1*
D2*
X30337Y20020D1*
D2*
X30277Y19837D1*
D2*
Y19594D1*
X30458Y21261D2*
X30337Y21201D1*
D2*
X30277Y21018D1*
D2*
Y20898D1*
D2*
X30337Y20715D1*
D2*
X30520Y20593D1*
D2*
X30823Y20533D1*
D2*
X31126D1*
D2*
X31369Y20593D1*
D2*
X31491Y20715D1*
D2*
X31552Y20898D1*
D2*
Y20958D1*
D2*
X31491Y21139D1*
D2*
X31369Y21261D1*
D2*
X31187Y21322D1*
D2*
X31126D1*
D2*
X30944Y21261D1*
D2*
X30823Y21139D1*
D2*
X30763Y20958D1*
D2*
Y20898D1*
D2*
X30823Y20715D1*
D2*
X30944Y20593D1*
D2*
X31126Y20533D1*
X49326Y18017D2*
X50602D1*
D2*
Y18443D1*
D2*
X50540Y18625D1*
D2*
X50419Y18747D1*
D2*
X50297Y18808D1*
D2*
X50116Y18868D1*
D2*
X49811D1*
D2*
X49629Y18808D1*
D2*
X49508Y18747D1*
D2*
X49386Y18625D1*
D2*
X49326Y18443D1*
D2*
Y18017D1*
X49327Y19564D2*
X49387Y19382D1*
D2*
X49508Y19321D1*
D2*
X49630D1*
D2*
X49751Y19382D1*
D2*
X49813Y19503D1*
D2*
X49873Y19746D1*
D2*
X49933Y19929D1*
D2*
X50056Y20049D1*
D2*
X50176Y20110D1*
D2*
X50359D1*
D2*
X50480Y20049D1*
D2*
X50541Y19989D1*
D2*
X50602Y19806D1*
D2*
Y19564D1*
D2*
X50541Y19382D1*
D2*
X50480Y19321D1*
D2*
X50359Y19260D1*
D2*
X50176D1*
D2*
X50056Y19321D1*
D2*
X49933Y19443D1*
D2*
X49873Y19624D1*
D2*
X49813Y19867D1*
D2*
X49751Y19989D1*
D2*
X49630Y20049D1*
D2*
X49508D1*
D2*
X49387Y19989D1*
D2*
X49327Y19806D1*
D2*
Y19564D1*
X50602Y20745D2*
X49327Y21353D1*
D2*
Y20502D1*
X68376Y18018D2*
X69652D1*
D2*
Y18444D1*
D2*
X69590Y18626D1*
D2*
X69469Y18748D1*
D2*
X69347Y18809D1*
D2*
X69166Y18869D1*
D2*
X68861D1*
D2*
X68679Y18809D1*
D2*
X68558Y18748D1*
D2*
X68436Y18626D1*
D2*
X68376Y18444D1*
D2*
Y18018D1*
X68377Y19564D2*
X68437Y19383D1*
D2*
X68558Y19321D1*
D2*
X68680D1*
D2*
X68801Y19383D1*
D2*
X68863Y19504D1*
D2*
X68923Y19747D1*
D2*
X68983Y19929D1*
D2*
X69106Y20050D1*
D2*
X69226Y20110D1*
D2*
X69409D1*
D2*
X69530Y20050D1*
D2*
X69591Y19990D1*
D2*
X69652Y19807D1*
D2*
Y19564D1*
D2*
X69591Y19383D1*
D2*
X69530Y19321D1*
D2*
X69409Y19261D1*
D2*
X69226D1*
D2*
X69106Y19321D1*
D2*
X68983Y19444D1*
D2*
X68923Y19625D1*
D2*
X68863Y19868D1*
D2*
X68801Y19990D1*
D2*
X68680Y20050D1*
D2*
X68558D1*
D2*
X68437Y19990D1*
D2*
X68377Y19807D1*
D2*
Y19564D1*
Y20806D2*
X68437Y20625D1*
D2*
X68558Y20563D1*
D2*
X68680D1*
D2*
X68801Y20625D1*
D2*
X68863Y20745D1*
D2*
X68923Y20988D1*
D2*
X68983Y21171D1*
D2*
X69106Y21291D1*
D2*
X69226Y21352D1*
D2*
X69409D1*
D2*
X69530Y21291D1*
D2*
X69591Y21231D1*
D2*
X69652Y21049D1*
D2*
Y20806D1*
D2*
X69591Y20625D1*
D2*
X69530Y20563D1*
D2*
X69409Y20503D1*
D2*
X69226D1*
D2*
X69106Y20563D1*
D2*
X68983Y20685D1*
D2*
X68923Y20866D1*
D2*
X68863Y21109D1*
D2*
X68801Y21231D1*
D2*
X68680Y21291D1*
D2*
X68558D1*
D2*
X68437Y21231D1*
D2*
X68377Y21049D1*
D2*
Y20806D1*
X20751Y1537D2*
X22027D1*
D2*
Y1962D1*
D2*
X21965Y2145D1*
D2*
X21844Y2267D1*
D2*
X21722Y2327D1*
D2*
X21541Y2388D1*
D2*
X21236D1*
D2*
X21054Y2327D1*
D2*
X20933Y2267D1*
D2*
X20811Y2145D1*
D2*
X20751Y1962D1*
D2*
Y1537D1*
X21176Y3570D2*
X21358Y3508D1*
D2*
X21481Y3388D1*
D2*
X21541Y3205D1*
D2*
Y3145D1*
D2*
X21481Y2962D1*
D2*
X21358Y2842D1*
D2*
X21176Y2780D1*
D2*
X21116D1*
D2*
X20933Y2842D1*
D2*
X20812Y2962D1*
D2*
X20752Y3145D1*
D2*
Y3205D1*
D2*
X20812Y3388D1*
D2*
X20933Y3508D1*
D2*
X21176Y3570D1*
D2*
X21481D1*
D2*
X21784Y3508D1*
D2*
X21966Y3388D1*
D2*
X22027Y3205D1*
D2*
Y3084D1*
D2*
X21966Y2902D1*
D2*
X21844Y2842D1*
X20752Y4084D2*
Y4751D1*
D2*
X21238Y4388D1*
D2*
Y4570D1*
D2*
X21298Y4691D1*
D2*
X21358Y4751D1*
D2*
X21541Y4813D1*
D2*
X21662D1*
D2*
X21844Y4751D1*
D2*
X21966Y4631D1*
D2*
X22027Y4448D1*
D2*
Y4266D1*
D2*
X21966Y4084D1*
D2*
X21905Y4024D1*
D2*
X21784Y3962D1*
X39801Y1507D2*
X41077D1*
D2*
Y1932D1*
D2*
X41015Y2115D1*
D2*
X40894Y2237D1*
D2*
X40772Y2297D1*
D2*
X40591Y2357D1*
D2*
X40286D1*
D2*
X40104Y2297D1*
D2*
X39983Y2237D1*
D2*
X39861Y2115D1*
D2*
X39801Y1932D1*
D2*
Y1507D1*
X40226Y3540D2*
X40408Y3478D1*
D2*
X40531Y3358D1*
D2*
X40591Y3175D1*
D2*
Y3115D1*
D2*
X40531Y2932D1*
D2*
X40408Y2811D1*
D2*
X40226Y2750D1*
D2*
X40166D1*
D2*
X39983Y2811D1*
D2*
X39862Y2932D1*
D2*
X39802Y3115D1*
D2*
Y3175D1*
D2*
X39862Y3358D1*
D2*
X39983Y3478D1*
D2*
X40226Y3540D1*
D2*
X40531D1*
D2*
X40834Y3478D1*
D2*
X41016Y3358D1*
D2*
X41077Y3175D1*
D2*
Y3054D1*
D2*
X41016Y2872D1*
D2*
X40894Y2811D1*
X41077Y4540D2*
X39802D1*
D2*
X40651Y3932D1*
D2*
Y4843D1*
X58851Y1537D2*
X60127D1*
D2*
Y1962D1*
D2*
X60065Y2145D1*
D2*
X59944Y2267D1*
D2*
X59822Y2327D1*
D2*
X59641Y2388D1*
D2*
X59336D1*
D2*
X59154Y2327D1*
D2*
X59033Y2267D1*
D2*
X58911Y2145D1*
D2*
X58851Y1962D1*
D2*
Y1537D1*
X59276Y3570D2*
X59458Y3508D1*
D2*
X59581Y3388D1*
D2*
X59641Y3205D1*
D2*
Y3145D1*
D2*
X59581Y2962D1*
D2*
X59458Y2842D1*
D2*
X59276Y2780D1*
D2*
X59216D1*
D2*
X59033Y2842D1*
D2*
X58912Y2962D1*
D2*
X58852Y3145D1*
D2*
Y3205D1*
D2*
X58912Y3388D1*
D2*
X59033Y3508D1*
D2*
X59276Y3570D1*
D2*
X59581D1*
D2*
X59884Y3508D1*
D2*
X60066Y3388D1*
D2*
X60127Y3205D1*
D2*
Y3084D1*
D2*
X60066Y2902D1*
D2*
X59944Y2842D1*
X58852Y4691D2*
Y4084D1*
D2*
X59398Y4024D1*
D2*
X59338Y4084D1*
D2*
X59276Y4267D1*
D2*
Y4448D1*
D2*
X59338Y4631D1*
D2*
X59458Y4753D1*
D2*
X59641Y4813D1*
D2*
X59762D1*
D2*
X59944Y4753D1*
D2*
X60066Y4631D1*
D2*
X60127Y4448D1*
D2*
Y4267D1*
D2*
X60066Y4084D1*
D2*
X60005Y4024D1*
D2*
X59884Y3962D1*
X77901Y1568D2*
X79177D1*
D2*
Y1993D1*
D2*
X79115Y2176D1*
D2*
X78994Y2298D1*
D2*
X78872Y2358D1*
D2*
X78691Y2419D1*
D2*
X78386D1*
D2*
X78204Y2358D1*
D2*
X78083Y2298D1*
D2*
X77961Y2176D1*
D2*
X77901Y1993D1*
D2*
Y1568D1*
X78326Y3601D2*
X78508Y3539D1*
D2*
X78631Y3419D1*
D2*
X78691Y3236D1*
D2*
Y3176D1*
D2*
X78631Y2993D1*
D2*
X78508Y2872D1*
D2*
X78326Y2811D1*
D2*
X78266D1*
D2*
X78083Y2872D1*
D2*
X77962Y2993D1*
D2*
X77902Y3176D1*
D2*
Y3236D1*
D2*
X77962Y3419D1*
D2*
X78083Y3539D1*
D2*
X78326Y3601D1*
D2*
X78631D1*
D2*
X78934Y3539D1*
D2*
X79116Y3419D1*
D2*
X79177Y3236D1*
D2*
Y3115D1*
D2*
X79116Y2933D1*
D2*
X78994Y2872D1*
X78083Y4722D2*
X77962Y4661D1*
D2*
X77902Y4479D1*
D2*
Y4358D1*
D2*
X77962Y4176D1*
D2*
X78145Y4054D1*
D2*
X78448Y3993D1*
D2*
X78751D1*
D2*
X78994Y4054D1*
D2*
X79116Y4176D1*
D2*
X79177Y4358D1*
D2*
Y4419D1*
D2*
X79116Y4600D1*
D2*
X78994Y4722D1*
D2*
X78812Y4782D1*
D2*
X78751D1*
D2*
X78569Y4722D1*
D2*
X78448Y4600D1*
D2*
X78388Y4419D1*
D2*
Y4358D1*
D2*
X78448Y4176D1*
D2*
X78569Y4054D1*
D2*
X78751Y3993D1*
M02*
