G04 DipTrace 2.1.9.2*
%INTop.gbr*%
%MOMM*%
%ADD10C,0.25*%
%ADD11C,0.14*%
%ADD12C,0.076*%
%ADD13C,0.762*%
%ADD14C,2.54*%
%ADD15R,1.8X1.8*%
%ADD16C,1.8*%
%ADD17C,1.27*%
%ADD18R,1.27X1.27*%
%ADD19C,1.016*%
%ADD20C,0.483*%
%ADD21C,3.988*%
%ADD22C,1.702*%
%ADD23C,1.499*%
%ADD24C,1.2*%
%ADD25C,0.711*%
%ADD26C,0.9*%
%ADD27C,0.203*%
%ADD28C,1.219*%
%ADD29C,0.813*%
%ADD30R,1.473X1.473*%
%ADD31R,1.067X1.067*%
%ADD32C,1.473*%
%ADD33C,1.067*%
%ADD34C,2.003*%
%ADD35C,1.597*%
%ADD36R,2.003X2.003*%
%ADD37R,1.597X1.597*%
%ADD38C,2.743*%
%ADD39C,2.337*%
%ADD40C,0.196*%
%ADD41C,0.353*%
%ADD42C,0.275*%
%FSLAX53Y53*%
%SFA1B1*%
%OFA0B0*%
G04*
G71*
G90*
G75*
G01*
%LNTop*%
%LPD*%
X17907Y95251D2*
D13*
X15521D1*
X14887Y95885D1*
X10795D1*
X36894Y95188D2*
X34539D1*
X33842Y95885D1*
X29845D1*
X55944Y95251D2*
X51706D1*
X51072Y95885D1*
X48895D1*
X74993Y95188D2*
X70819D1*
X70122Y95885D1*
X67945D1*
X1270Y92075D2*
Y96418D1*
X3353D1*
X4445Y95326D1*
Y93345D1*
X61595D2*
X61760Y93510D1*
X74930D1*
Y92075D1*
X42545Y93345D2*
X42710Y93510D1*
X54250D1*
X54415Y93345D1*
X61595D1*
X23495D2*
X23660Y93510D1*
X35200D1*
X35365Y93345D1*
X42545D1*
X4445D2*
X4610Y93510D1*
X16213D1*
X16378Y93345D1*
X23495D1*
X20320Y79439D2*
X23998D1*
X25205Y80646D1*
X27305D1*
X10859Y62929D2*
X14505D1*
X15649Y64073D1*
X17780D1*
X20320Y46355D2*
X24030D1*
X25174Y47499D1*
X27305D1*
X10859Y29909D2*
X14568D1*
X15712Y31053D1*
X17844D1*
X39599Y1270D2*
X35560D1*
X27305Y3556D2*
X25019Y1270D1*
X16510D1*
X29909Y62929D2*
X33682D1*
X34826Y64073D1*
X36957D1*
X48959Y62929D2*
X51513D1*
X52721Y64136D1*
X56007D1*
X68009Y62929D2*
X69990D1*
X71197Y64136D1*
X74993D1*
X29909Y29909D2*
X33650D1*
X34857Y31116D1*
X36957D1*
X48959Y29909D2*
X52668D1*
X53812Y31053D1*
X55944D1*
X68009Y29909D2*
X71686D1*
X72894Y31116D1*
X74993D1*
X77470Y13335D2*
X79451D1*
X80659Y14543D1*
X84519D1*
X10795Y75565D2*
Y76969D1*
X13899D1*
X13970Y76898D1*
X71183D2*
Y77610D1*
X72454Y78880D1*
X73165D1*
X74981Y77064D1*
X83820D1*
Y75565D1*
X52134Y76898D2*
Y77610D1*
X53404Y78880D1*
X54115D1*
X55931Y77064D1*
X67124D1*
X67289Y76898D1*
X71183D1*
X33084D2*
Y77610D1*
X34354Y78880D1*
X35065D1*
X36881Y77064D1*
X47947D1*
X48112Y76898D1*
X52134D1*
X13970D2*
Y77610D1*
X15240Y78880D1*
X15951D1*
X17767Y77064D1*
X28834D1*
X28999Y76898D1*
X33084D1*
X61659Y60389D2*
Y61100D1*
X62929Y62370D1*
X63640D1*
X65456Y60554D1*
X74930D1*
Y59055D1*
X42608Y60389D2*
Y61100D1*
X43879Y62370D1*
X44590D1*
X46406Y60554D1*
X57410D1*
X57575Y60389D1*
X61659D1*
X23559D2*
Y61100D1*
X24829Y62370D1*
X25540D1*
X27356Y60554D1*
X38486D1*
X38651Y60389D1*
X42608D1*
X4509D2*
Y61100D1*
X5779Y62370D1*
X6490D1*
X8306Y60554D1*
X19309D1*
X19474Y60389D1*
X23559D1*
X10795Y42545D2*
Y43949D1*
X13836D1*
X13970Y43815D1*
X71183Y43752D2*
Y44463D1*
X72454Y45733D1*
X73165D1*
X74948Y43949D1*
X84455D1*
Y42545D1*
X52134Y43815D2*
Y44526D1*
X53404Y45796D1*
X54115D1*
X55931Y43980D1*
X66904D1*
X67132Y43752D1*
X71183D1*
X33084Y43815D2*
Y44526D1*
X34354Y45796D1*
X35065D1*
X36881Y43980D1*
X47820D1*
X47985Y43815D1*
X52134D1*
X13970D2*
Y45796D1*
X15043D1*
X16859Y43980D1*
X28834D1*
X28999Y43815D1*
X33084D1*
X1270Y26035D2*
Y27439D1*
X4438D1*
X4509Y27369D1*
X61659D2*
Y28080D1*
X62929Y29350D1*
X63640D1*
X65456Y27534D1*
X74930D1*
Y26035D1*
X42608Y27369D2*
Y28080D1*
X43879Y29350D1*
X44590D1*
X46406Y27534D1*
X57472D1*
X57637Y27369D1*
X61659D1*
X23559D2*
Y28080D1*
X24829Y29350D1*
X25540D1*
X27356Y27534D1*
X38486D1*
X38651Y27369D1*
X42608D1*
X4509D2*
Y28080D1*
X5779Y29350D1*
X6490D1*
X8306Y27534D1*
X19372D1*
X19537Y27369D1*
X23559D1*
X71120Y10795D2*
Y11506D1*
X72390Y12776D1*
X73101D1*
X74917Y10960D1*
X84455D1*
Y9525D1*
X52070Y10732D2*
Y11443D1*
X53340Y12713D1*
X54051D1*
X55867Y10897D1*
X67994D1*
X68096Y10795D1*
X71120D1*
X33084Y10859D2*
Y11570D1*
X34354Y12840D1*
X35065D1*
X36881Y11024D1*
X47758D1*
X48050Y10732D1*
X52070D1*
X13970Y10859D2*
Y11570D1*
X15240Y12840D1*
X15951D1*
X17767Y11024D1*
X21215D1*
X21381Y10859D1*
X33084D1*
X1270Y89535D2*
Y87071D1*
X8179D1*
X9525Y85725D1*
X66675D2*
X68237D1*
X72047Y89535D1*
X74930D1*
X47625Y85725D2*
X53659D1*
X55006Y87071D1*
X65329D1*
X66675Y85725D1*
X28575D2*
X33517D1*
X34863Y87071D1*
X46279D1*
X47625Y85725D1*
X9525D2*
X10871Y87071D1*
X27229D1*
X28575Y85725D1*
X83820Y73025D2*
Y70826D1*
X77811D1*
X76200Y69215D1*
X19050D2*
X17704Y70561D1*
X10795D1*
Y73025D1*
X38100Y69215D2*
X36754Y67869D1*
X20396D1*
X19050Y69215D1*
X57150D2*
X55804Y67869D1*
X39446D1*
X38100Y69215D1*
X76200D2*
X74854Y67869D1*
X58496D1*
X57150Y69215D1*
X1270Y56515D2*
Y54051D1*
X8179D1*
X9525Y52705D1*
X66675D2*
X68667Y54697D1*
X74930D1*
Y56515D1*
X47625Y52705D2*
X49617Y54697D1*
X64683D1*
X66675Y52705D1*
X28575D2*
X30872Y50408D1*
X45328D1*
X47625Y52705D1*
X9525D2*
X11822Y50408D1*
X26278D1*
X28575Y52705D1*
X10795Y40005D2*
Y37541D1*
X17704D1*
X19050Y36195D1*
X76200D2*
X78065Y38060D1*
X84455D1*
Y40005D1*
X57150Y36195D2*
X59015Y38060D1*
X74335D1*
X76200Y36195D1*
X38100D2*
X39457Y34838D1*
X55793D1*
X57150Y36195D1*
X19050D2*
X20407Y34838D1*
X36743D1*
X38100Y36195D1*
X74930Y23495D2*
Y21677D1*
X68667D1*
X66675Y19685D1*
X9525D2*
X8179Y21031D1*
X1270D1*
Y23495D1*
X28575Y19685D2*
X26278Y17388D1*
X11822D1*
X9525Y19685D1*
X47625D2*
X46279Y18339D1*
X32665D1*
X31318Y19685D1*
X28575D1*
X66675D2*
X65329Y18339D1*
X48971D1*
X47625Y19685D1*
X10795Y6985D2*
Y4521D1*
X17704D1*
X19050Y3175D1*
X76200D2*
X77762D1*
X81572Y6985D1*
X84455D1*
X57150Y3175D2*
X59142Y5167D1*
X74208D1*
X76200Y3175D1*
X38100D2*
X40092Y5167D1*
X55158D1*
X57150Y3175D1*
X19050D2*
X22370D1*
X24362Y5167D1*
X36108D1*
X38100Y3175D1*
X73660D2*
X71120D1*
Y1270D1*
X54610Y3175D2*
X52070D1*
Y1270D1*
X35560Y3175D2*
X33020D1*
Y1270D1*
X16510Y3175D2*
X13970D1*
Y1270D1*
X30135Y6630D2*
X22632D1*
X20523Y4521D1*
X16105Y15507D2*
X22887D1*
X26316Y12078D1*
X30135D1*
D19*
X39599Y1270D3*
X20523Y4521D3*
X30135Y6630D3*
Y12078D3*
X16105Y15507D3*
D14*
X4445Y93345D3*
X10795Y95885D3*
X23495Y93345D3*
X29845Y95885D3*
X42545Y93345D3*
X48895Y95885D3*
X61595Y93345D3*
X67945Y95885D3*
D15*
X17907Y84201D3*
D16*
Y95251D3*
D15*
X36894Y84138D3*
D16*
Y95188D3*
D15*
X55944Y84201D3*
D16*
Y95251D3*
D15*
X74993Y84138D3*
D16*
Y95188D3*
D14*
X13970Y76898D3*
X20320Y79439D3*
X33084Y76898D3*
X39434Y79439D3*
X52134Y76898D3*
X58483Y79439D3*
X71183Y76898D3*
X77534Y79439D3*
D15*
X27305Y69596D3*
D16*
Y80646D3*
D15*
X46419Y69533D3*
D16*
Y80582D3*
D15*
X65596Y69533D3*
D16*
Y80582D3*
D15*
X83820Y69215D3*
D16*
Y80265D3*
D14*
X4509Y60389D3*
X10859Y62929D3*
X23558Y60389D3*
X29909Y62929D3*
X42608Y60389D3*
X48959Y62929D3*
X61659Y60389D3*
X68009Y62929D3*
D15*
X17780Y53023D3*
D16*
Y64073D3*
D15*
X36957Y53023D3*
D16*
Y64073D3*
D15*
X56007Y53086D3*
D16*
Y64136D3*
D15*
X74993Y53086D3*
D16*
Y64136D3*
D14*
X13970Y43815D3*
X20320Y46355D3*
X33084Y43815D3*
X39434Y46355D3*
X52134Y43815D3*
X58483Y46355D3*
X71183Y43752D3*
X77534Y46292D3*
D15*
X27305Y36449D3*
D16*
Y47499D3*
D15*
X46292Y36449D3*
D16*
Y47499D3*
D15*
X65532Y36449D3*
D16*
Y47499D3*
D15*
X84582Y36322D3*
D16*
Y47372D3*
D14*
X4509Y27369D3*
X10859Y29909D3*
X23558Y27369D3*
X29909Y29909D3*
X42608Y27369D3*
X48959Y29909D3*
X61659Y27369D3*
X68009Y29909D3*
D15*
X17844Y20002D3*
D16*
Y31053D3*
D15*
X36957Y20066D3*
D16*
Y31116D3*
D15*
X55944Y20002D3*
D16*
Y31053D3*
D15*
X74993Y20066D3*
D16*
Y31116D3*
D14*
X13970Y10859D3*
X20320Y13399D3*
X33084Y10859D3*
X39434Y13399D3*
X52070Y10732D3*
X58420Y13272D3*
X71120Y10795D3*
X77470Y13335D3*
D15*
X27305Y3556D3*
D16*
Y14606D3*
D15*
X46292Y3556D3*
D16*
Y14606D3*
D15*
X65342Y3429D3*
D16*
Y14479D3*
D15*
X84519Y3493D3*
D16*
Y14542D3*
D17*
X6985Y85725D3*
D18*
X9525D3*
D17*
X26035D3*
D18*
X28575D3*
D17*
X45085D3*
D18*
X47625D3*
D17*
X64135D3*
D18*
X66675D3*
D17*
X16510Y69215D3*
D18*
X19050D3*
D17*
X35560D3*
D18*
X38100D3*
D17*
X54610D3*
D18*
X57150D3*
D17*
X73660D3*
D18*
X76200D3*
D17*
X6985Y52705D3*
D18*
X9525D3*
D17*
X26035D3*
D18*
X28575D3*
D17*
X45085D3*
D18*
X47625D3*
D17*
X64135D3*
D18*
X66675D3*
D17*
X16510Y36195D3*
D18*
X19050D3*
D17*
X35560D3*
D18*
X38100D3*
D17*
X54610D3*
D18*
X57150D3*
D17*
X73660D3*
D18*
X76200D3*
D17*
X6985Y19685D3*
D18*
X9525D3*
D17*
X26035D3*
D18*
X28575D3*
D17*
X45085D3*
D18*
X47625D3*
D17*
X64135D3*
D18*
X66675D3*
D17*
X16510Y3175D3*
D18*
X19050D3*
D17*
X35560D3*
D18*
X38100D3*
D17*
X54610D3*
D18*
X57150D3*
D17*
X73660D3*
D18*
X76200D3*
G36*
X1557Y91382D2*
X983D1*
X577Y91788D1*
Y92362D1*
X983Y92768D1*
X1557D1*
X1963Y92362D1*
Y91788D1*
X1557Y91382D1*
G37*
G36*
X84107Y74872D2*
X83533D1*
X83127Y75278D1*
Y75852D1*
X83533Y76258D1*
X84107D1*
X84513Y75852D1*
Y75278D1*
X84107Y74872D1*
G37*
G36*
X1557Y88842D2*
X983D1*
X577Y89248D1*
Y89822D1*
X983Y90228D1*
X1557D1*
X1963Y89822D1*
Y89248D1*
X1557Y88842D1*
G37*
G36*
X75217Y91382D2*
X74643D1*
X74237Y91788D1*
Y92362D1*
X74643Y92768D1*
X75217D1*
X75623Y92362D1*
Y91788D1*
X75217Y91382D1*
G37*
G36*
Y88842D2*
X74643D1*
X74237Y89248D1*
Y89822D1*
X74643Y90228D1*
X75217D1*
X75623Y89822D1*
Y89248D1*
X75217Y88842D1*
G37*
G36*
X84107Y72332D2*
X83533D1*
X83127Y72738D1*
Y73312D1*
X83533Y73718D1*
X84107D1*
X84513Y73312D1*
Y72738D1*
X84107Y72332D1*
G37*
G36*
X75217Y58362D2*
X74643D1*
X74237Y58768D1*
Y59342D1*
X74643Y59748D1*
X75217D1*
X75623Y59342D1*
Y58768D1*
X75217Y58362D1*
G37*
G36*
Y55822D2*
X74643D1*
X74237Y56228D1*
Y56802D1*
X74643Y57208D1*
X75217D1*
X75623Y56802D1*
Y56228D1*
X75217Y55822D1*
G37*
G36*
X84742Y41852D2*
X84168D1*
X83762Y42258D1*
Y42832D1*
X84168Y43238D1*
X84742D1*
X85148Y42832D1*
Y42258D1*
X84742Y41852D1*
G37*
G36*
Y39312D2*
X84168D1*
X83762Y39718D1*
Y40292D1*
X84168Y40698D1*
X84742D1*
X85148Y40292D1*
Y39718D1*
X84742Y39312D1*
G37*
G36*
X75217Y25342D2*
X74643D1*
X74237Y25748D1*
Y26322D1*
X74643Y26728D1*
X75217D1*
X75623Y26322D1*
Y25748D1*
X75217Y25342D1*
G37*
G36*
Y22802D2*
X74643D1*
X74237Y23208D1*
Y23782D1*
X74643Y24188D1*
X75217D1*
X75623Y23782D1*
Y23208D1*
X75217Y22802D1*
G37*
G36*
X84742Y8832D2*
X84168D1*
X83762Y9238D1*
Y9812D1*
X84168Y10218D1*
X84742D1*
X85148Y9812D1*
Y9238D1*
X84742Y8832D1*
G37*
G36*
Y6292D2*
X84168D1*
X83762Y6698D1*
Y7272D1*
X84168Y7678D1*
X84742D1*
X85148Y7272D1*
Y6698D1*
X84742Y6292D1*
G37*
G36*
X14257Y97097D2*
X13683D1*
X13277Y97503D1*
Y98077D1*
X13683Y98483D1*
X14257D1*
X14663Y98077D1*
Y97503D1*
X14257Y97097D1*
G37*
G36*
X16797D2*
X16223D1*
X15817Y97503D1*
Y98077D1*
X16223Y98483D1*
X16797D1*
X17203Y98077D1*
Y97503D1*
X16797Y97097D1*
G37*
G36*
X33307D2*
X32733D1*
X32327Y97503D1*
Y98077D1*
X32733Y98483D1*
X33307D1*
X33713Y98077D1*
Y97503D1*
X33307Y97097D1*
G37*
G36*
X35847D2*
X35273D1*
X34867Y97503D1*
Y98077D1*
X35273Y98483D1*
X35847D1*
X36253Y98077D1*
Y97503D1*
X35847Y97097D1*
G37*
G36*
X52357D2*
X51783D1*
X51377Y97503D1*
Y98077D1*
X51783Y98483D1*
X52357D1*
X52763Y98077D1*
Y97503D1*
X52357Y97097D1*
G37*
G36*
X54897D2*
X54323D1*
X53917Y97503D1*
Y98077D1*
X54323Y98483D1*
X54897D1*
X55303Y98077D1*
Y97503D1*
X54897Y97097D1*
G37*
G36*
X71407D2*
X70833D1*
X70427Y97503D1*
Y98077D1*
X70833Y98483D1*
X71407D1*
X71813Y98077D1*
Y97503D1*
X71407Y97097D1*
G37*
G36*
X73947D2*
X73373D1*
X72967Y97503D1*
Y98077D1*
X73373Y98483D1*
X73947D1*
X74353Y98077D1*
Y97503D1*
X73947Y97097D1*
G37*
G36*
X71407Y577D2*
X70833D1*
X70427Y983D1*
Y1557D1*
X70833Y1963D1*
X71407D1*
X71813Y1557D1*
Y983D1*
X71407Y577D1*
G37*
G36*
X73947D2*
X73373D1*
X72967Y983D1*
Y1557D1*
X73373Y1963D1*
X73947D1*
X74353Y1557D1*
Y983D1*
X73947Y577D1*
G37*
G36*
X54897D2*
X54323D1*
X53917Y983D1*
Y1557D1*
X54323Y1963D1*
X54897D1*
X55303Y1557D1*
Y983D1*
X54897Y577D1*
G37*
G36*
X52357D2*
X51783D1*
X51377Y983D1*
Y1557D1*
X51783Y1963D1*
X52357D1*
X52763Y1557D1*
Y983D1*
X52357Y577D1*
G37*
G36*
X35847D2*
X35273D1*
X34867Y983D1*
Y1557D1*
X35273Y1963D1*
X35847D1*
X36253Y1557D1*
Y983D1*
X35847Y577D1*
G37*
G36*
X33307D2*
X32733D1*
X32327Y983D1*
Y1557D1*
X32733Y1963D1*
X33307D1*
X33713Y1557D1*
Y983D1*
X33307Y577D1*
G37*
G36*
X16797D2*
X16223D1*
X15817Y983D1*
Y1557D1*
X16223Y1963D1*
X16797D1*
X17203Y1557D1*
Y983D1*
X16797Y577D1*
G37*
G36*
X14257D2*
X13683D1*
X13277Y983D1*
Y1557D1*
X13683Y1963D1*
X14257D1*
X14663Y1557D1*
Y983D1*
X14257Y577D1*
G37*
G36*
X11082Y74872D2*
X10508D1*
X10102Y75278D1*
Y75852D1*
X10508Y76258D1*
X11082D1*
X11488Y75852D1*
Y75278D1*
X11082Y74872D1*
G37*
G36*
Y72332D2*
X10508D1*
X10102Y72738D1*
Y73312D1*
X10508Y73718D1*
X11082D1*
X11488Y73312D1*
Y72738D1*
X11082Y72332D1*
G37*
G36*
X1557Y58362D2*
X983D1*
X577Y58768D1*
Y59342D1*
X983Y59748D1*
X1557D1*
X1963Y59342D1*
Y58768D1*
X1557Y58362D1*
G37*
G36*
Y55822D2*
X983D1*
X577Y56228D1*
Y56802D1*
X983Y57208D1*
X1557D1*
X1963Y56802D1*
Y56228D1*
X1557Y55822D1*
G37*
G36*
X11082Y41852D2*
X10508D1*
X10102Y42258D1*
Y42832D1*
X10508Y43238D1*
X11082D1*
X11488Y42832D1*
Y42258D1*
X11082Y41852D1*
G37*
G36*
Y39312D2*
X10508D1*
X10102Y39718D1*
Y40292D1*
X10508Y40698D1*
X11082D1*
X11488Y40292D1*
Y39718D1*
X11082Y39312D1*
G37*
G36*
X1557Y25342D2*
X983D1*
X577Y25748D1*
Y26322D1*
X983Y26728D1*
X1557D1*
X1963Y26322D1*
Y25748D1*
X1557Y25342D1*
G37*
G36*
Y22802D2*
X983D1*
X577Y23208D1*
Y23782D1*
X983Y24188D1*
X1557D1*
X1963Y23782D1*
Y23208D1*
X1557Y22802D1*
G37*
G36*
X11082Y8832D2*
X10508D1*
X10102Y9238D1*
Y9812D1*
X10508Y10218D1*
X11082D1*
X11488Y9812D1*
Y9238D1*
X11082Y8832D1*
G37*
G36*
Y6292D2*
X10508D1*
X10102Y6698D1*
Y7272D1*
X10508Y7678D1*
X11082D1*
X11488Y7272D1*
Y6698D1*
X11082Y6292D1*
G37*
M02*
