G04 DipTrace 2.1.9.3*
%INBottom.gbr*%
%MOIN*%
%ADD13C,0.03*%
%ADD14C,0.1*%
%ADD15R,0.0709X0.0709*%
%ADD16C,0.0709*%
%ADD17C,0.05*%
%ADD18R,0.05X0.05*%
%ADD19C,0.04*%
%FSLAX44Y44*%
%SFA1B1*%
%OFA0B0*%
G04*
G70*
G90*
G75*
G01*
%LNBottom*%
%LPD*%
X7053Y37503D2*
D13*
Y38500D1*
X6500D1*
X14525Y37475D2*
X14553Y37503D1*
Y38500D1*
X14000D1*
X22025Y37500D2*
X22053Y37528D1*
Y38500D1*
X21500D1*
X29525Y37475D2*
X29553Y37503D1*
Y38500D1*
X29000D1*
X23025Y18250D2*
X23805D1*
X24255Y18700D1*
X25800D1*
X8000Y5275D2*
X9448D1*
X9923Y5750D1*
X10750D1*
X29525Y33125D2*
Y30872D1*
X30590Y29807D1*
Y27680D1*
X31020Y27250D1*
X30386Y26616D1*
X28900D1*
X28470Y26186D1*
Y20900D1*
X29525D1*
Y17823D1*
X30590Y16758D1*
Y14730D1*
X31020Y14300D1*
X30386Y13666D1*
X28900D1*
X28470Y13236D1*
Y7900D1*
X29525D1*
X31020Y27250D2*
X33000D1*
X33275Y1375D2*
X32400Y500D1*
X29000D1*
X29525Y7900D2*
Y4745D1*
X29955Y4315D1*
X31685D1*
X32115Y3885D1*
Y1805D1*
X32545Y1375D1*
X33275D1*
X31020Y14300D2*
X33300D1*
X21500Y500D2*
X23065D1*
X23495Y930D1*
Y1350D1*
X23065Y1780D1*
Y3770D1*
X22025Y4810D1*
Y7875D1*
X22050Y20900D2*
X23160Y22010D1*
Y26945D1*
X23590Y27375D1*
X23160Y27805D1*
Y29772D1*
X22025Y30907D1*
Y33150D1*
X23495Y1350D2*
X25725D1*
X22025Y7875D2*
X23090Y8940D1*
Y13920D1*
X23520Y14350D1*
X23090Y14780D1*
Y16795D1*
X22050Y17835D1*
Y20900D1*
X23590Y27375D2*
X25825D1*
X23520Y14350D2*
X25800D1*
X18225Y1400D2*
X17325Y500D1*
X15590D1*
X14550Y7900D2*
X15530Y8880D1*
Y13920D1*
X15960Y14350D1*
X15530D1*
Y14954D1*
X15590Y15014D1*
Y16795D1*
X14550Y17835D1*
Y20875D1*
X15614Y21939D1*
Y26945D1*
X16044Y27375D1*
X15614Y27805D1*
Y29795D1*
X14525Y30885D1*
Y33125D1*
X16044Y27375D2*
X18275D1*
X15960Y14350D2*
X18225D1*
X15590Y500D2*
Y3820D1*
X14550Y4860D1*
Y7900D1*
X7050Y33150D2*
X9185D1*
X9615Y32720D1*
Y28535D1*
X10750Y27400D1*
X7025Y7875D2*
Y4770D1*
X7455Y4340D1*
X10320D1*
X10750Y3910D1*
Y1400D1*
Y14350D2*
X8030Y11630D1*
Y8880D1*
X7025Y7875D1*
X7000Y20875D2*
X9615Y18260D1*
Y15485D1*
X10750Y14350D1*
Y27400D2*
X7634Y24284D1*
Y21509D1*
X7000Y20875D1*
X15525Y31275D2*
X16305D1*
X16755Y31725D1*
X18275D1*
X23025Y31275D2*
X23805D1*
X24255Y31725D1*
X25825D1*
X30525Y31275D2*
X31305D1*
X31630Y31600D1*
X33000D1*
X15525Y18250D2*
X16305D1*
X16755Y18700D1*
X18225D1*
X30525Y18225D2*
X31305D1*
X31730Y18650D1*
X33300D1*
X15525Y5275D2*
X16305D1*
X16780Y5750D1*
X18225D1*
X23000Y5225D2*
X23780D1*
X24255Y5700D1*
X25725D1*
X1775Y23775D2*
X1747Y23803D1*
X500D1*
Y23250D1*
X5500Y4275D2*
X5472Y4303D1*
X4250D1*
Y3750D1*
X29000Y1250D2*
X27270D1*
X26840Y1680D1*
Y8330D1*
X26410D1*
X26840Y8760D1*
Y10033D1*
X27555Y10748D1*
Y13820D1*
X26840Y14535D1*
Y21330D1*
X26410D1*
X26840Y21760D1*
Y23033D1*
X27555Y23748D1*
Y26820D1*
X26815Y27560D1*
Y34280D1*
X26385D1*
X26815Y34710D1*
Y36249D1*
X28000Y37434D1*
Y38500D1*
X26410Y8330D2*
X25830D1*
X25250Y7750D1*
X26410Y21330D2*
X25830D1*
X25250Y20750D1*
X26385Y34280D2*
X25780D1*
X25250Y33750D1*
X27555Y13820D2*
X27985Y14250D1*
X29000D1*
X27555Y26820D2*
X27985Y27250D1*
X29000D1*
X21500Y1250D2*
X19770D1*
X19340Y1680D1*
Y8280D1*
X18910D1*
X19340Y8710D1*
Y10033D1*
X20055Y10748D1*
Y13820D1*
X19410Y14465D1*
Y21104D1*
X18980Y21534D1*
X19410Y21964D1*
Y23498D1*
X20055Y24143D1*
Y25805D1*
X21500Y27250D1*
X18980Y21534D2*
X18534D1*
X17750Y20750D1*
X18910Y8280D2*
X18280D1*
X17750Y7750D1*
X21500Y27250D2*
X19745D1*
X19315Y27680D1*
Y34280D1*
X18885D1*
X19315Y34710D1*
Y36274D1*
X20500Y37459D1*
Y38500D1*
X20055Y13820D2*
X20485Y14250D1*
X21500D1*
X18885Y34280D2*
X18280D1*
X17750Y33750D1*
X14000Y1250D2*
X11814D1*
X11384Y1680D1*
Y6079D1*
X12270Y6964D1*
Y8280D1*
X11840Y8710D1*
Y10033D1*
X12555Y10748D1*
Y13820D1*
X11840Y14535D1*
Y21280D1*
X11410D1*
X11840Y21710D1*
Y23033D1*
X12555Y23748D1*
Y26820D1*
X11815Y27560D1*
Y34280D1*
X11385D1*
X11815Y34710D1*
Y36249D1*
X13000Y37434D1*
Y38500D1*
X11840Y8710D2*
X11210D1*
X10250Y7750D1*
X11410Y21280D2*
X10780D1*
X10250Y20750D1*
X11385Y34280D2*
X10780D1*
X10250Y33750D1*
X12555Y13820D2*
X12985Y14250D1*
X14000D1*
X12555Y26820D2*
X12985Y27250D1*
X14000D1*
X2750Y20750D2*
X3509Y21509D1*
X5850D1*
X6280Y21939D1*
Y25750D1*
X6500Y25970D1*
Y27250D1*
X5850Y21509D2*
X6280Y21079D1*
Y17745D1*
X6710Y17315D1*
X7635D1*
X8065Y16885D1*
Y15210D1*
X7635Y14780D1*
X7030D1*
X6500Y14250D1*
Y1250D2*
X7030Y1780D1*
X8080D1*
X11864Y4755D2*
Y2610D1*
X6500Y14250D2*
X5911Y13661D1*
Y8509D1*
X3509D1*
X2750Y7750D1*
X6500Y27250D2*
X8065Y28815D1*
Y29910D1*
X7635Y30340D1*
X6710D1*
X6280Y30770D1*
Y33850D1*
X5850Y34280D1*
X6280Y34710D1*
Y36580D1*
X5500Y37360D1*
Y38500D1*
X5850Y34280D2*
X3280D1*
X2750Y33750D1*
X5911Y8509D2*
X6341Y8079D1*
Y6105D1*
D19*
X15590Y500D3*
X8080Y1780D3*
X11864Y2610D3*
Y4755D3*
X6341Y6105D3*
D14*
X1750Y36750D3*
X4250Y37750D3*
X9250Y36750D3*
X11750Y37750D3*
X16750Y36750D3*
X19250Y37750D3*
X24250Y36750D3*
X26750Y37750D3*
D15*
X7050Y33150D3*
D16*
Y37500D3*
D15*
X14525Y33125D3*
D16*
Y37475D3*
D15*
X22025Y33150D3*
D16*
Y37500D3*
D15*
X29525Y33125D3*
D16*
Y37475D3*
D14*
X5500Y30275D3*
X8000Y31275D3*
X13025Y30275D3*
X15525Y31275D3*
X20525Y30275D3*
X23025Y31275D3*
X28025Y30275D3*
X30525Y31275D3*
D15*
X10750Y27400D3*
D16*
Y31750D3*
D15*
X18275Y27375D3*
D16*
Y31725D3*
D15*
X25825Y27375D3*
D16*
Y31725D3*
D15*
X33000Y27250D3*
D16*
Y31600D3*
D14*
X1775Y23775D3*
X4275Y24775D3*
X9275Y23775D3*
X11775Y24775D3*
X16775Y23775D3*
X19275Y24775D3*
X24275Y23775D3*
X26775Y24775D3*
D15*
X7000Y20875D3*
D16*
Y25225D3*
D15*
X14550Y20875D3*
D16*
Y25225D3*
D15*
X22050Y20900D3*
D16*
Y25250D3*
D15*
X29525Y20900D3*
D16*
Y25250D3*
D14*
X5500Y17250D3*
X8000Y18250D3*
X13025Y17250D3*
X15525Y18250D3*
X20525Y17250D3*
X23025Y18250D3*
X28025Y17225D3*
X30525Y18225D3*
D15*
X10750Y14350D3*
D16*
Y18700D3*
D15*
X18225Y14350D3*
D16*
Y18700D3*
D15*
X25800Y14350D3*
D16*
Y18700D3*
D15*
X33300Y14300D3*
D16*
Y18650D3*
D14*
X1775Y10775D3*
X4275Y11775D3*
X9275Y10775D3*
X11775Y11775D3*
X16775Y10775D3*
X19275Y11775D3*
X24275Y10775D3*
X26775Y11775D3*
D15*
X7025Y7875D3*
D16*
Y12225D3*
D15*
X14550Y7900D3*
D16*
Y12250D3*
D15*
X22025Y7875D3*
D16*
Y12225D3*
D15*
X29525Y7900D3*
D16*
Y12250D3*
D14*
X5500Y4275D3*
X8000Y5275D3*
X13025Y4275D3*
X15525Y5275D3*
X20500Y4225D3*
X23000Y5225D3*
X28000Y4250D3*
X30500Y5250D3*
D15*
X10750Y1400D3*
D16*
Y5750D3*
D15*
X18225Y1400D3*
D16*
Y5750D3*
D15*
X25725Y1350D3*
D16*
Y5700D3*
D15*
X33275Y1375D3*
D16*
Y5725D3*
D17*
X2750Y33750D3*
D18*
X3750D3*
D17*
X10250D3*
D18*
X11250D3*
D17*
X17750D3*
D18*
X18750D3*
D17*
X25250D3*
D18*
X26250D3*
D17*
X6500Y27250D3*
D18*
X7500D3*
D17*
X14000D3*
D18*
X15000D3*
D17*
X21500D3*
D18*
X22500D3*
D17*
X29000D3*
D18*
X30000D3*
D17*
X2750Y20750D3*
D18*
X3750D3*
D17*
X10250D3*
D18*
X11250D3*
D17*
X17750D3*
D18*
X18750D3*
D17*
X25250D3*
D18*
X26250D3*
D17*
X6500Y14250D3*
D18*
X7500D3*
D17*
X14000D3*
D18*
X15000D3*
D17*
X21500D3*
D18*
X22500D3*
D17*
X29000D3*
D18*
X30000D3*
D17*
X2750Y7750D3*
D18*
X3750D3*
D17*
X10250D3*
D18*
X11250D3*
D17*
X17750D3*
D18*
X18750D3*
D17*
X25250D3*
D18*
X26250D3*
D17*
X6500Y1250D3*
D18*
X7500D3*
D17*
X14000D3*
D18*
X15000D3*
D17*
X21500D3*
D18*
X22500D3*
D17*
X29000D3*
D18*
X30000D3*
G36*
X613Y35977D2*
X387D1*
X227Y36137D1*
Y36363D1*
X387Y36523D1*
X613D1*
X773Y36363D1*
Y36137D1*
X613Y35977D1*
G37*
G36*
X33113Y29477D2*
X32887D1*
X32727Y29637D1*
Y29863D1*
X32887Y30023D1*
X33113D1*
X33273Y29863D1*
Y29637D1*
X33113Y29477D1*
G37*
G36*
X613Y34977D2*
X387D1*
X227Y35137D1*
Y35363D1*
X387Y35523D1*
X613D1*
X773Y35363D1*
Y35137D1*
X613Y34977D1*
G37*
G36*
X29613Y35977D2*
X29387D1*
X29227Y36137D1*
Y36363D1*
X29387Y36523D1*
X29613D1*
X29773Y36363D1*
Y36137D1*
X29613Y35977D1*
G37*
G36*
Y34977D2*
X29387D1*
X29227Y35137D1*
Y35363D1*
X29387Y35523D1*
X29613D1*
X29773Y35363D1*
Y35137D1*
X29613Y34977D1*
G37*
G36*
X33113Y28477D2*
X32887D1*
X32727Y28637D1*
Y28863D1*
X32887Y29023D1*
X33113D1*
X33273Y28863D1*
Y28637D1*
X33113Y28477D1*
G37*
G36*
X29613Y22977D2*
X29387D1*
X29227Y23137D1*
Y23363D1*
X29387Y23523D1*
X29613D1*
X29773Y23363D1*
Y23137D1*
X29613Y22977D1*
G37*
G36*
Y21977D2*
X29387D1*
X29227Y22137D1*
Y22363D1*
X29387Y22523D1*
X29613D1*
X29773Y22363D1*
Y22137D1*
X29613Y21977D1*
G37*
G36*
X33363Y16477D2*
X33137D1*
X32977Y16637D1*
Y16863D1*
X33137Y17023D1*
X33363D1*
X33523Y16863D1*
Y16637D1*
X33363Y16477D1*
G37*
G36*
Y15477D2*
X33137D1*
X32977Y15637D1*
Y15863D1*
X33137Y16023D1*
X33363D1*
X33523Y15863D1*
Y15637D1*
X33363Y15477D1*
G37*
G36*
X29613Y9977D2*
X29387D1*
X29227Y10137D1*
Y10363D1*
X29387Y10523D1*
X29613D1*
X29773Y10363D1*
Y10137D1*
X29613Y9977D1*
G37*
G36*
Y8977D2*
X29387D1*
X29227Y9137D1*
Y9363D1*
X29387Y9523D1*
X29613D1*
X29773Y9363D1*
Y9137D1*
X29613Y8977D1*
G37*
G36*
X33363Y3477D2*
X33137D1*
X32977Y3637D1*
Y3863D1*
X33137Y4023D1*
X33363D1*
X33523Y3863D1*
Y3637D1*
X33363Y3477D1*
G37*
G36*
Y2477D2*
X33137D1*
X32977Y2637D1*
Y2863D1*
X33137Y3023D1*
X33363D1*
X33523Y2863D1*
Y2637D1*
X33363Y2477D1*
G37*
G36*
X5613Y38227D2*
X5387D1*
X5227Y38387D1*
Y38613D1*
X5387Y38773D1*
X5613D1*
X5773Y38613D1*
Y38387D1*
X5613Y38227D1*
G37*
G36*
X6613D2*
X6387D1*
X6227Y38387D1*
Y38613D1*
X6387Y38773D1*
X6613D1*
X6773Y38613D1*
Y38387D1*
X6613Y38227D1*
G37*
G36*
X13113D2*
X12887D1*
X12727Y38387D1*
Y38613D1*
X12887Y38773D1*
X13113D1*
X13273Y38613D1*
Y38387D1*
X13113Y38227D1*
G37*
G36*
X14113D2*
X13887D1*
X13727Y38387D1*
Y38613D1*
X13887Y38773D1*
X14113D1*
X14273Y38613D1*
Y38387D1*
X14113Y38227D1*
G37*
G36*
X20613D2*
X20387D1*
X20227Y38387D1*
Y38613D1*
X20387Y38773D1*
X20613D1*
X20773Y38613D1*
Y38387D1*
X20613Y38227D1*
G37*
G36*
X21613D2*
X21387D1*
X21227Y38387D1*
Y38613D1*
X21387Y38773D1*
X21613D1*
X21773Y38613D1*
Y38387D1*
X21613Y38227D1*
G37*
G36*
X28113D2*
X27887D1*
X27727Y38387D1*
Y38613D1*
X27887Y38773D1*
X28113D1*
X28273Y38613D1*
Y38387D1*
X28113Y38227D1*
G37*
G36*
X29113D2*
X28887D1*
X28727Y38387D1*
Y38613D1*
X28887Y38773D1*
X29113D1*
X29273Y38613D1*
Y38387D1*
X29113Y38227D1*
G37*
G36*
X28113Y227D2*
X27887D1*
X27727Y387D1*
Y613D1*
X27887Y773D1*
X28113D1*
X28273Y613D1*
Y387D1*
X28113Y227D1*
G37*
G36*
X29113D2*
X28887D1*
X28727Y387D1*
Y613D1*
X28887Y773D1*
X29113D1*
X29273Y613D1*
Y387D1*
X29113Y227D1*
G37*
G36*
X21613D2*
X21387D1*
X21227Y387D1*
Y613D1*
X21387Y773D1*
X21613D1*
X21773Y613D1*
Y387D1*
X21613Y227D1*
G37*
G36*
X20613D2*
X20387D1*
X20227Y387D1*
Y613D1*
X20387Y773D1*
X20613D1*
X20773Y613D1*
Y387D1*
X20613Y227D1*
G37*
G36*
X14113D2*
X13887D1*
X13727Y387D1*
Y613D1*
X13887Y773D1*
X14113D1*
X14273Y613D1*
Y387D1*
X14113Y227D1*
G37*
G36*
X13113D2*
X12887D1*
X12727Y387D1*
Y613D1*
X12887Y773D1*
X13113D1*
X13273Y613D1*
Y387D1*
X13113Y227D1*
G37*
G36*
X6613D2*
X6387D1*
X6227Y387D1*
Y613D1*
X6387Y773D1*
X6613D1*
X6773Y613D1*
Y387D1*
X6613Y227D1*
G37*
G36*
X5613D2*
X5387D1*
X5227Y387D1*
Y613D1*
X5387Y773D1*
X5613D1*
X5773Y613D1*
Y387D1*
X5613Y227D1*
G37*
G36*
X4363Y29477D2*
X4137D1*
X3977Y29637D1*
Y29863D1*
X4137Y30023D1*
X4363D1*
X4523Y29863D1*
Y29637D1*
X4363Y29477D1*
G37*
G36*
Y28477D2*
X4137D1*
X3977Y28637D1*
Y28863D1*
X4137Y29023D1*
X4363D1*
X4523Y28863D1*
Y28637D1*
X4363Y28477D1*
G37*
G36*
X613Y22977D2*
X387D1*
X227Y23137D1*
Y23363D1*
X387Y23523D1*
X613D1*
X773Y23363D1*
Y23137D1*
X613Y22977D1*
G37*
G36*
Y21977D2*
X387D1*
X227Y22137D1*
Y22363D1*
X387Y22523D1*
X613D1*
X773Y22363D1*
Y22137D1*
X613Y21977D1*
G37*
G36*
X4363Y16477D2*
X4137D1*
X3977Y16637D1*
Y16863D1*
X4137Y17023D1*
X4363D1*
X4523Y16863D1*
Y16637D1*
X4363Y16477D1*
G37*
G36*
Y15477D2*
X4137D1*
X3977Y15637D1*
Y15863D1*
X4137Y16023D1*
X4363D1*
X4523Y15863D1*
Y15637D1*
X4363Y15477D1*
G37*
G36*
X613Y9977D2*
X387D1*
X227Y10137D1*
Y10363D1*
X387Y10523D1*
X613D1*
X773Y10363D1*
Y10137D1*
X613Y9977D1*
G37*
G36*
Y8977D2*
X387D1*
X227Y9137D1*
Y9363D1*
X387Y9523D1*
X613D1*
X773Y9363D1*
Y9137D1*
X613Y8977D1*
G37*
G36*
X4363Y3477D2*
X4137D1*
X3977Y3637D1*
Y3863D1*
X4137Y4023D1*
X4363D1*
X4523Y3863D1*
Y3637D1*
X4363Y3477D1*
G37*
G36*
Y2477D2*
X4137D1*
X3977Y2637D1*
Y2863D1*
X4137Y3023D1*
X4363D1*
X4523Y2863D1*
Y2637D1*
X4363Y2477D1*
G37*
M02*
