G04 DipTrace 2.1.9.2*
%INBottomSilk.gbr*%
%MOMM*%
%ADD10C,0.25*%
%ADD11C,0.14*%
%ADD12C,0.076*%
%ADD13C,0.762*%
%ADD14C,2.54*%
%ADD15R,1.8X1.8*%
%ADD16C,1.8*%
%ADD17C,1.27*%
%ADD18R,1.27X1.27*%
%ADD19C,1.016*%
%ADD20C,0.483*%
%ADD21C,3.988*%
%ADD22C,1.702*%
%ADD23C,1.499*%
%ADD24C,1.2*%
%ADD25C,0.711*%
%ADD26C,0.9*%
%ADD27C,0.203*%
%ADD28C,1.219*%
%ADD29C,0.813*%
%ADD30R,1.473X1.473*%
%ADD31R,1.067X1.067*%
%ADD32C,1.473*%
%ADD33C,1.067*%
%ADD34C,2.003*%
%ADD35C,1.597*%
%ADD36R,2.003X2.003*%
%ADD37R,1.597X1.597*%
%ADD38C,2.743*%
%ADD39C,2.337*%
%ADD40C,0.196*%
%ADD41C,0.353*%
%ADD42C,0.275*%
%FSLAX53Y53*%
%SFA1B1*%
%OFA0B0*%
G04*
G71*
G90*
G75*
G01*
%LNBotSilk*%
%LPD*%
X72715Y52126D2*
D41*
Y49829D1*
Y50923D2*
X72386Y51251D1*
D2*
X72166Y51360D1*
D2*
X71838D1*
D2*
X71621Y51251D1*
D2*
X71512Y50923D1*
D2*
Y49829D1*
X70478Y52126D2*
Y50266D1*
D2*
X70369Y49940D1*
D2*
X70149Y49829D1*
D2*
X69932D1*
X70806Y51360D2*
X70040D1*
X68897Y52126D2*
Y50266D1*
D2*
X68789Y49940D1*
D2*
X68569Y49829D1*
D2*
X68352D1*
X69226Y51360D2*
X68460D1*
X67646D2*
Y49063D1*
Y51032D2*
X67426Y51249D1*
D2*
X67208Y51360D1*
D2*
X66880D1*
D2*
X66660Y51249D1*
D2*
X66443Y51032D1*
D2*
X66332Y50703D1*
D2*
Y50483D1*
D2*
X66443Y50157D1*
D2*
X66660Y49937D1*
D2*
X66880Y49829D1*
D2*
X67208D1*
D2*
X67426Y49937D1*
D2*
X67646Y50157D1*
X65515Y51360D2*
X65626Y51249D1*
D2*
X65515Y51140D1*
D2*
X65406Y51249D1*
D2*
X65515Y51360D1*
Y50049D2*
X65626Y49937D1*
D2*
X65515Y49829D1*
D2*
X65406Y49937D1*
D2*
X65515Y50049D1*
X64700Y49829D2*
X63169Y52123D1*
X62463Y49829D2*
X60932Y52123D1*
X58914Y51251D2*
Y49500D1*
D2*
X59023Y49174D1*
D2*
X59131Y49063D1*
D2*
X59351Y48954D1*
D2*
X59680D1*
D2*
X59897Y49063D1*
X58914Y50923D2*
X59131Y51140D1*
D2*
X59351Y51251D1*
D2*
X59680D1*
D2*
X59897Y51140D1*
D2*
X60117Y50923D1*
D2*
X60226Y50594D1*
D2*
Y50375D1*
D2*
X60117Y50049D1*
D2*
X59897Y49829D1*
D2*
X59680Y49720D1*
D2*
X59351D1*
D2*
X59131Y49829D1*
D2*
X58914Y50049D1*
X58208Y52126D2*
X58100Y52017D1*
D2*
X57988Y52126D1*
D2*
X58100Y52237D1*
D2*
X58208Y52126D1*
X58100Y51360D2*
Y49829D1*
X56954Y52126D2*
Y50266D1*
D2*
X56845Y49940D1*
D2*
X56626Y49829D1*
D2*
X56408D1*
X57283Y51360D2*
X56517D1*
X55702Y52126D2*
Y49829D1*
Y50923D2*
X55374Y51251D1*
D2*
X55154Y51360D1*
D2*
X54826D1*
D2*
X54608Y51251D1*
D2*
X54500Y50923D1*
D2*
Y49829D1*
X53794Y51360D2*
Y50266D1*
D2*
X53685Y49940D1*
D2*
X53465Y49829D1*
D2*
X53137D1*
D2*
X52919Y49940D1*
D2*
X52591Y50266D1*
Y51360D2*
Y49829D1*
X51885Y52126D2*
Y49829D1*
Y51032D2*
X51665Y51251D1*
D2*
X51448Y51360D1*
D2*
X51119D1*
D2*
X50902Y51251D1*
D2*
X50682Y51032D1*
D2*
X50574Y50703D1*
D2*
Y50486D1*
D2*
X50682Y50157D1*
D2*
X50902Y49940D1*
D2*
X51119Y49829D1*
D2*
X51448D1*
D2*
X51665Y49940D1*
D2*
X51885Y50157D1*
X49759Y50049D2*
X49868Y49937D1*
D2*
X49759Y49829D1*
D2*
X49648Y49937D1*
D2*
X49759Y50049D1*
X47628Y51032D2*
X47848Y51251D1*
D2*
X48068Y51360D1*
D2*
X48394D1*
D2*
X48613Y51251D1*
D2*
X48831Y51032D1*
D2*
X48942Y50703D1*
D2*
Y50486D1*
D2*
X48831Y50157D1*
D2*
X48613Y49940D1*
D2*
X48394Y49829D1*
D2*
X48068D1*
D2*
X47848Y49940D1*
D2*
X47628Y50157D1*
X46376Y51360D2*
X46594Y51251D1*
D2*
X46813Y51032D1*
D2*
X46922Y50703D1*
D2*
Y50486D1*
D2*
X46813Y50157D1*
D2*
X46594Y49940D1*
D2*
X46376Y49829D1*
D2*
X46048D1*
D2*
X45828Y49940D1*
D2*
X45611Y50157D1*
D2*
X45499Y50486D1*
D2*
Y50703D1*
D2*
X45611Y51032D1*
D2*
X45828Y51251D1*
D2*
X46048Y51360D1*
D2*
X46376D1*
X44793D2*
Y49829D1*
Y50923D2*
X44465Y51251D1*
D2*
X44245Y51360D1*
D2*
X43919D1*
D2*
X43699Y51251D1*
D2*
X43591Y50923D1*
D2*
Y49829D1*
Y50923D2*
X43262Y51251D1*
D2*
X43042Y51360D1*
D2*
X42716D1*
D2*
X42497Y51251D1*
D2*
X42385Y50923D1*
D2*
Y49829D1*
X41679D2*
X40148Y52123D1*
X39442Y51360D2*
Y49829D1*
Y50703D2*
X39331Y51032D1*
D2*
X39114Y51251D1*
D2*
X38894Y51360D1*
D2*
X38565D1*
X37860Y50703D2*
X36548D1*
D2*
Y50923D1*
D2*
X36657Y51143D1*
D2*
X36765Y51251D1*
D2*
X36985Y51360D1*
D2*
X37314D1*
D2*
X37531Y51251D1*
D2*
X37751Y51032D1*
D2*
X37860Y50703D1*
D2*
Y50486D1*
D2*
X37751Y50157D1*
D2*
X37531Y49940D1*
D2*
X37314Y49829D1*
D2*
X36985D1*
D2*
X36765Y49940D1*
D2*
X36548Y50157D1*
X34531Y52126D2*
Y49829D1*
Y51032D2*
X34748Y51251D1*
D2*
X34968Y51360D1*
D2*
X35296D1*
D2*
X35514Y51251D1*
D2*
X35734Y51032D1*
D2*
X35842Y50703D1*
D2*
Y50486D1*
D2*
X35734Y50157D1*
D2*
X35514Y49940D1*
D2*
X35296Y49829D1*
D2*
X34968D1*
D2*
X34748Y49940D1*
D2*
X34531Y50157D1*
X33825Y51360D2*
X33168Y49829D1*
D2*
X32513Y51360D1*
X31807Y50703D2*
X30496D1*
D2*
Y50923D1*
D2*
X30605Y51143D1*
D2*
X30713Y51251D1*
D2*
X30933Y51360D1*
D2*
X31262D1*
D2*
X31479Y51251D1*
D2*
X31699Y51032D1*
D2*
X31807Y50703D1*
D2*
Y50486D1*
D2*
X31699Y50157D1*
D2*
X31479Y49940D1*
D2*
X31262Y49829D1*
D2*
X30933D1*
D2*
X30713Y49940D1*
D2*
X30496Y50157D1*
X29790Y51360D2*
Y49829D1*
Y50703D2*
X29679Y51032D1*
D2*
X29462Y51251D1*
D2*
X29242Y51360D1*
D2*
X28913D1*
X27005Y51032D2*
X27113Y51251D1*
D2*
X27442Y51360D1*
D2*
X27770D1*
D2*
X28099Y51251D1*
D2*
X28207Y51032D1*
D2*
X28099Y50814D1*
D2*
X27879Y50703D1*
D2*
X27333Y50594D1*
D2*
X27113Y50486D1*
D2*
X27005Y50266D1*
D2*
Y50157D1*
D2*
X27113Y49940D1*
D2*
X27442Y49829D1*
D2*
X27770D1*
D2*
X28099Y49940D1*
D2*
X28207Y50157D1*
X26299Y49829D2*
X24767Y52123D1*
X24061Y52126D2*
X23953Y52017D1*
D2*
X23842Y52126D1*
D2*
X23953Y52237D1*
D2*
X24061Y52126D1*
X23953Y51360D2*
Y49829D1*
X21933Y51032D2*
X22042Y51251D1*
D2*
X22370Y51360D1*
D2*
X22699D1*
D2*
X23027Y51251D1*
D2*
X23136Y51032D1*
D2*
X23027Y50814D1*
D2*
X22807Y50703D1*
D2*
X22261Y50594D1*
D2*
X22042Y50486D1*
D2*
X21933Y50266D1*
D2*
Y50157D1*
D2*
X22042Y49940D1*
D2*
X22370Y49829D1*
D2*
X22699D1*
D2*
X23027Y49940D1*
D2*
X23136Y50157D1*
X20681Y51360D2*
X20899Y51251D1*
D2*
X21118Y51032D1*
D2*
X21227Y50703D1*
D2*
Y50486D1*
D2*
X21118Y50157D1*
D2*
X20899Y49940D1*
D2*
X20681Y49829D1*
D2*
X20353D1*
D2*
X20133Y49940D1*
D2*
X19916Y50157D1*
D2*
X19804Y50486D1*
D2*
Y50703D1*
D2*
X19916Y51032D1*
D2*
X20133Y51251D1*
D2*
X20353Y51360D1*
D2*
X20681D1*
X19099Y52126D2*
Y49829D1*
X18004Y51360D2*
X19099Y50266D1*
X18661Y50703D2*
X17896Y49829D1*
X17190Y50703D2*
X15878D1*
D2*
Y50923D1*
D2*
X15987Y51143D1*
D2*
X16096Y51251D1*
D2*
X16315Y51360D1*
D2*
X16644D1*
D2*
X16861Y51251D1*
D2*
X17081Y51032D1*
D2*
X17190Y50703D1*
D2*
Y50486D1*
D2*
X17081Y50157D1*
D2*
X16861Y49940D1*
D2*
X16644Y49829D1*
D2*
X16315D1*
D2*
X16096Y49940D1*
D2*
X15878Y50157D1*
X15061Y51360D2*
X14407Y49829D1*
D2*
X14624Y49392D1*
D2*
X14844Y49172D1*
D2*
X15061Y49063D1*
D2*
X15172D1*
X13750Y51360D2*
X14407Y49829D1*
X13044Y52126D2*
Y49829D1*
Y51032D2*
X12824Y51251D1*
D2*
X12607Y51360D1*
D2*
X12278D1*
D2*
X12061Y51251D1*
D2*
X11841Y51032D1*
D2*
X11732Y50703D1*
D2*
Y50486D1*
D2*
X11841Y50157D1*
D2*
X12061Y49940D1*
D2*
X12278Y49829D1*
D2*
X12607D1*
D2*
X12824Y49940D1*
D2*
X13044Y50157D1*
X10481Y51360D2*
X10698Y51251D1*
D2*
X10918Y51032D1*
D2*
X11027Y50703D1*
D2*
Y50486D1*
D2*
X10918Y50157D1*
D2*
X10698Y49940D1*
D2*
X10481Y49829D1*
D2*
X10152D1*
D2*
X9932Y49940D1*
D2*
X9715Y50157D1*
D2*
X9604Y50486D1*
D2*
Y50703D1*
D2*
X9715Y51032D1*
D2*
X9932Y51251D1*
D2*
X10152Y51360D1*
D2*
X10481D1*
X7587D2*
Y49829D1*
Y51032D2*
X7804Y51251D1*
D2*
X8024Y51360D1*
D2*
X8350D1*
D2*
X8570Y51251D1*
D2*
X8787Y51032D1*
D2*
X8898Y50703D1*
D2*
Y50486D1*
D2*
X8787Y50157D1*
D2*
X8570Y49940D1*
D2*
X8350Y49829D1*
D2*
X8024D1*
D2*
X7804Y49940D1*
D2*
X7587Y50157D1*
X6881Y51360D2*
Y49829D1*
Y50703D2*
X6769Y51032D1*
D2*
X6552Y51251D1*
D2*
X6332Y51360D1*
D2*
X6004D1*
X3986Y52126D2*
Y49829D1*
Y51032D2*
X4204Y51251D1*
D2*
X4424Y51360D1*
D2*
X4752D1*
D2*
X4969Y51251D1*
D2*
X5189Y51032D1*
D2*
X5298Y50703D1*
D2*
Y50486D1*
D2*
X5189Y50157D1*
D2*
X4969Y49940D1*
D2*
X4752Y49829D1*
D2*
X4424D1*
D2*
X4204Y49940D1*
D2*
X3986Y50157D1*
X16662Y48233D2*
D42*
X16746Y48402D1*
D2*
X17002Y48486D1*
D2*
X17171D1*
D2*
X17426Y48402D1*
D2*
X17597Y48146D1*
D2*
X17682Y47722D1*
D2*
Y47297D1*
D2*
X17597Y46957D1*
D2*
X17426Y46786D1*
D2*
X17171Y46701D1*
D2*
X17086D1*
D2*
X16833Y46786D1*
D2*
X16662Y46957D1*
D2*
X16577Y47212D1*
D2*
Y47297D1*
D2*
X16662Y47552D1*
D2*
X16833Y47722D1*
D2*
X17086Y47806D1*
D2*
X17171D1*
D2*
X17426Y47722D1*
D2*
X17597Y47552D1*
D2*
X17682Y47297D1*
X16028Y47893D2*
X15093Y46701D1*
Y47893D2*
X16028Y46701D1*
X13693D2*
Y48486D1*
D2*
X14544Y47297D1*
D2*
X13268D1*
X12719Y47893D2*
Y46701D1*
Y47382D2*
X12633Y47637D1*
D2*
X12464Y47808D1*
D2*
X12293Y47893D1*
D2*
X12037D1*
X11402Y48062D2*
Y48146D1*
D2*
X11317Y48317D1*
D2*
X11233Y48402D1*
D2*
X11062Y48486D1*
D2*
X10722D1*
D2*
X10553Y48402D1*
D2*
X10468Y48317D1*
D2*
X10382Y48146D1*
D2*
Y47977D1*
D2*
X10468Y47806D1*
D2*
X10637Y47552D1*
D2*
X11488Y46701D1*
D2*
X10297D1*
M02*
