solid ascii
  facet normal -0.000000e+000 1.000000e+000 0.000000e+000
    outer loop
      vertex   -9.502358e-002 -3.115316e-002 6.000000e-001
      vertex   -3.318059e-002 -3.115316e-002 6.000000e-001
      vertex   -9.502358e-002 -3.115316e-002 4.500000e-001
    endloop
  endfacet
  facet normal -0.000000e+000 1.000000e+000 0.000000e+000
    outer loop
      vertex   -9.502358e-002 -3.115316e-002 4.500000e-001
      vertex   -3.318059e-002 -3.115316e-002 6.000000e-001
      vertex   -3.318059e-002 -3.115316e-002 4.500000e-001
    endloop
  endfacet
  facet normal 0.000000e+000 1.000000e+000 -0.000000e+000
    outer loop
      vertex   9.502358e-002 -3.115316e-002 4.500000e-001
      vertex   2.755832e-002 -3.115316e-002 4.500000e-001
      vertex   9.502358e-002 -3.115316e-002 6.000000e-001
    endloop
  endfacet
  facet normal 0.000000e+000 1.000000e+000 -0.000000e+000
    outer loop
      vertex   9.502358e-002 -3.115316e-002 6.000000e-001
      vertex   2.755832e-002 -3.115316e-002 4.500000e-001
      vertex   2.755832e-002 -3.115316e-002 6.000000e-001
    endloop
  endfacet
  facet normal 0.000000e+000 -1.000000e+000 0.000000e+000
    outer loop
      vertex   -9.547355e-002 2.974562e-002 4.500000e-001
      vertex   -3.318059e-002 2.974562e-002 4.500000e-001
      vertex   -9.547355e-002 2.974562e-002 6.000000e-001
    endloop
  endfacet
  facet normal 0.000000e+000 -1.000000e+000 0.000000e+000
    outer loop
      vertex   -9.547355e-002 2.974562e-002 6.000000e-001
      vertex   -3.318059e-002 2.974562e-002 4.500000e-001
      vertex   -3.318059e-002 2.974562e-002 6.000000e-001
    endloop
  endfacet
  facet normal -0.000000e+000 -1.000000e+000 -0.000000e+000
    outer loop
      vertex   9.547355e-002 2.974562e-002 6.000000e-001
      vertex   2.755832e-002 2.974562e-002 6.000000e-001
      vertex   9.547355e-002 2.974562e-002 4.500000e-001
    endloop
  endfacet
  facet normal -0.000000e+000 -1.000000e+000 -0.000000e+000
    outer loop
      vertex   9.547355e-002 2.974562e-002 4.500000e-001
      vertex   2.755832e-002 2.974562e-002 6.000000e-001
      vertex   2.755832e-002 2.974562e-002 4.500000e-001
    endloop
  endfacet
  facet normal 0.000000e+000 0.000000e+000 1.000000e+000
    outer loop
      vertex   9.547355e-002 2.974562e-002 6.000000e-001
      vertex   8.929428e-002 4.501702e-002 6.000000e-001
      vertex   2.755832e-002 2.974562e-002 6.000000e-001
    endloop
  endfacet
  facet normal 0.000000e+000 -0.000000e+000 1.000000e+000
    outer loop
      vertex   2.755832e-002 2.974562e-002 6.000000e-001
      vertex   8.929428e-002 4.501702e-002 6.000000e-001
      vertex   8.069157e-002 5.906666e-002 6.000000e-001
    endloop
  endfacet
  facet normal -0.000000e+000 0.000000e+000 1.000000e+000
    outer loop
      vertex   6.989890e-002 7.151324e-002 6.000000e-001
      vertex   2.755832e-002 2.974562e-002 6.000000e-001
      vertex   8.069157e-002 5.906666e-002 6.000000e-001
    endloop
  endfacet
  facet normal 0.000000e+000 0.000000e+000 1.000000e+000
    outer loop
      vertex   6.989890e-002 7.151324e-002 6.000000e-001
      vertex   5.720918e-002 8.201896e-002 6.000000e-001
      vertex   2.755832e-002 2.974562e-002 6.000000e-001
    endloop
  endfacet
  facet normal 0.000000e+000 -0.000000e+000 1.000000e+000
    outer loop
      vertex   2.755832e-002 2.974562e-002 6.000000e-001
      vertex   5.720918e-002 8.201896e-002 6.000000e-001
      vertex   4.296680e-002 9.029869e-002 6.000000e-001
    endloop
  endfacet
  facet normal -0.000000e+000 0.000000e+000 1.000000e+000
    outer loop
      vertex   2.755832e-002 9.612772e-002 6.000000e-001
      vertex   2.755832e-002 2.974562e-002 6.000000e-001
      vertex   4.296680e-002 9.029869e-002 6.000000e-001
    endloop
  endfacet
  facet normal 0.000000e+000 0.000000e+000 1.000000e+000
    outer loop
      vertex   9.502358e-002 -3.115316e-002 6.000000e-001
      vertex   2.755832e-002 -3.115316e-002 6.000000e-001
      vertex   8.873316e-002 -4.611319e-002 6.000000e-001
    endloop
  endfacet
  facet normal 0.000000e+000 0.000000e+000 1.000000e+000
    outer loop
      vertex   8.873316e-002 -4.611319e-002 6.000000e-001
      vertex   2.755832e-002 -3.115316e-002 6.000000e-001
      vertex   8.010576e-002 -5.985872e-002 6.000000e-001
    endloop
  endfacet
  facet normal 0.000000e+000 0.000000e+000 1.000000e+000
    outer loop
      vertex   8.010576e-002 -5.985872e-002 6.000000e-001
      vertex   2.755832e-002 -3.115316e-002 6.000000e-001
      vertex   6.936861e-002 -7.202775e-002 6.000000e-001
    endloop
  endfacet
  facet normal 0.000000e+000 0.000000e+000 1.000000e+000
    outer loop
      vertex   6.936861e-002 -7.202775e-002 6.000000e-001
      vertex   2.755832e-002 -3.115316e-002 6.000000e-001
      vertex   5.680448e-002 -8.229977e-002 6.000000e-001
    endloop
  endfacet
  facet normal 0.000000e+000 0.000000e+000 1.000000e+000
    outer loop
      vertex   5.680448e-002 -8.229977e-002 6.000000e-001
      vertex   2.755832e-002 -3.115316e-002 6.000000e-001
      vertex   4.274428e-002 -9.040424e-002 6.000000e-001
    endloop
  endfacet
  facet normal 0.000000e+000 0.000000e+000 1.000000e+000
    outer loop
      vertex   4.274428e-002 -9.040424e-002 6.000000e-001
      vertex   2.755832e-002 -3.115316e-002 6.000000e-001
      vertex   2.755832e-002 -9.612772e-002 6.000000e-001
    endloop
  endfacet
  facet normal -1.000000e+000 0.000000e+000 -0.000000e+000
    outer loop
      vertex   2.755832e-002 2.974562e-002 6.000000e-001
      vertex   2.755832e-002 9.612772e-002 6.000000e-001
      vertex   2.755832e-002 2.974562e-002 4.500000e-001
    endloop
  endfacet
  facet normal -1.000000e+000 0.000000e+000 0.000000e+000
    outer loop
      vertex   2.755832e-002 2.974562e-002 4.500000e-001
      vertex   2.755832e-002 9.612772e-002 6.000000e-001
      vertex   2.755832e-002 9.612772e-002 4.500000e-001
    endloop
  endfacet
  facet normal -1.000000e+000 1.681795e-016 0.000000e+000
    outer loop
      vertex   2.755832e-002 -3.115316e-002 4.500000e-001
      vertex   2.755832e-002 -9.612772e-002 4.500000e-001
      vertex   2.755832e-002 -3.115316e-002 6.000000e-001
    endloop
  endfacet
  facet normal -1.000000e+000 1.681795e-016 0.000000e+000
    outer loop
      vertex   2.755832e-002 -3.115316e-002 6.000000e-001
      vertex   2.755832e-002 -9.612772e-002 4.500000e-001
      vertex   2.755832e-002 -9.612772e-002 6.000000e-001
    endloop
  endfacet
  facet normal -5.867993e-015 0.000000e+000 1.000000e+000
    outer loop
      vertex   -3.318059e-002 -9.433477e-002 4.500000e-001
      vertex   -1.828297e-002 -9.831446e-002 4.500000e-001
      vertex   -3.318059e-002 -3.115316e-002 4.500000e-001
    endloop
  endfacet
  facet normal 1.427884e-016 1.333303e-015 1.000000e+000
    outer loop
      vertex   -3.318059e-002 -3.115316e-002 4.500000e-001
      vertex   -1.828297e-002 -9.831446e-002 4.500000e-001
      vertex   -2.950619e-003 -9.995646e-002 4.500000e-001
    endloop
  endfacet
  facet normal -6.191871e-017 1.298022e-015 1.000000e+000
    outer loop
      vertex   2.755832e-002 -3.115316e-002 4.500000e-001
      vertex   -2.950619e-003 -9.995646e-002 4.500000e-001
      vertex   1.245189e-002 -9.922172e-002 4.500000e-001
    endloop
  endfacet
  facet normal 5.786883e-015 -9.732353e-031 1.000000e+000
    outer loop
      vertex   2.755832e-002 -9.612772e-002 4.500000e-001
      vertex   2.755832e-002 -3.115316e-002 4.500000e-001
      vertex   1.245189e-002 -9.922172e-002 4.500000e-001
    endloop
  endfacet
  facet normal 0.000000e+000 -5.822353e-015 1.000000e+000
    outer loop
      vertex   9.502358e-002 -3.115316e-002 4.500000e-001
      vertex   9.868911e-002 -1.613876e-002 4.500000e-001
      vertex   2.755832e-002 -3.115316e-002 4.500000e-001
    endloop
  endfacet
  facet normal -1.251430e-015 1.063040e-016 1.000000e+000
    outer loop
      vertex   2.755832e-002 -3.115316e-002 4.500000e-001
      vertex   9.868911e-002 -1.613876e-002 4.500000e-001
      vertex   9.999727e-002 -7.388587e-004 4.500000e-001
    endloop
  endfacet
  facet normal -1.243469e-015 -8.714192e-017 1.000000e+000
    outer loop
      vertex   2.755832e-002 2.974562e-002 4.500000e-001
      vertex   9.999727e-002 -7.388587e-004 4.500000e-001
      vertex   9.891681e-002 1.467869e-002 4.500000e-001
    endloop
  endfacet
  facet normal 0.000000e+000 5.802056e-015 1.000000e+000
    outer loop
      vertex   9.547355e-002 2.974562e-002 4.500000e-001
      vertex   2.755832e-002 2.974562e-002 4.500000e-001
      vertex   9.891681e-002 1.467869e-002 4.500000e-001
    endloop
  endfacet
  facet normal 5.786883e-015 0.000000e+000 1.000000e+000
    outer loop
      vertex   2.755832e-002 9.612772e-002 4.500000e-001
      vertex   1.245189e-002 9.922172e-002 4.500000e-001
      vertex   2.755832e-002 2.974562e-002 4.500000e-001
    endloop
  endfacet
  facet normal -6.065113e-017 -1.271449e-015 1.000000e+000
    outer loop
      vertex   2.755832e-002 2.974562e-002 4.500000e-001
      vertex   1.245189e-002 9.922172e-002 4.500000e-001
      vertex   -2.950619e-003 9.995646e-002 4.500000e-001
    endloop
  endfacet
  facet normal 1.397875e-016 -1.305281e-015 1.000000e+000
    outer loop
      vertex   -3.318059e-002 2.974562e-002 4.500000e-001
      vertex   -2.950619e-003 9.995646e-002 4.500000e-001
      vertex   -1.828297e-002 9.831446e-002 4.500000e-001
    endloop
  endfacet
  facet normal -5.867993e-015 0.000000e+000 1.000000e+000
    outer loop
      vertex   -3.318059e-002 9.433477e-002 4.500000e-001
      vertex   -3.318059e-002 2.974562e-002 4.500000e-001
      vertex   -1.828297e-002 9.831446e-002 4.500000e-001
    endloop
  endfacet
  facet normal 0.000000e+000 5.802056e-015 1.000000e+000
    outer loop
      vertex   -9.547355e-002 2.974562e-002 4.500000e-001
      vertex   -9.891681e-002 1.467869e-002 4.500000e-001
      vertex   -3.318059e-002 2.974562e-002 4.500000e-001
    endloop
  endfacet
  facet normal 1.351556e-015 -9.471664e-017 1.000000e+000
    outer loop
      vertex   -3.318059e-002 2.974562e-002 4.500000e-001
      vertex   -9.891681e-002 1.467869e-002 4.500000e-001
      vertex   -9.999727e-002 -7.388587e-004 4.500000e-001
    endloop
  endfacet
  facet normal 1.360967e-015 1.156087e-016 1.000000e+000
    outer loop
      vertex   -3.318059e-002 -3.115316e-002 4.500000e-001
      vertex   -9.999727e-002 -7.388587e-004 4.500000e-001
      vertex   -9.868911e-002 -1.613876e-002 4.500000e-001
    endloop
  endfacet
  facet normal 0.000000e+000 -5.822353e-015 1.000000e+000
    outer loop
      vertex   -9.502358e-002 -3.115316e-002 4.500000e-001
      vertex   -3.318059e-002 -3.115316e-002 4.500000e-001
      vertex   -9.868911e-002 -1.613876e-002 4.500000e-001
    endloop
  endfacet
  facet normal 0.000000e+000 0.000000e+000 1.000000e+000
    outer loop
      vertex   2.755832e-002 2.974562e-002 4.500000e-001
      vertex   -3.318059e-002 2.974562e-002 4.500000e-001
      vertex   2.755832e-002 -3.115316e-002 4.500000e-001
    endloop
  endfacet
  facet normal -1.206797e-015 -2.165421e-031 1.000000e+000
    outer loop
      vertex   9.999727e-002 -7.388587e-004 4.500000e-001
      vertex   2.755832e-002 2.974562e-002 4.500000e-001
      vertex   2.755832e-002 -3.115316e-002 4.500000e-001
    endloop
  endfacet
  facet normal 0.000000e+000 -1.245095e-015 1.000000e+000
    outer loop
      vertex   -3.318059e-002 2.974562e-002 4.500000e-001
      vertex   2.755832e-002 2.974562e-002 4.500000e-001
      vertex   -2.950619e-003 9.995646e-002 4.500000e-001
    endloop
  endfacet
  facet normal 1.308343e-015 -0.000000e+000 1.000000e+000
    outer loop
      vertex   -9.999727e-002 -7.388587e-004 4.500000e-001
      vertex   -3.318059e-002 -3.115316e-002 4.500000e-001
      vertex   -3.318059e-002 2.974562e-002 4.500000e-001
    endloop
  endfacet
  facet normal -0.000000e+000 0.000000e+000 1.000000e+000
    outer loop
      vertex   -3.318059e-002 2.974562e-002 4.500000e-001
      vertex   -3.318059e-002 -3.115316e-002 4.500000e-001
      vertex   2.755832e-002 -3.115316e-002 4.500000e-001
    endloop
  endfacet
  facet normal 0.000000e+000 1.270566e-015 1.000000e+000
    outer loop
      vertex   2.755832e-002 -3.115316e-002 4.500000e-001
      vertex   -3.318059e-002 -3.115316e-002 4.500000e-001
      vertex   -2.950619e-003 -9.995646e-002 4.500000e-001
    endloop
  endfacet
  facet normal 0.000000e+000 -0.000000e+000 1.000000e+000
    outer loop
      vertex   -9.547355e-002 2.974562e-002 6.000000e-001
      vertex   -3.318059e-002 2.974562e-002 6.000000e-001
      vertex   -8.973277e-002 4.413648e-002 6.000000e-001
    endloop
  endfacet
  facet normal -0.000000e+000 -0.000000e+000 1.000000e+000
    outer loop
      vertex   -8.973277e-002 4.413648e-002 6.000000e-001
      vertex   -3.318059e-002 2.974562e-002 6.000000e-001
      vertex   -8.183793e-002 5.746784e-002 6.000000e-001
    endloop
  endfacet
  facet normal -0.000000e+000 -0.000000e+000 1.000000e+000
    outer loop
      vertex   -8.183793e-002 5.746784e-002 6.000000e-001
      vertex   -3.318059e-002 2.974562e-002 6.000000e-001
      vertex   -7.197855e-002 6.941966e-002 6.000000e-001
    endloop
  endfacet
  facet normal -0.000000e+000 -0.000000e+000 1.000000e+000
    outer loop
      vertex   -7.197855e-002 6.941966e-002 6.000000e-001
      vertex   -3.318059e-002 2.974562e-002 6.000000e-001
      vertex   -6.039129e-002 7.970503e-002 6.000000e-001
    endloop
  endfacet
  facet normal -0.000000e+000 -0.000000e+000 1.000000e+000
    outer loop
      vertex   -6.039129e-002 7.970503e-002 6.000000e-001
      vertex   -3.318059e-002 2.974562e-002 6.000000e-001
      vertex   -4.735431e-002 8.807706e-002 6.000000e-001
    endloop
  endfacet
  facet normal -0.000000e+000 0.000000e+000 1.000000e+000
    outer loop
      vertex   -4.735431e-002 8.807706e-002 6.000000e-001
      vertex   -3.318059e-002 2.974562e-002 6.000000e-001
      vertex   -3.318059e-002 9.433477e-002 6.000000e-001
    endloop
  endfacet
  facet normal 1.000000e+000 0.000000e+000 -0.000000e+000
    outer loop
      vertex   -3.318059e-002 2.974562e-002 4.500000e-001
      vertex   -3.318059e-002 9.433477e-002 4.500000e-001
      vertex   -3.318059e-002 2.974562e-002 6.000000e-001
    endloop
  endfacet
  facet normal 1.000000e+000 -0.000000e+000 0.000000e+000
    outer loop
      vertex   -3.318059e-002 2.974562e-002 6.000000e-001
      vertex   -3.318059e-002 9.433477e-002 4.500000e-001
      vertex   -3.318059e-002 9.433477e-002 6.000000e-001
    endloop
  endfacet
  facet normal 1.000000e+000 0.000000e+000 0.000000e+000
    outer loop
      vertex   -3.318059e-002 -3.115316e-002 6.000000e-001
      vertex   -3.318059e-002 -9.433477e-002 6.000000e-001
      vertex   -3.318059e-002 -3.115316e-002 4.500000e-001
    endloop
  endfacet
  facet normal 1.000000e+000 0.000000e+000 0.000000e+000
    outer loop
      vertex   -3.318059e-002 -3.115316e-002 4.500000e-001
      vertex   -3.318059e-002 -9.433477e-002 6.000000e-001
      vertex   -3.318059e-002 -9.433477e-002 4.500000e-001
    endloop
  endfacet
  facet normal -0.000000e+000 0.000000e+000 1.000000e+000
    outer loop
      vertex   -9.502358e-002 -3.115316e-002 6.000000e-001
      vertex   -8.918247e-002 -4.523812e-002 6.000000e-001
      vertex   -3.318059e-002 -3.115316e-002 6.000000e-001
    endloop
  endfacet
  facet normal 0.000000e+000 0.000000e+000 1.000000e+000
    outer loop
      vertex   -3.318059e-002 -3.115316e-002 6.000000e-001
      vertex   -8.918247e-002 -4.523812e-002 6.000000e-001
      vertex   -8.126783e-002 -5.827127e-002 6.000000e-001
    endloop
  endfacet
  facet normal 0.000000e+000 -0.000000e+000 1.000000e+000
    outer loop
      vertex   -7.146367e-002 -6.994958e-002 6.000000e-001
      vertex   -3.318059e-002 -3.115316e-002 6.000000e-001
      vertex   -8.126783e-002 -5.827127e-002 6.000000e-001
    endloop
  endfacet
  facet normal -0.000000e+000 0.000000e+000 1.000000e+000
    outer loop
      vertex   -7.146367e-002 -6.994958e-002 6.000000e-001
      vertex   -5.999795e-002 -8.000154e-002 6.000000e-001
      vertex   -3.318059e-002 -3.115316e-002 6.000000e-001
    endloop
  endfacet
  facet normal 0.000000e+000 0.000000e+000 1.000000e+000
    outer loop
      vertex   -3.318059e-002 -3.115316e-002 6.000000e-001
      vertex   -5.999795e-002 -8.000154e-002 6.000000e-001
      vertex   -4.713725e-002 -8.819342e-002 6.000000e-001
    endloop
  endfacet
  facet normal 0.000000e+000 -0.000000e+000 1.000000e+000
    outer loop
      vertex   -3.318059e-002 -9.433477e-002 6.000000e-001
      vertex   -3.318059e-002 -3.115316e-002 6.000000e-001
      vertex   -4.713725e-002 -8.819342e-002 6.000000e-001
    endloop
  endfacet
  facet normal 9.218235e-001 -3.876099e-001 0.000000e+000
    outer loop
      vertex   9.502358e-002 -3.115316e-002 6.000000e-001
      vertex   8.873316e-002 -4.611319e-002 6.000000e-001
      vertex   9.502358e-002 -3.115316e-002 4.500000e-001
    endloop
  endfacet
  facet normal 9.237912e-001 -3.828961e-001 5.526441e-004
    outer loop
      vertex   9.502358e-002 -3.115316e-002 4.500000e-001
      vertex   8.873316e-002 -4.611319e-002 6.000000e-001
      vertex   9.396926e-002 -3.420201e-002 1.000000e-001
    endloop
  endfacet
  facet normal 9.659256e-001 -2.588190e-001 -6.551161e-004
    outer loop
      vertex   9.848078e-002 -1.736482e-002 1.000000e-001
      vertex   9.502358e-002 -3.115316e-002 4.500000e-001
      vertex   9.396926e-002 -3.420201e-002 1.000000e-001
    endloop
  endfacet
  facet normal 9.714684e-001 -2.371688e-001 2.525486e-004
    outer loop
      vertex   9.848078e-002 -1.736482e-002 1.000000e-001
      vertex   9.868911e-002 -1.613876e-002 4.500000e-001
      vertex   9.502358e-002 -3.115316e-002 4.500000e-001
    endloop
  endfacet
  facet normal 9.964115e-001 -8.464120e-002 -2.966056e-004
    outer loop
      vertex   9.848078e-002 -1.736482e-002 1.000000e-001
      vertex   9.999727e-002 -7.388587e-004 4.500000e-001
      vertex   9.868911e-002 -1.613876e-002 4.500000e-001
    endloop
  endfacet
  facet normal 9.961947e-001 -8.715574e-002 -1.762188e-004
    outer loop
      vertex   9.848078e-002 -1.736482e-002 1.000000e-001
      vertex   1.000000e-001 -1.225855e-015 1.000000e-001
      vertex   9.999727e-002 -7.388587e-004 4.500000e-001
    endloop
  endfacet
  facet normal 9.975534e-001 6.990822e-002 1.553578e-004
    outer loop
      vertex   9.999727e-002 -7.388587e-004 4.500000e-001
      vertex   1.000000e-001 -1.225855e-015 1.000000e-001
      vertex   9.891681e-002 1.467869e-002 4.500000e-001
    endloop
  endfacet
  facet normal 9.961945e-001 8.715573e-002 -5.721932e-004
    outer loop
      vertex   9.891681e-002 1.467869e-002 4.500000e-001
      vertex   1.000000e-001 -1.225855e-015 1.000000e-001
      vertex   9.848078e-002 1.736482e-002 1.000000e-001
    endloop
  endfacet
  facet normal 9.659255e-001 2.588190e-001 -8.560786e-004
    outer loop
      vertex   9.547355e-002 2.974562e-002 4.500000e-001
      vertex   9.848078e-002 1.736482e-002 1.000000e-001
      vertex   9.396926e-002 3.420201e-002 1.000000e-001
    endloop
  endfacet
  facet normal 9.063076e-001 4.226182e-001 -6.672870e-004
    outer loop
      vertex   8.929428e-002 4.501702e-002 6.000000e-001
      vertex   9.396926e-002 3.420201e-002 1.000000e-001
      vertex   8.660254e-002 5.000000e-002 1.000000e-001
    endloop
  endfacet
  facet normal 8.191518e-001 5.735763e-001 -7.168798e-004
    outer loop
      vertex   8.069157e-002 5.906666e-002 6.000000e-001
      vertex   8.660254e-002 5.000000e-002 1.000000e-001
      vertex   7.660444e-002 6.427876e-002 1.000000e-001
    endloop
  endfacet
  facet normal 7.071066e-001 7.071066e-001 -7.480292e-004
    outer loop
      vertex   6.989890e-002 7.151324e-002 6.000000e-001
      vertex   7.660444e-002 6.427876e-002 1.000000e-001
      vertex   6.427876e-002 7.660444e-002 1.000000e-001
    endloop
  endfacet
  facet normal 5.735763e-001 8.191518e-001 -7.607321e-004
    outer loop
      vertex   5.720918e-002 8.201896e-002 6.000000e-001
      vertex   6.427876e-002 7.660444e-002 1.000000e-001
      vertex   5.000000e-002 8.660254e-002 1.000000e-001
    endloop
  endfacet
  facet normal 4.226181e-001 9.063075e-001 -7.549874e-004
    outer loop
      vertex   4.296680e-002 9.029869e-002 6.000000e-001
      vertex   5.000000e-002 8.660254e-002 1.000000e-001
      vertex   3.420201e-002 9.396926e-002 1.000000e-001
    endloop
  endfacet
  facet normal 2.588189e-001 9.659253e-001 -1.043994e-003
    outer loop
      vertex   2.755832e-002 9.612772e-002 4.500000e-001
      vertex   3.420201e-002 9.396926e-002 1.000000e-001
      vertex   1.736482e-002 9.848078e-002 1.000000e-001
    endloop
  endfacet
  facet normal 8.715571e-002 9.961943e-001 -8.855397e-004
    outer loop
      vertex   1.245189e-002 9.922172e-002 4.500000e-001
      vertex   1.736482e-002 9.848078e-002 1.000000e-001
      vertex   1.441308e-017 1.000000e-001 1.000000e-001
    endloop
  endfacet
  facet normal -8.715573e-002 9.961945e-001 -6.108251e-004
    outer loop
      vertex   -2.950619e-003 9.995646e-002 4.500000e-001
      vertex   1.441308e-017 1.000000e-001 1.000000e-001
      vertex   -1.736482e-002 9.848078e-002 1.000000e-001
    endloop
  endfacet
  facet normal -2.580860e-001 9.661219e-001 -2.179452e-004
    outer loop
      vertex   -1.828297e-002 9.831446e-002 4.500000e-001
      vertex   -1.736482e-002 9.848078e-002 1.000000e-001
      vertex   -3.318059e-002 9.433477e-002 4.500000e-001
    endloop
  endfacet
  facet normal -1.064849e-001 9.943143e-001 1.931433e-004
    outer loop
      vertex   -1.828297e-002 9.831446e-002 4.500000e-001
      vertex   -2.950619e-003 9.995646e-002 4.500000e-001
      vertex   -1.736482e-002 9.848078e-002 1.000000e-001
    endloop
  endfacet
  facet normal 9.063076e-001 -4.226182e-001 -5.767211e-004
    outer loop
      vertex   9.396926e-002 -3.420201e-002 1.000000e-001
      vertex   8.873316e-002 -4.611319e-002 6.000000e-001
      vertex   8.660254e-002 -5.000000e-002 1.000000e-001
    endloop
  endfacet
  facet normal 8.469875e-001 -5.316125e-001 5.233376e-004
    outer loop
      vertex   8.660254e-002 -5.000000e-002 1.000000e-001
      vertex   8.873316e-002 -4.611319e-002 6.000000e-001
      vertex   8.010576e-002 -5.985872e-002 6.000000e-001
    endloop
  endfacet
  facet normal 7.498444e-001 -6.616139e-001 5.978294e-004
    outer loop
      vertex   7.660444e-002 -6.427876e-002 1.000000e-001
      vertex   8.010576e-002 -5.985872e-002 6.000000e-001
      vertex   6.936861e-002 -7.202775e-002 6.000000e-001
    endloop
  endfacet
  facet normal 6.329525e-001 -7.741904e-001 6.432081e-004
    outer loop
      vertex   6.427876e-002 -7.660444e-002 1.000000e-001
      vertex   6.936861e-002 -7.202775e-002 6.000000e-001
      vertex   5.680448e-002 -8.229977e-002 6.000000e-001
    endloop
  endfacet
  facet normal 4.993905e-001 -8.663768e-001 6.594671e-004
    outer loop
      vertex   5.000000e-002 -8.660254e-002 1.000000e-001
      vertex   5.680448e-002 -8.229977e-002 6.000000e-001
      vertex   4.274428e-002 -9.040424e-002 6.000000e-001
    endloop
  endfacet
  facet normal 3.459208e-001 -9.382634e-001 7.799657e-004
    outer loop
      vertex   3.420201e-002 -9.396926e-002 1.000000e-001
      vertex   4.274428e-002 -9.040424e-002 6.000000e-001
      vertex   2.755832e-002 -9.612772e-002 4.500000e-001
    endloop
  endfacet
  facet normal 2.006482e-001 -9.796631e-001 7.425449e-004
    outer loop
      vertex   1.736482e-002 -9.848078e-002 1.000000e-001
      vertex   2.755832e-002 -9.612772e-002 4.500000e-001
      vertex   1.245189e-002 -9.922172e-002 4.500000e-001
    endloop
  endfacet
  facet normal 4.764817e-002 -9.988640e-001 5.259495e-004
    outer loop
      vertex   3.890521e-017 -1.000000e-001 1.000000e-001
      vertex   1.245189e-002 -9.922172e-002 4.500000e-001
      vertex   -2.950619e-003 -9.995646e-002 4.500000e-001
    endloop
  endfacet
  facet normal -1.064849e-001 -9.943143e-001 1.931433e-004
    outer loop
      vertex   -1.736482e-002 -9.848078e-002 1.000000e-001
      vertex   -2.950619e-003 -9.995646e-002 4.500000e-001
      vertex   -1.828297e-002 -9.831446e-002 4.500000e-001
    endloop
  endfacet
  facet normal -2.580860e-001 -9.661219e-001 -2.557382e-004
    outer loop
      vertex   -3.420201e-002 -9.396926e-002 1.000000e-001
      vertex   -1.828297e-002 -9.831446e-002 4.500000e-001
      vertex   -3.318059e-002 -9.433477e-002 4.500000e-001
    endloop
  endfacet
  facet normal -4.078848e-001 -9.130332e-001 -5.697114e-004
    outer loop
      vertex   -5.000000e-002 -8.660254e-002 1.000000e-001
      vertex   -3.318059e-002 -9.433477e-002 4.500000e-001
      vertex   -4.713725e-002 -8.819342e-002 6.000000e-001
    endloop
  endfacet
  facet normal -5.372396e-001 -8.434296e-001 3.923726e-004
    outer loop
      vertex   -5.999795e-002 -8.000154e-002 6.000000e-001
      vertex   -5.000000e-002 -8.660254e-002 1.000000e-001
      vertex   -4.713725e-002 -8.819342e-002 6.000000e-001
    endloop
  endfacet
  facet normal -5.735763e-001 -8.191519e-001 -6.547270e-004
    outer loop
      vertex   -5.999795e-002 -8.000154e-002 6.000000e-001
      vertex   -6.427876e-002 -7.660444e-002 1.000000e-001
      vertex   -5.000000e-002 -8.660254e-002 1.000000e-001
    endloop
  endfacet
  facet normal -6.592267e-001 -7.519441e-001 5.352021e-004
    outer loop
      vertex   -5.999795e-002 -8.000154e-002 6.000000e-001
      vertex   -7.146367e-002 -6.994958e-002 6.000000e-001
      vertex   -6.427876e-002 -7.660444e-002 1.000000e-001
    endloop
  endfacet
  facet normal -7.071066e-001 -7.071066e-001 -7.495976e-004
    outer loop
      vertex   -6.427876e-002 -7.660444e-002 1.000000e-001
      vertex   -7.146367e-002 -6.994958e-002 6.000000e-001
      vertex   -7.660444e-002 -6.427876e-002 1.000000e-001
    endloop
  endfacet
  facet normal -7.658865e-001 -6.429755e-001 5.821024e-004
    outer loop
      vertex   -7.660444e-002 -6.427876e-002 1.000000e-001
      vertex   -7.146367e-002 -6.994958e-002 6.000000e-001
      vertex   -8.126783e-002 -5.827127e-002 6.000000e-001
    endloop
  endfacet
  facet normal -8.547391e-001 -5.190576e-001 5.330513e-004
    outer loop
      vertex   -8.660254e-002 -5.000000e-002 1.000000e-001
      vertex   -8.126783e-002 -5.827127e-002 6.000000e-001
      vertex   -8.918247e-002 -4.523812e-002 6.000000e-001
    endloop
  endfacet
  facet normal -9.256228e-001 -3.784470e-001 5.083704e-004
    outer loop
      vertex   -9.396926e-002 -3.420201e-002 1.000000e-001
      vertex   -8.918247e-002 -4.523812e-002 6.000000e-001
      vertex   -9.502358e-002 -3.115316e-002 4.500000e-001
    endloop
  endfacet
  facet normal -9.714684e-001 -2.371688e-001 2.525486e-004
    outer loop
      vertex   -9.848078e-002 -1.736482e-002 1.000000e-001
      vertex   -9.502358e-002 -3.115316e-002 4.500000e-001
      vertex   -9.868911e-002 -1.613876e-002 4.500000e-001
    endloop
  endfacet
  facet normal -9.964115e-001 -8.464120e-002 -1.709088e-004
    outer loop
      vertex   -1.000000e-001 -1.238101e-015 1.000000e-001
      vertex   -9.868911e-002 -1.613876e-002 4.500000e-001
      vertex   -9.999727e-002 -7.388587e-004 4.500000e-001
    endloop
  endfacet
  facet normal -9.975534e-001 6.990822e-002 1.553578e-004
    outer loop
      vertex   -9.891681e-002 1.467869e-002 4.500000e-001
      vertex   -1.000000e-001 -1.238101e-015 1.000000e-001
      vertex   -9.999727e-002 -7.388587e-004 4.500000e-001
    endloop
  endfacet
  facet normal -9.961945e-001 8.715573e-002 -5.721932e-004
    outer loop
      vertex   -9.891681e-002 1.467869e-002 4.500000e-001
      vertex   -9.848078e-002 1.736482e-002 1.000000e-001
      vertex   -1.000000e-001 -1.238101e-015 1.000000e-001
    endloop
  endfacet
  facet normal -9.748669e-001 2.227877e-001 4.953045e-004
    outer loop
      vertex   -9.891681e-002 1.467869e-002 4.500000e-001
      vertex   -9.547355e-002 2.974562e-002 4.500000e-001
      vertex   -9.848078e-002 1.736482e-002 1.000000e-001
    endloop
  endfacet
  facet normal -9.659255e-001 2.588190e-001 -8.560786e-004
    outer loop
      vertex   -9.848078e-002 1.736482e-002 1.000000e-001
      vertex   -9.547355e-002 2.974562e-002 4.500000e-001
      vertex   -9.396926e-002 3.420201e-002 1.000000e-001
    endloop
  endfacet
  facet normal -9.311085e-001 3.647416e-001 6.422305e-004
    outer loop
      vertex   -9.396926e-002 3.420201e-002 1.000000e-001
      vertex   -9.547355e-002 2.974562e-002 4.500000e-001
      vertex   -8.973277e-002 4.413648e-002 6.000000e-001
    endloop
  endfacet
  facet normal -8.604392e-001 5.095528e-001 5.887906e-004
    outer loop
      vertex   -8.660254e-002 5.000000e-002 1.000000e-001
      vertex   -8.973277e-002 4.413648e-002 6.000000e-001
      vertex   -8.183793e-002 5.746784e-002 6.000000e-001
    endloop
  endfacet
  facet normal -7.714005e-001 6.363497e-001 5.940235e-004
    outer loop
      vertex   -7.660444e-002 6.427876e-002 1.000000e-001
      vertex   -8.183793e-002 5.746784e-002 6.000000e-001
      vertex   -7.197855e-002 6.941966e-002 6.000000e-001
    endloop
  endfacet
  facet normal -6.638441e-001 7.478708e-001 5.236715e-004
    outer loop
      vertex   -6.427876e-002 7.660444e-002 1.000000e-001
      vertex   -7.197855e-002 6.941966e-002 6.000000e-001
      vertex   -6.039129e-002 7.970503e-002 6.000000e-001
    endloop
  endfacet
  facet normal -5.403518e-001 8.414391e-001 3.777612e-004
    outer loop
      vertex   -5.000000e-002 8.660254e-002 1.000000e-001
      vertex   -6.039129e-002 7.970503e-002 6.000000e-001
      vertex   -4.735431e-002 8.807706e-002 6.000000e-001
    endloop
  endfacet
  facet normal -4.038883e-001 9.148083e-001 0.000000e+000
    outer loop
      vertex   -3.318059e-002 9.433477e-002 4.500000e-001
      vertex   -4.735431e-002 8.807706e-002 6.000000e-001
      vertex   -3.318059e-002 9.433477e-002 6.000000e-001
    endloop
  endfacet
  facet normal -4.085746e-001 9.127248e-001 -5.297452e-004
    outer loop
      vertex   -3.318059e-002 9.433477e-002 4.500000e-001
      vertex   -5.000000e-002 8.660254e-002 1.000000e-001
      vertex   -4.735431e-002 8.807706e-002 6.000000e-001
    endloop
  endfacet
  facet normal -4.226182e-001 9.063077e-001 2.868921e-004
    outer loop
      vertex   -3.318059e-002 9.433477e-002 4.500000e-001
      vertex   -3.420201e-002 9.396926e-002 1.000000e-001
      vertex   -5.000000e-002 8.660254e-002 1.000000e-001
    endloop
  endfacet
  facet normal -2.588190e-001 9.659258e-001 -2.533940e-004
    outer loop
      vertex   -3.318059e-002 9.433477e-002 4.500000e-001
      vertex   -1.736482e-002 9.848078e-002 1.000000e-001
      vertex   -3.420201e-002 9.396926e-002 1.000000e-001
    endloop
  endfacet
  facet normal 3.526759e-001 -9.357455e-001 0.000000e+000
    outer loop
      vertex   4.274428e-002 -9.040424e-002 6.000000e-001
      vertex   2.755832e-002 -9.612772e-002 6.000000e-001
      vertex   2.755832e-002 -9.612772e-002 4.500000e-001
    endloop
  endfacet
  facet normal -4.027614e-001 -9.153050e-001 0.000000e+000
    outer loop
      vertex   -3.318059e-002 -9.433477e-002 4.500000e-001
      vertex   -3.318059e-002 -9.433477e-002 6.000000e-001
      vertex   -4.713725e-002 -8.819342e-002 6.000000e-001
    endloop
  endfacet
  facet normal -9.237188e-001 -3.830713e-001 -0.000000e+000
    outer loop
      vertex   -8.918247e-002 -4.523812e-002 6.000000e-001
      vertex   -9.502358e-002 -3.115316e-002 6.000000e-001
      vertex   -9.502358e-002 -3.115316e-002 4.500000e-001
    endloop
  endfacet
  facet normal -9.288229e-001 3.705240e-001 0.000000e+000
    outer loop
      vertex   -9.547355e-002 2.974562e-002 4.500000e-001
      vertex   -9.547355e-002 2.974562e-002 6.000000e-001
      vertex   -8.973277e-002 4.413648e-002 6.000000e-001
    endloop
  endfacet
  facet normal 4.764817e-002 9.988640e-001 5.259495e-004
    outer loop
      vertex   -2.950619e-003 9.995646e-002 4.500000e-001
      vertex   1.245189e-002 9.922172e-002 4.500000e-001
      vertex   1.441308e-017 1.000000e-001 1.000000e-001
    endloop
  endfacet
  facet normal 2.006482e-001 9.796631e-001 7.425449e-004
    outer loop
      vertex   1.245189e-002 9.922172e-002 4.500000e-001
      vertex   2.755832e-002 9.612772e-002 4.500000e-001
      vertex   1.736482e-002 9.848078e-002 1.000000e-001
    endloop
  endfacet
  facet normal 3.538280e-001 9.353105e-001 0.000000e+000
    outer loop
      vertex   2.755832e-002 9.612772e-002 6.000000e-001
      vertex   4.296680e-002 9.029869e-002 6.000000e-001
      vertex   2.755832e-002 9.612772e-002 4.500000e-001
    endloop
  endfacet
  facet normal 3.469837e-001 9.378708e-001 8.025631e-004
    outer loop
      vertex   2.755832e-002 9.612772e-002 4.500000e-001
      vertex   4.296680e-002 9.029869e-002 6.000000e-001
      vertex   3.420201e-002 9.396926e-002 1.000000e-001
    endloop
  endfacet
  facet normal 5.025877e-001 8.645260e-001 6.787580e-004
    outer loop
      vertex   4.296680e-002 9.029869e-002 6.000000e-001
      vertex   5.720918e-002 8.201896e-002 6.000000e-001
      vertex   5.000000e-002 8.660254e-002 1.000000e-001
    endloop
  endfacet
  facet normal 6.377073e-001 7.702785e-001 6.752788e-004
    outer loop
      vertex   5.720918e-002 8.201896e-002 6.000000e-001
      vertex   6.989890e-002 7.151324e-002 6.000000e-001
      vertex   6.427876e-002 7.660444e-002 1.000000e-001
    endloop
  endfacet
  facet normal 7.555196e-001 6.551257e-001 6.533525e-004
    outer loop
      vertex   6.989890e-002 7.151324e-002 6.000000e-001
      vertex   8.069157e-002 5.906666e-002 6.000000e-001
      vertex   7.660444e-002 6.427876e-002 1.000000e-001
    endloop
  endfacet
  facet normal 8.528272e-001 5.221929e-001 6.129809e-004
    outer loop
      vertex   8.069157e-002 5.906666e-002 6.000000e-001
      vertex   8.929428e-002 4.501702e-002 6.000000e-001
      vertex   8.660254e-002 5.000000e-002 1.000000e-001
    endloop
  endfacet
  facet normal 9.269893e-001 3.750878e-001 0.000000e+000
    outer loop
      vertex   9.547355e-002 2.974562e-002 6.000000e-001
      vertex   9.547355e-002 2.974562e-002 4.500000e-001
      vertex   8.929428e-002 4.501702e-002 6.000000e-001
    endloop
  endfacet
  facet normal 9.293793e-001 3.691255e-001 7.054803e-004
    outer loop
      vertex   8.929428e-002 4.501702e-002 6.000000e-001
      vertex   9.547355e-002 2.974562e-002 4.500000e-001
      vertex   9.396926e-002 3.420201e-002 1.000000e-001
    endloop
  endfacet
  facet normal 9.748669e-001 2.227877e-001 4.953045e-004
    outer loop
      vertex   9.547355e-002 2.974562e-002 4.500000e-001
      vertex   9.891681e-002 1.467869e-002 4.500000e-001
      vertex   9.848078e-002 1.736482e-002 1.000000e-001
    endloop
  endfacet
  facet normal -5.735763e-001 8.191519e-001 -6.201817e-004
    outer loop
      vertex   -5.000000e-002 8.660254e-002 1.000000e-001
      vertex   -6.427876e-002 7.660444e-002 1.000000e-001
      vertex   -6.039129e-002 7.970503e-002 6.000000e-001
    endloop
  endfacet
  facet normal -7.071066e-001 7.071066e-001 -7.283180e-004
    outer loop
      vertex   -6.427876e-002 7.660444e-002 1.000000e-001
      vertex   -7.660444e-002 6.427876e-002 1.000000e-001
      vertex   -7.197855e-002 6.941966e-002 6.000000e-001
    endloop
  endfacet
  facet normal -8.191518e-001 5.735763e-001 -7.608790e-004
    outer loop
      vertex   -7.660444e-002 6.427876e-002 1.000000e-001
      vertex   -8.660254e-002 5.000000e-002 1.000000e-001
      vertex   -8.183793e-002 5.746784e-002 6.000000e-001
    endloop
  endfacet
  facet normal -9.063076e-001 4.226182e-001 -7.178527e-004
    outer loop
      vertex   -8.660254e-002 5.000000e-002 1.000000e-001
      vertex   -9.396926e-002 3.420201e-002 1.000000e-001
      vertex   -8.973277e-002 4.413648e-002 6.000000e-001
    endloop
  endfacet
  facet normal -9.961947e-001 -8.715574e-002 -2.876681e-004
    outer loop
      vertex   -1.000000e-001 -1.238101e-015 1.000000e-001
      vertex   -9.848078e-002 -1.736482e-002 1.000000e-001
      vertex   -9.868911e-002 -1.613876e-002 4.500000e-001
    endloop
  endfacet
  facet normal -9.659256e-001 -2.588190e-001 -6.551161e-004
    outer loop
      vertex   -9.848078e-002 -1.736482e-002 1.000000e-001
      vertex   -9.396926e-002 -3.420201e-002 1.000000e-001
      vertex   -9.502358e-002 -3.115316e-002 4.500000e-001
    endloop
  endfacet
  facet normal -9.063076e-001 -4.226182e-001 -6.515012e-004
    outer loop
      vertex   -9.396926e-002 -3.420201e-002 1.000000e-001
      vertex   -8.660254e-002 -5.000000e-002 1.000000e-001
      vertex   -8.918247e-002 -4.523812e-002 6.000000e-001
    endloop
  endfacet
  facet normal -8.191518e-001 -5.735763e-001 -7.485221e-004
    outer loop
      vertex   -8.660254e-002 -5.000000e-002 1.000000e-001
      vertex   -7.660444e-002 -6.427876e-002 1.000000e-001
      vertex   -8.126783e-002 -5.827127e-002 6.000000e-001
    endloop
  endfacet
  facet normal -4.226182e-001 -9.063077e-001 2.868921e-004
    outer loop
      vertex   -5.000000e-002 -8.660254e-002 1.000000e-001
      vertex   -3.420201e-002 -9.396926e-002 1.000000e-001
      vertex   -3.318059e-002 -9.433477e-002 4.500000e-001
    endloop
  endfacet
  facet normal -2.588190e-001 -9.659258e-001 -2.199614e-004
    outer loop
      vertex   -3.420201e-002 -9.396926e-002 1.000000e-001
      vertex   -1.736482e-002 -9.848078e-002 1.000000e-001
      vertex   -1.828297e-002 -9.831446e-002 4.500000e-001
    endloop
  endfacet
  facet normal -8.715573e-002 -9.961945e-001 -6.108251e-004
    outer loop
      vertex   -1.736482e-002 -9.848078e-002 1.000000e-001
      vertex   3.890521e-017 -1.000000e-001 1.000000e-001
      vertex   -2.950619e-003 -9.995646e-002 4.500000e-001
    endloop
  endfacet
  facet normal 8.715571e-002 -9.961943e-001 -8.855397e-004
    outer loop
      vertex   3.890521e-017 -1.000000e-001 1.000000e-001
      vertex   1.736482e-002 -9.848078e-002 1.000000e-001
      vertex   1.245189e-002 -9.922172e-002 4.500000e-001
    endloop
  endfacet
  facet normal 2.588189e-001 -9.659253e-001 -1.043994e-003
    outer loop
      vertex   1.736482e-002 -9.848078e-002 1.000000e-001
      vertex   3.420201e-002 -9.396926e-002 1.000000e-001
      vertex   2.755832e-002 -9.612772e-002 4.500000e-001
    endloop
  endfacet
  facet normal 4.226181e-001 -9.063075e-001 -7.582194e-004
    outer loop
      vertex   3.420201e-002 -9.396926e-002 1.000000e-001
      vertex   5.000000e-002 -8.660254e-002 1.000000e-001
      vertex   4.274428e-002 -9.040424e-002 6.000000e-001
    endloop
  endfacet
  facet normal 5.735763e-001 -8.191518e-001 -7.565214e-004
    outer loop
      vertex   5.000000e-002 -8.660254e-002 1.000000e-001
      vertex   6.427876e-002 -7.660444e-002 1.000000e-001
      vertex   5.680448e-002 -8.229977e-002 6.000000e-001
    endloop
  endfacet
  facet normal 7.071066e-001 -7.071066e-001 -7.257020e-004
    outer loop
      vertex   6.427876e-002 -7.660444e-002 1.000000e-001
      vertex   7.660444e-002 -6.427876e-002 1.000000e-001
      vertex   6.936861e-002 -7.202775e-002 6.000000e-001
    endloop
  endfacet
  facet normal 8.191519e-001 -5.735763e-001 -6.657656e-004
    outer loop
      vertex   7.660444e-002 -6.427876e-002 1.000000e-001
      vertex   8.660254e-002 -5.000000e-002 1.000000e-001
      vertex   8.010576e-002 -5.985872e-002 6.000000e-001
    endloop
  endfacet
  facet normal 1.000000e+000 -9.333763e-016 0.000000e+000
    outer loop
      vertex   3.650000e-001 2.107328e-001 1.000000e-001
      vertex   3.650000e-001 -2.107328e-001 1.000000e-001
      vertex   3.650000e-001 2.107328e-001 0.000000e+000
    endloop
  endfacet
  facet normal 1.000000e+000 -9.333763e-016 0.000000e+000
    outer loop
      vertex   3.650000e-001 2.107328e-001 0.000000e+000
      vertex   3.650000e-001 -2.107328e-001 1.000000e-001
      vertex   3.650000e-001 -2.107328e-001 0.000000e+000
    endloop
  endfacet
  facet normal 5.000000e-001 -8.660254e-001 0.000000e+000
    outer loop
      vertex   3.650000e-001 -2.107328e-001 1.000000e-001
      vertex   -4.808052e-016 -4.214657e-001 1.000000e-001
      vertex   3.650000e-001 -2.107328e-001 0.000000e+000
    endloop
  endfacet
  facet normal 5.000000e-001 -8.660254e-001 0.000000e+000
    outer loop
      vertex   3.650000e-001 -2.107328e-001 0.000000e+000
      vertex   -4.808052e-016 -4.214657e-001 1.000000e-001
      vertex   -4.808052e-016 -4.214657e-001 0.000000e+000
    endloop
  endfacet
  facet normal -5.000000e-001 -8.660254e-001 0.000000e+000
    outer loop
      vertex   -4.808052e-016 -4.214657e-001 1.000000e-001
      vertex   -3.650000e-001 -2.107328e-001 1.000000e-001
      vertex   -4.808052e-016 -4.214657e-001 0.000000e+000
    endloop
  endfacet
  facet normal -5.000000e-001 -8.660254e-001 -0.000000e+000
    outer loop
      vertex   -4.808052e-016 -4.214657e-001 0.000000e+000
      vertex   -3.650000e-001 -2.107328e-001 1.000000e-001
      vertex   -3.650000e-001 -2.107328e-001 0.000000e+000
    endloop
  endfacet
  facet normal -1.000000e+000 9.333763e-016 0.000000e+000
    outer loop
      vertex   -3.650000e-001 -2.107328e-001 1.000000e-001
      vertex   -3.650000e-001 2.107328e-001 1.000000e-001
      vertex   -3.650000e-001 -2.107328e-001 0.000000e+000
    endloop
  endfacet
  facet normal -1.000000e+000 9.333763e-016 0.000000e+000
    outer loop
      vertex   -3.650000e-001 -2.107328e-001 0.000000e+000
      vertex   -3.650000e-001 2.107328e-001 1.000000e-001
      vertex   -3.650000e-001 2.107328e-001 0.000000e+000
    endloop
  endfacet
  facet normal -5.000000e-001 8.660254e-001 0.000000e+000
    outer loop
      vertex   -3.650000e-001 2.107328e-001 1.000000e-001
      vertex   0.000000e+000 4.214657e-001 1.000000e-001
      vertex   -3.650000e-001 2.107328e-001 0.000000e+000
    endloop
  endfacet
  facet normal -5.000000e-001 8.660254e-001 0.000000e+000
    outer loop
      vertex   -3.650000e-001 2.107328e-001 0.000000e+000
      vertex   0.000000e+000 4.214657e-001 1.000000e-001
      vertex   0.000000e+000 4.214657e-001 0.000000e+000
    endloop
  endfacet
  facet normal 5.000000e-001 8.660254e-001 0.000000e+000
    outer loop
      vertex   0.000000e+000 4.214657e-001 1.000000e-001
      vertex   3.650000e-001 2.107328e-001 1.000000e-001
      vertex   0.000000e+000 4.214657e-001 0.000000e+000
    endloop
  endfacet
  facet normal 5.000000e-001 8.660254e-001 0.000000e+000
    outer loop
      vertex   0.000000e+000 4.214657e-001 0.000000e+000
      vertex   3.650000e-001 2.107328e-001 1.000000e-001
      vertex   3.650000e-001 2.107328e-001 0.000000e+000
    endloop
  endfacet
  facet normal -0.000000e+000 -0.000000e+000 1.000000e+000
    outer loop
      vertex   9.848078e-002 -1.736482e-002 1.000000e-001
      vertex   3.650000e-001 -2.107328e-001 1.000000e-001
      vertex   1.000000e-001 -1.225855e-015 1.000000e-001
    endloop
  endfacet
  facet normal 0.000000e+000 0.000000e+000 1.000000e+000
    outer loop
      vertex   9.848078e-002 -1.736482e-002 1.000000e-001
      vertex   9.396926e-002 -3.420201e-002 1.000000e-001
      vertex   3.650000e-001 -2.107328e-001 1.000000e-001
    endloop
  endfacet
  facet normal 0.000000e+000 0.000000e+000 1.000000e+000
    outer loop
      vertex   3.650000e-001 -2.107328e-001 1.000000e-001
      vertex   9.396926e-002 -3.420201e-002 1.000000e-001
      vertex   8.660254e-002 -5.000000e-002 1.000000e-001
    endloop
  endfacet
  facet normal -0.000000e+000 -0.000000e+000 1.000000e+000
    outer loop
      vertex   7.660444e-002 -6.427876e-002 1.000000e-001
      vertex   3.650000e-001 -2.107328e-001 1.000000e-001
      vertex   8.660254e-002 -5.000000e-002 1.000000e-001
    endloop
  endfacet
  facet normal 0.000000e+000 0.000000e+000 1.000000e+000
    outer loop
      vertex   7.660444e-002 -6.427876e-002 1.000000e-001
      vertex   6.427876e-002 -7.660444e-002 1.000000e-001
      vertex   3.650000e-001 -2.107328e-001 1.000000e-001
    endloop
  endfacet
  facet normal 0.000000e+000 0.000000e+000 1.000000e+000
    outer loop
      vertex   3.650000e-001 -2.107328e-001 1.000000e-001
      vertex   6.427876e-002 -7.660444e-002 1.000000e-001
      vertex   5.000000e-002 -8.660254e-002 1.000000e-001
    endloop
  endfacet
  facet normal 0.000000e+000 -0.000000e+000 1.000000e+000
    outer loop
      vertex   -4.808052e-016 -4.214657e-001 1.000000e-001
      vertex   5.000000e-002 -8.660254e-002 1.000000e-001
      vertex   3.420201e-002 -9.396926e-002 1.000000e-001
    endloop
  endfacet
  facet normal -0.000000e+000 0.000000e+000 1.000000e+000
    outer loop
      vertex   1.736482e-002 -9.848078e-002 1.000000e-001
      vertex   -4.808052e-016 -4.214657e-001 1.000000e-001
      vertex   3.420201e-002 -9.396926e-002 1.000000e-001
    endloop
  endfacet
  facet normal 0.000000e+000 0.000000e+000 1.000000e+000
    outer loop
      vertex   1.736482e-002 -9.848078e-002 1.000000e-001
      vertex   3.890521e-017 -1.000000e-001 1.000000e-001
      vertex   -4.808052e-016 -4.214657e-001 1.000000e-001
    endloop
  endfacet
  facet normal 0.000000e+000 -0.000000e+000 1.000000e+000
    outer loop
      vertex   -4.808052e-016 -4.214657e-001 1.000000e-001
      vertex   3.890521e-017 -1.000000e-001 1.000000e-001
      vertex   -1.736482e-002 -9.848078e-002 1.000000e-001
    endloop
  endfacet
  facet normal -0.000000e+000 -0.000000e+000 1.000000e+000
    outer loop
      vertex   -3.420201e-002 -9.396926e-002 1.000000e-001
      vertex   -4.808052e-016 -4.214657e-001 1.000000e-001
      vertex   -1.736482e-002 -9.848078e-002 1.000000e-001
    endloop
  endfacet
  facet normal 0.000000e+000 0.000000e+000 1.000000e+000
    outer loop
      vertex   -3.420201e-002 -9.396926e-002 1.000000e-001
      vertex   -5.000000e-002 -8.660254e-002 1.000000e-001
      vertex   -4.808052e-016 -4.214657e-001 1.000000e-001
    endloop
  endfacet
  facet normal 0.000000e+000 0.000000e+000 1.000000e+000
    outer loop
      vertex   -4.808052e-016 -4.214657e-001 1.000000e-001
      vertex   -5.000000e-002 -8.660254e-002 1.000000e-001
      vertex   -3.650000e-001 -2.107328e-001 1.000000e-001
    endloop
  endfacet
  facet normal 0.000000e+000 -0.000000e+000 1.000000e+000
    outer loop
      vertex   -3.650000e-001 -2.107328e-001 1.000000e-001
      vertex   -5.000000e-002 -8.660254e-002 1.000000e-001
      vertex   -6.427876e-002 -7.660444e-002 1.000000e-001
    endloop
  endfacet
  facet normal -0.000000e+000 0.000000e+000 1.000000e+000
    outer loop
      vertex   -7.660444e-002 -6.427876e-002 1.000000e-001
      vertex   -3.650000e-001 -2.107328e-001 1.000000e-001
      vertex   -6.427876e-002 -7.660444e-002 1.000000e-001
    endloop
  endfacet
  facet normal 0.000000e+000 0.000000e+000 1.000000e+000
    outer loop
      vertex   -7.660444e-002 -6.427876e-002 1.000000e-001
      vertex   -8.660254e-002 -5.000000e-002 1.000000e-001
      vertex   -3.650000e-001 -2.107328e-001 1.000000e-001
    endloop
  endfacet
  facet normal 0.000000e+000 -0.000000e+000 1.000000e+000
    outer loop
      vertex   -3.650000e-001 -2.107328e-001 1.000000e-001
      vertex   -8.660254e-002 -5.000000e-002 1.000000e-001
      vertex   -9.396926e-002 -3.420201e-002 1.000000e-001
    endloop
  endfacet
  facet normal -0.000000e+000 0.000000e+000 1.000000e+000
    outer loop
      vertex   -9.848078e-002 -1.736482e-002 1.000000e-001
      vertex   -3.650000e-001 -2.107328e-001 1.000000e-001
      vertex   -9.396926e-002 -3.420201e-002 1.000000e-001
    endloop
  endfacet
  facet normal 0.000000e+000 0.000000e+000 1.000000e+000
    outer loop
      vertex   -9.848078e-002 -1.736482e-002 1.000000e-001
      vertex   -1.000000e-001 -1.238101e-015 1.000000e-001
      vertex   -3.650000e-001 -2.107328e-001 1.000000e-001
    endloop
  endfacet
  facet normal 0.000000e+000 -0.000000e+000 1.000000e+000
    outer loop
      vertex   -3.650000e-001 -2.107328e-001 1.000000e-001
      vertex   -1.000000e-001 -1.238101e-015 1.000000e-001
      vertex   -3.650000e-001 2.107328e-001 1.000000e-001
    endloop
  endfacet
  facet normal -0.000000e+000 0.000000e+000 1.000000e+000
    outer loop
      vertex   -3.650000e-001 2.107328e-001 1.000000e-001
      vertex   -1.000000e-001 -1.238101e-015 1.000000e-001
      vertex   -9.848078e-002 1.736482e-002 1.000000e-001
    endloop
  endfacet
  facet normal 0.000000e+000 0.000000e+000 1.000000e+000
    outer loop
      vertex   -9.396926e-002 3.420201e-002 1.000000e-001
      vertex   -3.650000e-001 2.107328e-001 1.000000e-001
      vertex   -9.848078e-002 1.736482e-002 1.000000e-001
    endloop
  endfacet
  facet normal 0.000000e+000 -0.000000e+000 1.000000e+000
    outer loop
      vertex   -9.396926e-002 3.420201e-002 1.000000e-001
      vertex   -8.660254e-002 5.000000e-002 1.000000e-001
      vertex   -3.650000e-001 2.107328e-001 1.000000e-001
    endloop
  endfacet
  facet normal -0.000000e+000 0.000000e+000 1.000000e+000
    outer loop
      vertex   -3.650000e-001 2.107328e-001 1.000000e-001
      vertex   -8.660254e-002 5.000000e-002 1.000000e-001
      vertex   -7.660444e-002 6.427876e-002 1.000000e-001
    endloop
  endfacet
  facet normal 0.000000e+000 0.000000e+000 1.000000e+000
    outer loop
      vertex   -6.427876e-002 7.660444e-002 1.000000e-001
      vertex   -3.650000e-001 2.107328e-001 1.000000e-001
      vertex   -7.660444e-002 6.427876e-002 1.000000e-001
    endloop
  endfacet
  facet normal 0.000000e+000 -0.000000e+000 1.000000e+000
    outer loop
      vertex   -6.427876e-002 7.660444e-002 1.000000e-001
      vertex   -5.000000e-002 8.660254e-002 1.000000e-001
      vertex   -3.650000e-001 2.107328e-001 1.000000e-001
    endloop
  endfacet
  facet normal -0.000000e+000 0.000000e+000 1.000000e+000
    outer loop
      vertex   -3.650000e-001 2.107328e-001 1.000000e-001
      vertex   -5.000000e-002 8.660254e-002 1.000000e-001
      vertex   0.000000e+000 4.214657e-001 1.000000e-001
    endloop
  endfacet
  facet normal -0.000000e+000 0.000000e+000 1.000000e+000
    outer loop
      vertex   0.000000e+000 4.214657e-001 1.000000e-001
      vertex   -5.000000e-002 8.660254e-002 1.000000e-001
      vertex   -3.420201e-002 9.396926e-002 1.000000e-001
    endloop
  endfacet
  facet normal 0.000000e+000 -0.000000e+000 1.000000e+000
    outer loop
      vertex   -1.736482e-002 9.848078e-002 1.000000e-001
      vertex   0.000000e+000 4.214657e-001 1.000000e-001
      vertex   -3.420201e-002 9.396926e-002 1.000000e-001
    endloop
  endfacet
  facet normal 0.000000e+000 -0.000000e+000 1.000000e+000
    outer loop
      vertex   -1.736482e-002 9.848078e-002 1.000000e-001
      vertex   1.441308e-017 1.000000e-001 1.000000e-001
      vertex   0.000000e+000 4.214657e-001 1.000000e-001
    endloop
  endfacet
  facet normal 0.000000e+000 0.000000e+000 1.000000e+000
    outer loop
      vertex   0.000000e+000 4.214657e-001 1.000000e-001
      vertex   1.441308e-017 1.000000e-001 1.000000e-001
      vertex   1.736482e-002 9.848078e-002 1.000000e-001
    endloop
  endfacet
  facet normal 0.000000e+000 0.000000e+000 1.000000e+000
    outer loop
      vertex   3.420201e-002 9.396926e-002 1.000000e-001
      vertex   0.000000e+000 4.214657e-001 1.000000e-001
      vertex   1.736482e-002 9.848078e-002 1.000000e-001
    endloop
  endfacet
  facet normal -0.000000e+000 -0.000000e+000 1.000000e+000
    outer loop
      vertex   3.420201e-002 9.396926e-002 1.000000e-001
      vertex   5.000000e-002 8.660254e-002 1.000000e-001
      vertex   0.000000e+000 4.214657e-001 1.000000e-001
    endloop
  endfacet
  facet normal -0.000000e+000 0.000000e+000 1.000000e+000
    outer loop
      vertex   0.000000e+000 4.214657e-001 1.000000e-001
      vertex   5.000000e-002 8.660254e-002 1.000000e-001
      vertex   3.650000e-001 2.107328e-001 1.000000e-001
    endloop
  endfacet
  facet normal 0.000000e+000 0.000000e+000 1.000000e+000
    outer loop
      vertex   3.650000e-001 2.107328e-001 1.000000e-001
      vertex   5.000000e-002 8.660254e-002 1.000000e-001
      vertex   6.427876e-002 7.660444e-002 1.000000e-001
    endloop
  endfacet
  facet normal 0.000000e+000 -0.000000e+000 1.000000e+000
    outer loop
      vertex   7.660444e-002 6.427876e-002 1.000000e-001
      vertex   3.650000e-001 2.107328e-001 1.000000e-001
      vertex   6.427876e-002 7.660444e-002 1.000000e-001
    endloop
  endfacet
  facet normal -0.000000e+000 0.000000e+000 1.000000e+000
    outer loop
      vertex   7.660444e-002 6.427876e-002 1.000000e-001
      vertex   8.660254e-002 5.000000e-002 1.000000e-001
      vertex   3.650000e-001 2.107328e-001 1.000000e-001
    endloop
  endfacet
  facet normal 0.000000e+000 0.000000e+000 1.000000e+000
    outer loop
      vertex   3.650000e-001 2.107328e-001 1.000000e-001
      vertex   8.660254e-002 5.000000e-002 1.000000e-001
      vertex   9.396926e-002 3.420201e-002 1.000000e-001
    endloop
  endfacet
  facet normal 0.000000e+000 -0.000000e+000 1.000000e+000
    outer loop
      vertex   9.848078e-002 1.736482e-002 1.000000e-001
      vertex   3.650000e-001 2.107328e-001 1.000000e-001
      vertex   9.396926e-002 3.420201e-002 1.000000e-001
    endloop
  endfacet
  facet normal -0.000000e+000 0.000000e+000 1.000000e+000
    outer loop
      vertex   9.848078e-002 1.736482e-002 1.000000e-001
      vertex   1.000000e-001 -1.225855e-015 1.000000e-001
      vertex   3.650000e-001 2.107328e-001 1.000000e-001
    endloop
  endfacet
  facet normal 0.000000e+000 0.000000e+000 1.000000e+000
    outer loop
      vertex   3.650000e-001 2.107328e-001 1.000000e-001
      vertex   1.000000e-001 -1.225855e-015 1.000000e-001
      vertex   3.650000e-001 -2.107328e-001 1.000000e-001
    endloop
  endfacet
  facet normal 0.000000e+000 -0.000000e+000 1.000000e+000
    outer loop
      vertex   -4.808052e-016 -4.214657e-001 1.000000e-001
      vertex   3.650000e-001 -2.107328e-001 1.000000e-001
      vertex   5.000000e-002 -8.660254e-002 1.000000e-001
    endloop
  endfacet
  facet normal -0.000000e+000 0.000000e+000 -1.000000e+000
    outer loop
      vertex   3.650000e-001 2.107328e-001 0.000000e+000
      vertex   -4.808052e-016 -4.214657e-001 0.000000e+000
      vertex   0.000000e+000 4.214657e-001 0.000000e+000
    endloop
  endfacet
  facet normal 0.000000e+000 0.000000e+000 -1.000000e+000
    outer loop
      vertex   3.650000e-001 2.107328e-001 0.000000e+000
      vertex   3.650000e-001 -2.107328e-001 0.000000e+000
      vertex   -4.808052e-016 -4.214657e-001 0.000000e+000
    endloop
  endfacet
  facet normal 0.000000e+000 0.000000e+000 -1.000000e+000
    outer loop
      vertex   -4.808052e-016 -4.214657e-001 0.000000e+000
      vertex   -3.650000e-001 -2.107328e-001 0.000000e+000
      vertex   0.000000e+000 4.214657e-001 0.000000e+000
    endloop
  endfacet
  facet normal -0.000000e+000 0.000000e+000 -1.000000e+000
    outer loop
      vertex   0.000000e+000 4.214657e-001 0.000000e+000
      vertex   -3.650000e-001 -2.107328e-001 0.000000e+000
      vertex   -3.650000e-001 2.107328e-001 0.000000e+000
    endloop
  endfacet
endsolid
