G04 DipTrace 2.2.0.9*
%INTopMask.gbr*%
%MOIN*%
%ADD19C,0.04*%
%ADD21C,0.118*%
%ADD22C,0.157*%
%ADD23C,0.067*%
%ADD30C,0.108*%
%ADD32C,0.088*%
%ADD34R,0.058X0.058*%
%ADD36C,0.058*%
%FSLAX44Y44*%
%SFA1B1*%
%OFA0B0*%
G04*
G70*
G90*
G75*
G01*
%LNTopMask*%
%LPD*%
D19*
X31455Y4344D3*
X32585Y15566D3*
X27950D3*
X27410Y11785D3*
X27705Y26844D3*
X31455Y19344D3*
X28785Y6450D3*
X22250Y21450D3*
X25545Y4750D3*
X23750Y12950D3*
X21335Y11494D3*
Y6450D3*
X20205Y11844D3*
X25045Y18000D3*
X10450Y12950D3*
X8165Y11602D3*
X9200Y9000D3*
X11145Y5750D3*
X16455Y4344D3*
X16750Y6254D3*
X16455Y19335D3*
X20300Y20850D3*
X20250Y24700D3*
X14445Y23750D3*
X15985Y17250D3*
X17600Y16364D3*
X8600Y13950D3*
X17600D3*
X13250Y7900D3*
X13950Y11494D3*
X16350Y13000D3*
X20000Y14600D3*
X22250Y5450D3*
X17585Y3694D3*
X27300Y9000D3*
X25695Y15750D3*
Y20850D3*
X24850Y21254D3*
X15900Y15250D3*
X16250Y24000D3*
X14600Y8500D3*
Y6450D3*
X11965D3*
D36*
X3000Y24000D3*
D34*
X4000D3*
D36*
X10500D3*
D34*
X11500D3*
D36*
X18000D3*
D34*
X19000D3*
D36*
X25500D3*
D34*
X26500D3*
D36*
X6750Y16500D3*
D34*
X7750D3*
D36*
X14250D3*
D34*
X15250D3*
D36*
X21750D3*
D34*
X22750D3*
D36*
X29250D3*
D34*
X30250D3*
D36*
X3000Y9000D3*
D34*
X4000D3*
D36*
X10500D3*
D34*
X11500D3*
D36*
X18000D3*
D34*
X19000D3*
D36*
X25500D3*
D34*
X26500D3*
D36*
X6750Y1500D3*
D34*
X7750D3*
D36*
X14250D3*
D34*
X15250D3*
D36*
X21750D3*
D34*
X22750D3*
D36*
X29250D3*
D34*
X30250D3*
D21*
X26000Y22250D3*
X7250D3*
Y7250D3*
X26000D3*
D32*
X22250Y9500D3*
Y10500D3*
Y11500D3*
Y12500D3*
X18750Y7250D3*
X17750D3*
X16750D3*
X15750D3*
X14250Y22250D3*
X15250D3*
X16250D3*
X17250D3*
X18500Y17000D3*
Y18000D3*
Y19000D3*
Y20000D3*
D30*
X2000Y27000D3*
X4500Y28000D3*
D22*
X3500Y26000D3*
D23*
X1500D3*
X5500D3*
D30*
X9500Y27000D3*
X12000Y28000D3*
D22*
X11000Y26000D3*
D23*
X9000D3*
X13000D3*
D30*
X17000Y27000D3*
X19500Y28000D3*
D22*
X18500Y26000D3*
D23*
X16500D3*
X20500D3*
D30*
X24500Y27000D3*
X27000Y28000D3*
D22*
X26000Y26000D3*
D23*
X24000D3*
X28000D3*
D30*
X5750Y19500D3*
X8250Y20500D3*
D22*
X7250Y18500D3*
D23*
X5250D3*
X9250D3*
D30*
X13250Y19500D3*
X15750Y20500D3*
D22*
X14750Y18500D3*
D23*
X12750D3*
X16750D3*
D30*
X20750Y19500D3*
X23250Y20500D3*
D22*
X22250Y18500D3*
D23*
X20250D3*
X24250D3*
D30*
X28250Y19500D3*
X30750Y20500D3*
D22*
X29750Y18500D3*
D23*
X27750D3*
X31750D3*
D30*
X2000Y12000D3*
X4500Y13000D3*
D22*
X3500Y11000D3*
D23*
X1500D3*
X5500D3*
D30*
X9500Y12000D3*
X12000Y13000D3*
D22*
X11000Y11000D3*
D23*
X9000D3*
X13000D3*
D30*
X17000Y12000D3*
X19500Y13000D3*
D22*
X18500Y11000D3*
D23*
X16500D3*
X20500D3*
D30*
X24500Y12000D3*
X27000Y13000D3*
D22*
X26000Y11000D3*
D23*
X24000D3*
X28000D3*
D30*
X5750Y4500D3*
X8250Y5500D3*
D22*
X7250Y3500D3*
D23*
X5250D3*
X9250D3*
D30*
X13250Y4500D3*
X15750Y5500D3*
D22*
X14750Y3500D3*
D23*
X12750D3*
X16750D3*
D30*
X20750Y4500D3*
X23250Y5500D3*
D22*
X22250Y3500D3*
D23*
X20250D3*
X24250D3*
D30*
X28250Y4500D3*
X30750Y5500D3*
D22*
X29750Y3500D3*
D23*
X27750D3*
X31750D3*
M02*
