G04 DipTrace 2.2.0.9*
%INTop.gbr*%
%MOIN*%
%ADD13C,0.03*%
%ADD15C,0.05*%
%ADD16R,0.05X0.05*%
%ADD17C,0.08*%
%ADD18C,0.1*%
%ADD19C,0.04*%
%FSLAX44Y44*%
%SFA1B1*%
%OFA0B0*%
G04*
G70*
G90*
G75*
G01*
%LNTop*%
%LPD*%
X9500Y27000D2*
D13*
X11450Y28950D1*
X15050D1*
X17000Y27000D1*
Y28950D1*
X22550D1*
X24500Y27000D1*
X32585Y15566D2*
Y19344D1*
Y20850D1*
X31985Y21450D1*
X28785D1*
Y26844D1*
X27705D1*
X31455Y4344D2*
X31700Y4589D1*
Y6450D1*
X28785D1*
X31455Y19344D2*
X32585D1*
X27410Y11785D2*
X27950Y12325D1*
Y15566D1*
X28785Y6450D2*
X27785Y5450D1*
X25400D1*
X24800Y6050D1*
Y7250D1*
X18750D1*
X23750Y12950D2*
X23350Y13350D1*
X21335D1*
X20450Y12465D1*
Y12089D1*
X20205Y11844D1*
X25045Y18000D2*
Y18862D1*
X24200Y19708D1*
Y21450D1*
X22250D1*
X25545Y4750D2*
X24800D1*
X24200Y5350D1*
Y6450D1*
X21335D1*
Y11494D2*
Y13350D1*
Y6450D2*
X21285Y6400D1*
X18150D1*
X17750Y6800D1*
Y7250D1*
X21335Y6450D2*
D3*
X8165Y11602D2*
Y12350D1*
X8765Y12950D1*
X10450D1*
X11145Y5750D2*
X9200Y7695D1*
Y9000D1*
X16750Y6254D2*
Y4639D1*
X16455Y4344D1*
X20300Y20850D2*
X17700D1*
X17100Y20250D1*
Y19980D1*
X16455Y19335D1*
X14445Y23750D2*
X15395Y24700D1*
X20250D1*
X20750Y19500D2*
D3*
X13250D2*
X11965D1*
Y17850D1*
X11365Y17250D1*
X4866D1*
X4266Y17850D1*
Y19500D1*
X5750D1*
X20750D2*
X20650Y19600D1*
X19350D1*
Y19000D1*
X18950D1*
X19350Y18600D1*
Y17800D1*
X19950Y17200D1*
X25695D1*
Y18900D1*
X26295Y19500D1*
X28250D1*
X11965Y17850D2*
X12565Y17250D1*
X15985D1*
X18500Y19000D2*
X18950D1*
X17000Y12000D2*
Y12950D1*
X17600D1*
Y13950D1*
X8600D1*
X17600Y16364D2*
Y17600D1*
X18000Y18000D1*
X18500D1*
X17600Y13950D2*
X23900D1*
X24500Y13350D1*
Y12000D1*
X8600Y13950D2*
X3950D1*
X2000Y12000D1*
X20750Y4500D2*
X19600D1*
X19000Y3900D1*
Y2865D1*
X19600Y2265D1*
X25595D1*
X26195Y2865D1*
Y3900D1*
X26795Y4500D1*
X28250D1*
X13250Y7900D2*
Y4500D1*
X11965D1*
Y2865D1*
X11365Y2265D1*
X4866D1*
X4266Y2865D1*
Y4500D1*
X5750D1*
X16350Y13000D2*
X15456D1*
X13950Y11494D1*
X11965Y2865D2*
X12565Y2265D1*
X18400D1*
X19000Y2865D1*
X26500Y24000D2*
X25800Y24700D1*
X21635D1*
X20935Y24000D1*
X19000D1*
X11500D2*
X10800Y24700D1*
X4700D1*
X4000Y24000D1*
X19000D2*
X18100Y23100D1*
X12400D1*
X11500Y24000D1*
X22750Y16500D2*
X25945D1*
X26645Y17200D1*
X29550D1*
X30250Y16500D1*
X20000Y14600D2*
X15250D1*
Y16500D1*
X14550Y15800D1*
X8450D1*
X7750Y16500D1*
X4000Y9000D2*
X4700Y9700D1*
X10800D1*
X11500Y9000D1*
X22250Y10500D2*
X23100D1*
X23900Y9700D1*
X25800D1*
X26500Y9000D1*
X19000D2*
X20185D1*
X21685Y10500D1*
X22250D1*
X11500Y9000D2*
X12200Y9700D1*
X18300D1*
X19000Y9000D1*
X30250Y1500D2*
X29266Y516D1*
X25487D1*
X24503Y1500D1*
X22750D1*
X17585Y3694D2*
Y4850D1*
X18185Y5450D1*
X22250D1*
X15250Y1500D2*
X14550Y800D1*
X8450D1*
X7750Y1500D1*
X22750D2*
X22050Y800D1*
X15950D1*
X15250Y1500D1*
X25500Y24000D2*
X23760D1*
X22010Y22250D1*
X17250D1*
X29250Y16500D2*
Y15748D1*
X28785Y15283D1*
Y10485D1*
X27300Y9000D1*
X15900Y15250D2*
X18725D1*
X19975Y16500D1*
X21750D1*
X24850Y21254D2*
Y21050D1*
X25050Y20850D1*
X25695D1*
X16250Y24000D2*
X18000D1*
X21750Y16500D2*
Y16000D1*
X22000Y15750D1*
X25695D1*
X14600Y6450D2*
Y8500D1*
X11965Y6450D2*
Y7133D1*
X12200Y7368D1*
Y8000D1*
X10500D1*
Y9000D1*
X3000Y24000D2*
Y23016D1*
X4533D1*
X4867Y23350D1*
X7800D1*
X8900Y22250D1*
X14250D1*
D19*
X31455Y4344D3*
X32585Y15566D3*
X27950D3*
X27410Y11785D3*
X27705Y26844D3*
X31455Y19344D3*
X28785Y6450D3*
X22250Y21450D3*
X25545Y4750D3*
X23750Y12950D3*
X21335Y11494D3*
Y6450D3*
X20205Y11844D3*
X25045Y18000D3*
X10450Y12950D3*
X8165Y11602D3*
X9200Y9000D3*
X11145Y5750D3*
X16455Y4344D3*
X16750Y6254D3*
X16455Y19335D3*
X20300Y20850D3*
X20250Y24700D3*
X14445Y23750D3*
X15985Y17250D3*
X17600Y16364D3*
X8600Y13950D3*
X17600D3*
X13250Y7900D3*
X13950Y11494D3*
X16350Y13000D3*
X20000Y14600D3*
X22250Y5450D3*
X17585Y3694D3*
X27300Y9000D3*
X25695Y15750D3*
Y20850D3*
X24850Y21254D3*
X15900Y15250D3*
X16250Y24000D3*
X14600Y8500D3*
Y6450D3*
X11965D3*
D15*
X3000Y24000D3*
D16*
X4000D3*
D15*
X10500D3*
D16*
X11500D3*
D15*
X18000D3*
D16*
X19000D3*
D15*
X25500D3*
D16*
X26500D3*
D15*
X6750Y16500D3*
D16*
X7750D3*
D15*
X14250D3*
D16*
X15250D3*
D15*
X21750D3*
D16*
X22750D3*
D15*
X29250D3*
D16*
X30250D3*
D15*
X3000Y9000D3*
D16*
X4000D3*
D15*
X10500D3*
D16*
X11500D3*
D15*
X18000D3*
D16*
X19000D3*
D15*
X25500D3*
D16*
X26500D3*
D15*
X6750Y1500D3*
D16*
X7750D3*
D15*
X14250D3*
D16*
X15250D3*
D15*
X21750D3*
D16*
X22750D3*
D15*
X29250D3*
D16*
X30250D3*
D17*
X22250Y9500D3*
Y10500D3*
Y11500D3*
Y12500D3*
X18750Y7250D3*
X17750D3*
X16750D3*
X15750D3*
X14250Y22250D3*
X15250D3*
X16250D3*
X17250D3*
X18500Y17000D3*
Y18000D3*
Y19000D3*
Y20000D3*
D18*
X2000Y27000D3*
X4500Y28000D3*
X9500Y27000D3*
X12000Y28000D3*
X17000Y27000D3*
X19500Y28000D3*
X24500Y27000D3*
X27000Y28000D3*
X5750Y19500D3*
X8250Y20500D3*
X13250Y19500D3*
X15750Y20500D3*
X20750Y19500D3*
X23250Y20500D3*
X28250Y19500D3*
X30750Y20500D3*
X2000Y12000D3*
X4500Y13000D3*
X9500Y12000D3*
X12000Y13000D3*
X17000Y12000D3*
X19500Y13000D3*
X24500Y12000D3*
X27000Y13000D3*
X5750Y4500D3*
X8250Y5500D3*
X13250Y4500D3*
X15750Y5500D3*
X20750Y4500D3*
X23250Y5500D3*
X28250Y4500D3*
X30750Y5500D3*
M02*
