M48
INCH
T01C0.019
T02C0.028
T03C0.047
T04C0.059
T05C0.067
T06C0.118
T07C0.157
%
T01
X+031455Y+004344
X+028785Y+006450
X+027300Y+009000
X+027410Y+011785
X+027950Y+015566
X+025695Y+015750
X+025045Y+018000
X+025695Y+020850
X+024850Y+021254
X+022250Y+021450
X+020300Y+020850
X+020250Y+024700
X+016250Y+024000
X+014445Y+023750
X+016455Y+019335
X+015985Y+017250
X+017600Y+016364
X+015900Y+015250
X+017600Y+013950
X+016350Y+013000
X+013950Y+011494
X+014600Y+008500
X+013250Y+007900
X+011965Y+006450
X+011145Y+005750
X+014600Y+006450
X+016750Y+006254
X+016455Y+004344
X+017585Y+003694
X+021335Y+006450
X+022250Y+005450
X+025545Y+004750
X+021335Y+011494
X+020205Y+011844
X+020000Y+014600
X+023750Y+012950
X+032585Y+015566
X+031455Y+019344
X+027705Y+026844
X+010450Y+012950
X+008600Y+013950
X+008165Y+011602
X+009200Y+009000
T02
X+003000Y+024000
X+004000Y+024000
X+010500Y+024000
X+011500Y+024000
X+018000Y+024000
X+019000Y+024000
X+025500Y+024000
X+026500Y+024000
X+029250Y+016500
X+030250Y+016500
X+022750Y+016500
X+021750Y+016500
X+015250Y+016500
X+014250Y+016500
X+007750Y+016500
X+006750Y+016500
X+004000Y+009000
X+003000Y+009000
X+010500Y+009000
X+011500Y+009000
X+018000Y+009000
X+019000Y+009000
X+025500Y+009000
X+026500Y+009000
X+029250Y+001500
X+030250Y+001500
X+022750Y+001500
X+021750Y+001500
X+015250Y+001500
X+014250Y+001500
X+007750Y+001500
X+006750Y+001500
T03
X+022250Y+009500
X+022250Y+010500
X+022250Y+011500
X+022250Y+012500
X+018500Y+017000
X+018500Y+018000
X+018500Y+019000
X+018500Y+020000
X+017250Y+022250
X+016250Y+022250
X+015250Y+022250
X+014250Y+022250
X+015750Y+007250
X+016750Y+007250
X+017750Y+007250
X+018750Y+007250
T04
X+002000Y+027000
X+004500Y+028000
X+009500Y+027000
X+012000Y+028000
X+017000Y+027000
X+019500Y+028000
X+024500Y+027000
X+027000Y+028000
X+023250Y+020500
X+020750Y+019500
X+015750Y+020500
X+013250Y+019500
X+008250Y+020500
X+005750Y+019500
X+004500Y+013000
X+002000Y+012000
X+009500Y+012000
X+012000Y+013000
X+017000Y+012000
X+019500Y+013000
X+024500Y+012000
X+027000Y+013000
X+028250Y+019500
X+030750Y+020500
X+030750Y+005500
X+028250Y+004500
X+023250Y+005500
X+020750Y+004500
X+015750Y+005500
X+013250Y+004500
X+008250Y+005500
X+005750Y+004500
T05
X+001500Y+026000
X+005500Y+026000
X+009000Y+026000
X+013000Y+026000
X+016500Y+026000
X+020500Y+026000
X+024000Y+026000
X+028000Y+026000
X+027750Y+018500
X+024250Y+018500
X+020250Y+018500
X+016750Y+018500
X+012750Y+018500
X+009250Y+018500
X+005250Y+018500
X+005500Y+011000
X+009000Y+011000
X+013000Y+011000
X+016500Y+011000
X+020500Y+011000
X+024000Y+011000
X+028000Y+011000
X+027750Y+003500
X+024250Y+003500
X+020250Y+003500
X+016750Y+003500
X+012750Y+003500
X+009250Y+003500
X+005250Y+003500
X+001500Y+011000
X+031750Y+018500
X+031750Y+003500
T06
X+026000Y+022250
X+026000Y+007250
X+007250Y+007250
X+007250Y+022250
T07
X+003500Y+026000
X+011000Y+026000
X+018500Y+026000
X+026000Y+026000
X+022250Y+018500
X+014750Y+018500
X+007250Y+018500
X+011000Y+011000
X+003500Y+011000
X+007250Y+003500
X+014750Y+003500
X+022250Y+003500
X+029750Y+003500
X+026000Y+011000
X+018500Y+011000
X+029750Y+018500
T00
M30
